<svg version="1.1" xmlns="http://www.w3.org/2000/svg" xmlns:xlink="http://www.w3.org/1999/xlink" x="0px" y="0px"
	 viewBox="0 0 1099 746" style="enable-background:new 0 0 1099 746;" xml:space="preserve">
<style type="text/css">
	.anac1_st0{fill:#063772;}
	.anac1_st1{fill:#F2C6A5;}
	.anac1_st2{fill:#042D68;}
	.anac1_st3{fill:none;stroke:#0C0C0C;stroke-width:0.25;stroke-miterlimit:10;}
	.anac1_st4{fill:#9BB9D3;}
	.anac1_st5{fill:#FCD4B1;}
	.anac1_st6{fill:#F4C6A4;}
	.anac1_st7{fill:#1D0421;}
	.anac1_st8{fill:#A57F41;}
	.anac1_st9{fill:#08417A;}
	.anac1_st95{opacity:0;}
	.anac1_st10{fill:#D8D8D8;}
	.anac1_st11{display:inline;fill:#D8D8D8;}
	.anac1_st12{display:inline;fill:#05274F;}
	.anac1_st13{display:inline;fill:#063772;}
	.anac1_st14{display:inline;fill:#B5B5B5;}
	.anac1_st15{display:inline;fill:#A0A0A0;}
	.anac1_st16{fill:#8DBC1F;}
	.anac1_st17{fill:#4695DB;}
	.anac1_st18{fill:#64ABF9;}
	.anac1_st19{fill:#A5CDF9;}
	.anac1_st20{fill:#D8D8D8;}
	.anac1_st21{fill:#05274F;}
	.anac1_st22{fill:#CACBCC;}
	.anac1_st23{fill:#333333;}
	.anac1_st24{fill:#444343;}
	.anac1_st25{fill:#8EBEFF;}
	.anac1_st90{fill:none;stroke:#BC9479;stroke-miterlimit:10;}
</style>
<g id="corps-anac1">
	<g id="bras-d-anac1">
		<path class="anac1_st0" d="M409.2,548.6l-1.8-1c-8.6-4.7-11.7-15.6-7-24.2L468,400.8c5-9.1,16.5-12.4,25.6-7.4h0
			c9.1,5,12.4,16.5,7.4,25.6l-67.6,122.6C428.7,550.2,417.8,553.3,409.2,548.6z"/>
		<path id="avantbras-d-anac1" class="anac1_st9" d="M520,582l-111.7-29.1c-9.3-2.4-14.8-11.9-12.4-21.2l0,0c2.4-9.3,11.9-14.8,21.2-12.4
				l111.7,29.1L520,582z"/>
	</g>
	<g id="bras-g-anac1">
		<path class="anac1_st0" d="M697.4,535.6l2-1.1c8.5-4.8,11.6-15.5,6.8-24.1L645.8,402c-5.1-9.1-16.5-12.4-25.6-7.3h0
					c-9.1,5.1-12.4,16.5-7.3,25.6l60.4,108.4C678.1,537.3,688.9,540.3,697.4,535.6z"/>
		<path id="avantbras-g-anac1" class="anac1_st9" d="M625.1,601.2l78.9-62.9c7.5-6,8.7-16.9,2.7-24.4v0c-6-7.5-16.9-8.7-24.4-2.7
					l-78.9,62.9L625.1,601.2z"/>
	</g>
	<polygon class="anac1_st1" points="562,397 525.3,385.8 542.5,368.5 570.4,368.5 586.5,383.6 	"/>
	<path class="anac1_st2" d="M576.8,374.7l60.6,20.6c2.5,0.6,4.2,3,4,5.6l-19.2,215.5H486.3l-16.9-215.8c-0.2-2.4,1.4-4.7,3.8-5.3l63-20.7
		c0,0,11.3,15.6,20.2,15.6C565.4,390.3,576.8,374.7,576.8,374.7z"/>
	<rect x="542.5" y="352.9" class="anac1_st1" width="27.9" height="25"/>
	<path class="anac1_st3" d="M541.8,365.9"/>
	<path class="anac1_st3" d="M569.4,365.3"/>
	<path class="anac1_st4" d="M555.6,374.4"/>
	<g id="tete-anac1">
		<path class="anac1_st5" d="M628.1,241.9"/>
		<path class="anac1_st5" d="M628.1,241.9c0,44.7-15.6,125.5-72.3,125.5s-70-81.5-70-126.2l33.6-24.1h66.2L628.1,241.9z"/>
		<polygon class="anac1_st6" points="545.4,312.1 564.6,312.1 555.7,319.4 		"/>
		<path class="anac1_st5" d="M629.8,288.4c-1.1,3.4-3.9,8.1-6.6,7.1c-2.7-1-0.8-4.9-0.3-9c0.5-4.1,0.3-13.9,5.2-13.3
			C633,273.7,631,284.5,629.8,288.4"/>
		<path class="anac1_st5" d="M483.5,288.4c1.1,3.4,3.9,8.1,6.6,7.1c2.7-1,0.8-4.9,0.3-9c-0.5-4.1-0.3-13.9-5.2-13.3
			C480.3,273.7,482.2,284.5,483.5,288.4"/>
		<path class="anac1_st7" d="M559.5,277.5c0,0,0,0-0.1,0c-0.1,0-0.1,0-0.1,0H559.5z"/>
		<path class="anac1_st8" d="M513.5,232.1c13.5,13.7,43.9,36.7,71.1,30.7c-4.7-3.5-7.7-22.7-7.7-22.7s24.9,10.9,35.5,22.7
			c11.4,12.6,7,37.6,7,37.6s43.5-124-62.6-124s-64,124-64,124S494.4,262.4,513.5,232.1z"/>
		<g>
			<defs>
				<rect id="rect_cp_anac1" x="533.5" y="331.5" width="25" height="13"/>
				<clipPath id="cp_anac1">
					<use xlink:href="#rect_cp_anac1"  style="overflow:visible;"/>
				</clipPath>
			</defs>
			<g clip-path="url(#cp_anac1)">
				<path id="bouche-anac1" class="anac1_st90" d="M534,332c0,0,9,13,24,11"/>
			</g>
		</g>
	</g>
</g>
<g id="costume-anac1" class="anac1_st95">
	<polygon class="anac1_st10" points="553.3,387.5 555.5,390.2 557.9,387.5 577.6,375 582.2,375.4 555.4,497.8 525.3,376.6 535.2,375 	"/>
	<path class="anac1_st12" d="M560.2,390.4l-4.8,4.8l-4.5-4.8l2.3-2.9c0.8-0.8,3.7-0.8,4.5,0L560.2,390.4z"/>
	<polygon class="anac1_st12" points="553.3,392.9 549.2,464.9 554.7,502.9 561.5,465.2 558,392.9 	"/>
	<polygon class="anac1_st0" points="529.7,366.9 555.4,496.1 516.4,422.6 524.2,408.1 504.1,382.5 	"/>
	<polygon class="anac1_st0" points="581,366.9 555.4,496.1 594.3,422.6 586.5,408.1 606.6,382.5 	"/>
	<polygon class="anac1_st12" points="531.5,375.9 536.4,374.7 542.5,368.6 542.5,366.9 529.7,366.9 	"/>
	<polygon class="anac1_st12" points="581,366.9 579.3,375.3 577.1,374.7 570.4,368.5 570.4,366.9 	"/>
	<polygon class="anac1_st14" points="536.8,369.1 532.7,375.5 548.6,393.5 553.3,387.5 	"/>
	<polygon class="anac1_st14" points="574.5,369.1 578.6,375.1 562.7,393.5 558,387.5 	"/>
	<polygon class="anac1_st13" points="536.8,369.1 539.3,371.9 542.1,369 	"/>
	<polygon class="anac1_st13" points="572.9,370.9 574.5,369.1 571.1,369.1 	"/>
</g>

<g id="items-anac1">
	<g>
		<path class="anac1_st16" d="M485.2,545.7h0.4l7.3,17.9h-3.9l-0.7-1.9h-5.7l-0.7,1.9h-3.9L485.2,545.7z M486.9,558.5l-1.6-4.5l-1.6,4.5
			H486.9z"/>
		<path class="anac1_st16" d="M498.7,546.3v13.9h5.5v3.5h-9v-17.3H498.7z"/>
		<path class="anac1_st16" d="M515.2,563.7c-11.4,0-12-17.1,0-17.6c2.1-0.1,3.7,0.5,4,0.6l-0.4,3.5c-0.7-0.3-1.8-0.7-3.6-0.6
			c-7,0.2-6.7,10.6,0,10.6c0.3,0,0.7,0,1-0.1V555h3.5v7.6C518.3,563.3,516.8,563.7,515.2,563.7z"/>
		<path class="anac1_st16" d="M531.8,546c11.9,0,11.9,17.9,0,17.9C519.9,563.9,519.9,546,531.8,546z M531.8,549.6c-6.9,0-6.9,10.7,0,10.7
			C538.7,560.3,538.7,549.6,531.8,549.6z"/>
		<path class="anac1_st16" d="M552.6,563.6l-3.5-6.6h-1.7v6.6H544v-17.3h6.8c6.2,0,6.8,8.7,1.7,10.2l4,7.1H552.6z M547.5,553.6h3.1
			c2.3,0,2.3-3.9,0-3.9h-3.1V553.6z"/>
		<path class="anac1_st16" d="M558.8,563.6v-17.3h3.5v17.3H558.8z"/>
		<path class="anac1_st16" d="M569.1,563.6v-13.9h-4.3v-3.4h12.1v3.4h-4.3v13.9H569.1z"/>
		<path class="anac1_st16" d="M588.1,563.6v-6.9h-5.2v6.9h-3.5v-17.3h3.5v6.9h5.2v-6.9h3.5v17.3H588.1z"/>
		<path class="anac1_st16" d="M610.2,546h1.1v17.6h-3.5l0-9.7l-4.4,4.7L599,554v9.7h-3.5V546h1.1l6.8,7.6L610.2,546z"/>
		<path class="anac1_st16" d="M615.2,563.6v-17.3h8.7v3.5h-5.2v3.5h4.6v3.5h-4.6v3.5h5.5v3.5H615.2z"/>
		<path class="anac1_st16" d="M627.1,558.9c2,1.4,4.1,1.5,4.9,1.4c1-0.1,1.9-0.8,1.8-1.7c-0.1-1-0.8-1.4-1.8-1.8c-2.7-1-5.1-2.4-5.1-5.3
			c0-2.9,2-5.1,4.9-5.3c0.9,0,2.1,0,4.3,0.7l-0.4,3.3c-1.9-0.8-3-0.8-3.5-0.7c-1.2,0.1-1.8,1-1.7,1.9c0.1,1,0.9,1.4,1.9,1.7
			c2.7,1,5,2.5,5,5.3c0,2.9-2,5.1-5.2,5.3c-1,0.1-3.1,0-5.5-1.3L627.1,558.9z"/>
	</g>
	<g>
		<path class="anac1_st16" d="M518.5,547.7h1.1v17.6h-3.5l0-9.7l-4.4,4.7l-4.4-4.7v9.7h-3.5v-17.6h1.1l6.8,7.6L518.5,547.7z"/>
		<path class="anac1_st16" d="M523.5,565.3V548h8.7v3.5H527v3.5h4.6v3.5H527v3.5h5.5v3.5H523.5z M531.6,544l-2.3,2.8h-3.1l1.2-2.8H531.6z"
			/>
		<path class="anac1_st16" d="M538.6,565.3v-13.9h-4.3V548h12.1v3.4H542v13.9H538.6z"/>
		<path class="anac1_st16" d="M557.6,565.3v-6.9h-5.2v6.9h-3.5V548h3.5v6.9h5.2V548h3.5v17.3H557.6z"/>
		<path class="anac1_st16" d="M573.3,547.7c11.9,0,11.9,17.9,0,17.9C561.4,565.5,561.4,547.7,573.3,547.7z M573.3,551.3
			c-6.9,0-6.9,10.7,0,10.7C580.2,562,580.2,551.3,573.3,551.3z"/>
		<path class="anac1_st16" d="M590.6,565.3h-5.2V548h5.2C602.2,548,602.2,565.3,590.6,565.3z M588.9,551.4v10.4h1.7c6.7,0,6.7-10.4,0-10.4
			H588.9z"/>
		<path class="anac1_st16" d="M602.5,565.3V548h8.7v3.5H606v3.5h4.6v3.5H606v3.5h5.5v3.5H602.5z"/>
	</g>
	<g>
		<path class="anac1_st16" d="M502.8,563.8c-11.4,0-12-17.1,0-17.6c2.1-0.1,3.7,0.5,4,0.6l-0.4,3.5c-0.7-0.3-1.8-0.7-3.6-0.6
			c-7,0.2-6.7,10.6,0,10.6c0.3,0,0.7,0,1-0.1V555h3.5v7.6C505.9,563.4,504.4,563.8,502.8,563.8z"/>
		<path class="anac1_st16" d="M519.7,563.7l-3.5-6.6h-1.7v6.6h-3.5v-17.3h6.8c6.2,0,6.8,8.7,1.7,10.2l4,7.1H519.7z M514.5,553.7h3.1
			c2.3,0,2.3-3.9,0-3.9h-3.1V553.7z"/>
		<path class="anac1_st16" d="M531.6,545.7h0.4l7.3,17.9h-3.9l-0.7-1.9H529l-0.7,1.9h-3.9L531.6,545.7z M533.4,558.6l-1.6-4.5l-1.6,4.5
			H533.4z"/>
		<path class="anac1_st16" d="M541.7,563.7v-17.3h6.8c6.7,0,6.7,10.7,0,10.7h-3.3v6.6H541.7z M548.2,553.7c2.3,0,2.3-3.9,0-3.9h-3.1v3.9
			H548.2z"/>
		<path class="anac1_st16" d="M565,563.7v-6.9h-5.2v6.9h-3.5v-17.3h3.5v6.9h5.2v-6.9h3.5v17.3H565z"/>
		<path class="anac1_st16" d="M572.3,563.7v-17.3h3.5v17.3H572.3z"/>
		<path class="anac1_st16" d="M579.3,558.9c2,1.4,4.1,1.5,4.9,1.4c1-0.1,1.9-0.8,1.8-1.7c-0.1-1-0.8-1.4-1.8-1.8c-2.7-1-5.1-2.4-5.1-5.3
			c0-2.9,2-5.1,4.9-5.3c0.9,0,2.1,0,4.3,0.7l-0.4,3.3c-1.9-0.8-3-0.8-3.5-0.7c-1.2,0.1-1.8,1-1.7,1.9c0.1,1,0.9,1.4,1.9,1.7
			c2.7,1,5,2.5,5,5.3c0,2.9-2,5.1-5.2,5.3c-1,0.1-3.1,0-5.5-1.3L579.3,558.9z"/>
		<path class="anac1_st16" d="M607.3,546.1h1.1v17.6h-3.5l0-9.7l-4.4,4.7L596,554v9.7h-3.5v-17.6h1.1l6.8,7.6L607.3,546.1z"/>
		<path class="anac1_st16" d="M612.3,563.7v-17.3h8.7v3.5h-5.2v3.5h4.6v3.5h-4.6v3.5h5.5v3.5H612.3z"/>
	</g>
	<g>
		<path class="anac1_st16" d="M541.1,546.1h6.9c3.1,0,5,2.2,4.9,5.3c0,1.3-0.5,2.7-1.6,3.4c1.1,0.8,1.8,2.1,1.8,3.5c0,2.9-2.3,5.2-5.1,5.2
			h-6.9V546.1z M544.6,553.1h2.1h1c1,0,1.6-0.8,1.6-1.7c0-1-0.6-1.7-1.6-1.7h-3.1V553.1z M544.6,560h2.1h1c1,0,1.7-0.8,1.7-1.7
			c0-1-0.8-1.7-1.7-1.7h-3.1V560z"/>
		<path class="anac1_st16" d="M556.1,563.4v-17.3h3.5v17.3H556.1z"/>
		<path class="anac1_st16" d="M566.3,563.4v-13.9H562v-3.4h12.1v3.4h-4.3v13.9H566.3z"/>
	</g>
	<g>
		<path class="anac1_st16" d="M520,549.6c-6.9,0-6.9,10.6,0,10.6c1.5,0,2.7-0.4,3.3-0.8l0.5,3.6c-1.1,0.4-2.6,0.7-3.8,0.7
			c-11.7,0-11.7-17.6,0-17.6c1.2,0,2.4,0.2,3.4,0.7l-0.4,3.6C522.3,550,521.5,549.6,520,549.6z"/>
		<path class="anac1_st16" d="M534.9,546c11.9,0,11.9,17.9,0,17.9C522.9,563.9,522.9,546,534.9,546z M534.9,549.6c-6.9,0-6.9,10.7,0,10.7
			S541.8,549.6,534.9,549.6z"/>
		<path class="anac1_st16" d="M552.2,563.6H547v-17.3h5.2C563.7,546.3,563.7,563.6,552.2,563.6z M550.5,549.8v10.4h1.7
			c6.7,0,6.7-10.4,0-10.4H550.5z"/>
		<path class="anac1_st16" d="M569.3,545.7h0.4l7.3,17.9H573l-0.7-1.9h-5.7l-0.7,1.9H562L569.3,545.7z M571,558.5l-1.6-4.5l-1.6,4.5H571z"
			/>
		<path class="anac1_st16" d="M586.8,563.7c-11.4,0-12-17.1,0-17.6c2.1-0.1,3.7,0.5,4,0.6l-0.4,3.5c-0.7-0.3-1.8-0.7-3.6-0.6
			c-7,0.2-6.7,10.6,0,10.6c0.3,0,0.7,0,1-0.1V555h3.5v7.6C589.9,563.3,588.4,563.7,586.8,563.7z"/>
		<path class="anac1_st16" d="M595.1,563.6v-17.3h8.7v3.5h-5.2v3.5h4.6v3.5h-4.6v3.5h5.5v3.5H595.1z"/>
	</g>
	<g>
		<path class="anac1_st16" d="M484.4,549.4c-6.9,0-6.9,10.6,0,10.6c1.5,0,2.7-0.4,3.3-0.8l0.5,3.6c-1.1,0.4-2.6,0.7-3.8,0.7
			c-11.7,0-11.7-17.6,0-17.6c1.2,0,2.4,0.2,3.4,0.7l-0.4,3.6C486.8,549.8,485.9,549.4,484.4,549.4z"/>
		<path class="anac1_st16" d="M499.3,545.8c11.9,0,11.9,17.9,0,17.9C487.4,563.7,487.4,545.8,499.3,545.8z M499.3,549.4
			c-6.9,0-6.9,10.7,0,10.7C506.3,560.1,506.3,549.4,499.3,549.4z"/>
		<path class="anac1_st16" d="M526.3,545.8h1.1v17.6h-3.5l0-9.7l-4.4,4.7l-4.4-4.7v9.7h-3.5v-17.6h1.1l6.8,7.6L526.3,545.8z"/>
		<path class="anac1_st16" d="M531.3,563.4v-17.3h6.8c6.7,0,6.7,10.7,0,10.7h-3.3v6.6H531.3z M537.8,553.5c2.3,0,2.3-3.9,0-3.9h-3.1v3.9
			H537.8z"/>
		<path class="anac1_st16" d="M554.5,563.4l-3.5-6.6h-1.7v6.6h-3.5v-17.3h6.8c6.2,0,6.8,8.7,1.7,10.2l4,7.1H554.5z M549.3,553.5h3.1
			c2.3,0,2.3-3.9,0-3.9h-3.1V553.5z"/>
		<path class="anac1_st16" d="M560.7,563.4v-17.3h8.7v3.5h-5.2v3.5h4.6v3.5h-4.6v3.5h5.5v3.5H560.7z"/>
		<path class="anac1_st16" d="M572.6,558.7c2,1.4,4.1,1.5,4.9,1.4c1-0.1,1.9-0.8,1.8-1.7c-0.1-1-0.8-1.4-1.8-1.8c-2.7-1-5.1-2.4-5.1-5.3
			c0-2.9,2-5.1,4.9-5.3c0.9,0,2.1,0,4.3,0.7l-0.4,3.3c-1.9-0.8-3-0.8-3.5-0.7c-1.2,0.1-1.8,1-1.7,1.9c0.1,1,0.9,1.4,1.9,1.7
			c2.7,1,5,2.5,5,5.3c0,2.9-2,5.1-5.2,5.3c-1,0.1-3.1,0-5.5-1.3L572.6,558.7z"/>
		<path class="anac1_st16" d="M585.4,558.7c2,1.4,4.1,1.5,4.9,1.4c1-0.1,1.9-0.8,1.8-1.7c-0.1-1-0.8-1.4-1.8-1.8c-2.7-1-5.1-2.4-5.1-5.3
			c0-2.9,2-5.1,4.9-5.3c0.9,0,2.1,0,4.3,0.7l-0.4,3.3c-1.9-0.8-3-0.8-3.5-0.7c-1.2,0.1-1.8,1-1.7,1.9c0.1,1,0.9,1.4,1.9,1.7
			c2.7,1,5,2.5,5,5.3c0,2.9-2,5.1-5.2,5.3c-1,0.1-3.1,0-5.5-1.3L585.4,558.7z"/>
		<path class="anac1_st16" d="M598.5,563.4v-17.3h3.5v17.3H598.5z"/>
		<path class="anac1_st16" d="M614.2,545.8c11.9,0,11.9,17.9,0,17.9C602.3,563.7,602.3,545.8,614.2,545.8z M614.2,549.4
			c-6.9,0-6.9,10.7,0,10.7S621.2,549.4,614.2,549.4z"/>
		<path class="anac1_st16" d="M629.9,563.4h-3.5v-17.7h0.9l8.7,10.2v-9.8h3.5v17.7h-0.9l-8.8-9.8V563.4z"/>
	</g>
	<g>
		<path class="anac1_st16" d="M494.6,565.2h-3.5v-17.7h0.9l8.7,10.2v-9.8h3.5v17.7h-0.9l-8.8-9.8V565.2z"/>
		<path class="anac1_st16" d="M508,559.2v-11.3h3.5v11.3c0,3.6,5.6,3.6,5.6,0v-11.3h3.4v11.3C520.6,567.4,508,567.4,508,559.2z"/>
		<path class="anac1_st16" d="M539.2,547.7h1.1v17.6h-3.5l0-9.7l-4.4,4.7l-4.4-4.7v9.7h-3.5v-17.6h1.1l6.8,7.6L539.2,547.7z"/>
		<path class="anac1_st16" d="M544.2,565.2v-17.3h8.7v3.5h-5.2v3.5h4.6v3.5h-4.6v3.5h5.5v3.5H544.2z M552.2,543.9l-2.3,2.8h-3.1l1.2-2.8
			H552.2z"/>
		<path class="anac1_st16" d="M565,565.2l-3.5-6.6h-1.7v6.6h-3.5v-17.3h6.8c6.2,0,6.8,8.7,1.7,10.2l4,7.1H565z M559.8,555.3h3.1
			c2.3,0,2.3-3.9,0-3.9h-3.1V555.3z"/>
		<path class="anac1_st16" d="M571.2,565.2v-17.3h3.5v17.3H571.2z"/>
		<path class="anac1_st16" d="M586.7,565.3c-11.6,0-11.6-17.5,0-17.5c8.6,0,10.9,9.7,6.7,14.6l2.3,2.9h-3.8l-0.8-1
			C589.8,564.9,588.4,565.3,586.7,565.3z M589.8,557.9l1.2,1.6c1.8-3.1,0.3-8.1-4.4-8.1c-6.8,0-6.8,10.5,0,10.5c0.8,0,1.4-0.1,2-0.3
			l-2.9-3.6H589.8z"/>
		<path class="anac1_st16" d="M598.8,559.2v-11.3h3.5v11.3c0,3.6,5.6,3.6,5.6,0v-11.3h3.4v11.3C611.3,567.4,598.8,567.4,598.8,559.2z"/>
		<path class="anac1_st16" d="M615.1,565.2v-17.3h8.7v3.5h-5.2v3.5h4.6v3.5h-4.6v3.5h5.5v3.5H615.1z"/>
	</g>
	<g>
		<path class="anac1_st16" d="M456.5,563.6v-13.9h-4.3v-3.4h12.1v3.4H460v13.9H456.5z"/>
		<path class="anac1_st16" d="M475.5,563.6L472,557h-1.7v6.6h-3.5v-17.3h6.8c6.2,0,6.8,8.7,1.7,10.2l4,7.1H475.5z M470.4,553.6h3.1
			c2.3,0,2.3-3.9,0-3.9h-3.1V553.6z"/>
		<path class="anac1_st16" d="M487.5,545.6h0.4l7.3,17.9h-3.9l-0.7-1.9h-5.7l-0.7,1.9h-3.9L487.5,545.6z M489.3,558.5l-1.6-4.5l-1.6,4.5
			H489.3z"/>
		<path class="anac1_st16" d="M501,563.6h-3.5v-17.7h0.9l8.7,10.2v-9.8h3.5v17.7h-0.9l-8.8-9.8V563.6z"/>
		<path class="anac1_st16" d="M514.2,558.8c2,1.4,4.1,1.5,4.9,1.4c1-0.1,1.9-0.8,1.8-1.7c-0.1-1-0.8-1.4-1.8-1.8c-2.7-1-5.1-2.4-5.1-5.3
			c0-2.9,2-5.1,4.9-5.3c0.9,0,2.1,0,4.3,0.7l-0.4,3.3c-1.9-0.8-3-0.8-3.5-0.7c-1.2,0.1-1.8,1-1.7,1.9c0.1,1,0.9,1.4,1.9,1.7
			c2.7,1,5,2.5,5,5.3c0,2.9-2,5.1-5.2,5.3c-1,0.1-3.1,0-5.5-1.3L514.2,558.8z"/>
		<path class="anac1_st16" d="M530.9,549.7v3.5h4.4v3.5h-4.4v6.9h-3.5v-17.3h8.6v3.5H530.9z"/>
		<path class="anac1_st16" d="M547.3,546c11.9,0,11.9,17.9,0,17.9C535.3,563.8,535.3,546,547.3,546z M547.3,549.5c-6.9,0-6.9,10.7,0,10.7
			C554.2,560.2,554.2,549.5,547.3,549.5z"/>
		<path class="anac1_st16" d="M568.1,563.6l-3.5-6.6h-1.7v6.6h-3.5v-17.3h6.8c6.2,0,6.8,8.7,1.7,10.2l4,7.1H568.1z M562.9,553.6h3.1
			c2.3,0,2.3-3.9,0-3.9h-3.1V553.6z"/>
		<path class="anac1_st16" d="M589.1,546h1.1v17.6h-3.5l0-9.7l-4.4,4.7l-4.4-4.7v9.7h-3.5V546h1.1l6.8,7.6L589.1,546z"/>
		<path class="anac1_st16" d="M599.8,545.6h0.4l7.3,17.9h-3.9l-0.7-1.9h-5.7l-0.7,1.9h-3.9L599.8,545.6z M601.6,558.5L600,554l-1.6,4.5
			H601.6z"/>
		<path class="anac1_st16" d="M611.6,563.6v-13.9h-4.3v-3.4h12.1v3.4H615v13.9H611.6z"/>
		<path class="anac1_st16" d="M622,563.6v-17.3h3.5v17.3H622z"/>
		<path class="anac1_st16" d="M637.7,546c11.9,0,11.9,17.9,0,17.9C625.8,563.8,625.8,546,637.7,546z M637.7,549.5c-6.9,0-6.9,10.7,0,10.7
			C644.6,560.2,644.6,549.5,637.7,549.5z"/>
		<path class="anac1_st16" d="M653.3,563.6h-3.5v-17.7h0.9l8.7,10.2v-9.8h3.5v17.7h-0.9l-8.8-9.8V563.6z"/>
	</g>
	<g>
		<path class="anac1_st16" d="M503.2,560.5c2,1.4,4.1,1.5,4.9,1.4c1-0.1,1.9-0.8,1.8-1.7c-0.1-1-0.8-1.4-1.8-1.8c-2.7-1-5.1-2.4-5.1-5.3
			c0-2.9,2-5.1,4.9-5.3c0.9,0,2.1,0,4.3,0.7l-0.4,3.3c-1.9-0.8-3-0.8-3.5-0.7c-1.2,0.1-1.8,1-1.7,1.9c0.1,1,0.9,1.4,1.9,1.7
			c2.7,1,5,2.5,5,5.3c0,2.9-2,5.1-5.2,5.3c-1,0.1-3.1,0-5.5-1.3L503.2,560.5z"/>
		<path class="anac1_st16" d="M520.6,557.4l-6-9.5h4.2l3.5,6l3.5-6h4.2l-6.1,9.5v7.8h-3.4V557.4z"/>
		<path class="anac1_st16" d="M535.6,565.2h-3.5v-17.7h0.9l8.7,10.2v-9.8h3.5v17.7h-0.9l-8.8-9.8V565.2z"/>
		<path class="anac1_st16" d="M552,565.2v-13.9h-4.3v-3.4h12.1v3.4h-4.3v13.9H552z"/>
		<path class="anac1_st16" d="M571.1,565.2v-6.9h-5.2v6.9h-3.5v-17.3h3.5v6.9h5.2v-6.9h3.5v17.3H571.1z"/>
		<path class="anac1_st16" d="M578.4,565.2v-17.3h8.7v3.5h-5.2v3.5h4.6v3.5h-4.6v3.5h5.5v3.5H578.4z M583.5,544l1.2,2.8h-3.1l-2.3-2.8
			H583.5z"/>
		<path class="anac1_st16" d="M590.3,560.5c2,1.4,4.1,1.5,4.9,1.4c1-0.1,1.9-0.8,1.8-1.7c-0.1-1-0.8-1.4-1.8-1.8c-2.7-1-5.1-2.4-5.1-5.3
			c0-2.9,2-5.1,4.9-5.3c0.9,0,2.1,0,4.3,0.7l-0.4,3.3c-1.9-0.8-3-0.8-3.5-0.7c-1.2,0.1-1.8,1-1.7,1.9c0.1,1,0.9,1.4,1.9,1.7
			c2.7,1,5,2.5,5,5.3c0,2.9-2,5.1-5.2,5.3c-1,0.1-3.1,0-5.5-1.3L590.3,560.5z"/>
		<path class="anac1_st16" d="M603.4,565.2v-17.3h8.7v3.5h-5.2v3.5h4.6v3.5h-4.6v3.5h5.5v3.5H603.4z"/>
	</g>
	<g>
		<path class="anac1_st16" d="M497.9,563.4l-3.5-6.6h-1.7v6.6h-3.5v-17.3h6.8c6.2,0,6.8,8.7,1.7,10.2l4,7.1H497.9z M492.8,553.5h3.1
			c2.3,0,2.3-3.9,0-3.9h-3.1V553.5z"/>
		<path class="anac1_st16" d="M504.1,563.4v-17.3h8.7v3.5h-5.2v3.5h4.6v3.5h-4.6v3.5h5.5v3.5H504.1z"/>
		<path class="anac1_st16" d="M516,558.7c2,1.4,4.1,1.5,4.9,1.4c1-0.1,1.9-0.8,1.8-1.7c-0.1-1-0.8-1.4-1.8-1.8c-2.7-1-5.1-2.4-5.1-5.3
			c0-2.9,2-5.1,4.9-5.3c0.9,0,2.1,0,4.3,0.7l-0.4,3.3c-1.9-0.8-3-0.8-3.5-0.7c-1.2,0.1-1.8,1-1.7,1.9c0.1,1,0.9,1.4,1.9,1.7
			c2.7,1,5,2.5,5,5.3c0,2.9-2,5.1-5.2,5.3c-1,0.1-3.1,0-5.5-1.3L516,558.7z"/>
		<path class="anac1_st16" d="M529.2,563.4v-17.3h6.8c6.7,0,6.7,10.7,0,10.7h-3.3v6.6H529.2z M535.7,553.5c2.3,0,2.3-3.9,0-3.9h-3.1v3.9
			H535.7z"/>
		<path class="anac1_st16" d="M552.1,545.8c11.9,0,11.9,17.9,0,17.9C540.2,563.7,540.2,545.8,552.1,545.8z M552.1,549.4
			c-6.9,0-6.9,10.7,0,10.7C559,560.1,559,549.4,552.1,549.4z"/>
		<path class="anac1_st16" d="M567.7,563.4h-3.5v-17.7h0.9l8.7,10.2v-9.8h3.5v17.7h-0.9l-8.8-9.8V563.4z"/>
		<path class="anac1_st16" d="M581,558.7c2,1.4,4.1,1.5,4.9,1.4c1-0.1,1.9-0.8,1.8-1.7c-0.1-1-0.8-1.4-1.8-1.8c-2.7-1-5.1-2.4-5.1-5.3
			c0-2.9,2-5.1,4.9-5.3c0.9,0,2.1,0,4.3,0.7l-0.4,3.3c-1.9-0.8-3-0.8-3.5-0.7c-1.2,0.1-1.8,1-1.7,1.9c0.1,1,0.9,1.4,1.9,1.7
			c2.7,1,5,2.5,5,5.3c0,2.9-2,5.1-5.2,5.3c-1,0.1-3.1,0-5.5-1.3L581,558.7z"/>
		<path class="anac1_st16" d="M594.1,563.4v-17.3h3.5v17.3H594.1z"/>
		<path class="anac1_st16" d="M606.9,563.8l-7.2-17.7h4l2.3,5.8l1.3,3.6l1.2-3.5l2.3-5.9h4l-7.2,17.7H606.9z"/>
		<path class="anac1_st16" d="M616.9,563.4v-17.3h8.7v3.5h-5.2v3.5h4.6v3.5h-4.6v3.5h5.5v3.5H616.9z"/>
	</g>
	<g>
		<path class="anac1_st16" d="M523.3,563.4h-5.2v-17.3h5.2C534.8,546.1,534.8,563.4,523.3,563.4z M521.6,549.6V560h1.7
			c6.7,0,6.7-10.4,0-10.4H521.6z"/>
		<path class="anac1_st16" d="M535.2,563.4v-17.3h8.7v3.5h-5.2v3.5h4.6v3.5h-4.6v3.5h5.5v3.5H535.2z"/>
		<path class="anac1_st16" d="M547.1,558.7c2,1.4,4.1,1.5,4.9,1.4c1-0.1,1.9-0.8,1.8-1.7c-0.1-1-0.8-1.4-1.8-1.8c-2.7-1-5.1-2.4-5.1-5.3
			c0-2.9,2-5.1,4.9-5.3c0.9,0,2.1,0,4.3,0.7l-0.4,3.3c-1.9-0.8-3-0.8-3.5-0.7c-1.2,0.1-1.8,1-1.7,1.9c0.1,1,0.9,1.4,1.9,1.7
			c2.7,1,5,2.5,5,5.3c0,2.9-2,5.1-5.2,5.3c-1,0.1-3.1,0-5.5-1.3L547.1,558.7z"/>
		<path class="anac1_st16" d="M560.2,563.4v-17.3h3.5v17.3H560.2z"/>
		<path class="anac1_st16" d="M575.6,563.5c-11.4,0-12-17.1,0-17.6c2.1-0.1,3.7,0.5,4,0.6l-0.4,3.5c-0.7-0.3-1.8-0.7-3.6-0.6
			c-7,0.2-6.7,10.6,0,10.6c0.3,0,0.7,0,1-0.1v-5.2h3.5v7.6C578.8,563.1,577.3,563.5,575.6,563.5z"/>
		<path class="anac1_st16" d="M587.4,563.4h-3.5v-17.7h0.9l8.7,10.2v-9.8h3.5v17.7h-0.9l-8.8-9.8V563.4z"/>
	</g>
	<g>
		<path class="anac1_st16" d="M488.8,563.4v-17.3h8.7v3.5h-5.2v3.5h4.6v3.5h-4.6v3.5h5.5v3.5H488.8z"/>
		<path class="anac1_st16" d="M509.7,563.4l-3.5-6.6h-1.7v6.6h-3.5v-17.3h6.8c6.2,0,6.8,8.7,1.7,10.2l4,7.1H509.7z M504.5,553.5h3.1
			c2.3,0,2.3-3.9,0-3.9h-3.1V553.5z"/>
		<path class="anac1_st16" d="M523.9,563.5c-11.4,0-12-17.1,0-17.6c2.1-0.1,3.7,0.5,4,0.6l-0.4,3.5c-0.7-0.3-1.8-0.7-3.6-0.6
			c-7,0.2-6.7,10.6,0,10.6c0.3,0,0.7,0,1-0.1v-5.2h3.5v7.6C527.1,563.1,525.6,563.5,523.9,563.5z"/>
		<path class="anac1_st16" d="M540.5,545.8c11.9,0,11.9,17.9,0,17.9C528.6,563.7,528.6,545.8,540.5,545.8z M540.5,549.4
			c-6.9,0-6.9,10.7,0,10.7S547.5,549.4,540.5,549.4z"/>
		<path class="anac1_st16" d="M556.2,563.4h-3.5v-17.7h0.9l8.7,10.2v-9.8h3.5v17.7h-0.9l-8.8-9.8V563.4z"/>
		<path class="anac1_st16" d="M578.1,545.8c11.9,0,11.9,17.9,0,17.9C566.2,563.7,566.2,545.8,578.1,545.8z M578.1,549.4
			c-6.9,0-6.9,10.7,0,10.7C585,560.1,585,549.4,578.1,549.4z"/>
		<path class="anac1_st16" d="M605,545.8h1.1v17.6h-3.5l0-9.7l-4.4,4.7l-4.4-4.7v9.7h-3.5v-17.6h1.1l6.8,7.6L605,545.8z"/>
		<path class="anac1_st16" d="M610,563.4v-17.3h3.5v17.3H610z"/>
		<path class="anac1_st16" d="M617.4,563.4v-17.3h8.7v3.5h-5.2v3.5h4.6v3.5h-4.6v3.5h5.5v3.5H617.4z"/>
	</g>
	<g>
		<path class="anac1_st16" d="M534.4,558.7c2,1.4,4.1,1.5,4.9,1.4c1-0.1,1.9-0.8,1.8-1.7c-0.1-1-0.8-1.4-1.8-1.8c-2.7-1-5.1-2.4-5.1-5.3
			c0-2.9,2-5.1,4.9-5.3c0.9,0,2.1,0,4.3,0.7l-0.4,3.3c-1.9-0.8-3-0.8-3.5-0.7c-1.2,0.1-1.8,1-1.7,1.9c0.1,1,0.9,1.4,1.9,1.7
			c2.7,1,5,2.5,5,5.3c0,2.9-2,5.1-5.2,5.3c-1,0.1-3.1,0-5.5-1.3L534.4,558.7z"/>
		<path class="anac1_st16" d="M555.9,545.8c11.9,0,11.9,17.9,0,17.9S544,545.8,555.9,545.8z M555.9,549.4c-6.9,0-6.9,10.7,0,10.7
			C562.8,560.1,562.8,549.4,555.9,549.4z"/>
		<path class="anac1_st16" d="M571.5,563.4h-3.5v-17.7h0.9l8.7,10.2v-9.8h3.5v17.7h-0.9l-8.8-9.8V563.4z"/>
	</g>
	<g>
		<path class="anac1_st16" d="M536.4,557.4v-11.3h3.5v11.3c0,3.6,5.6,3.6,5.6,0v-11.3h3.4v11.3C549,565.6,536.4,565.6,536.4,557.4z"/>
		<path class="anac1_st16" d="M552.4,558.7c2,1.4,4.1,1.5,4.9,1.4c1-0.1,1.9-0.8,1.8-1.7c-0.1-1-0.8-1.4-1.8-1.8c-2.7-1-5.1-2.4-5.1-5.3
			c0-2.9,2-5.1,4.9-5.3c0.9,0,2.1,0,4.3,0.7l-0.4,3.3c-1.9-0.8-3-0.8-3.5-0.7c-1.2,0.1-1.8,1-1.7,1.9c0.1,1,0.9,1.4,1.9,1.7
			c2.7,1,5,2.5,5,5.3c0,2.9-2,5.1-5.2,5.3c-1,0.1-3.1,0-5.5-1.3L552.4,558.7z"/>
		<path class="anac1_st16" d="M569.2,554.2l-4.7-8.1h4.2l2.6,4.8l2.6-4.8h4.1l-4.7,8.1l5.4,9.2h-4.1l-3.3-5.9l-3.3,5.9h-4.2L569.2,554.2z"
			/>
	</g>
	<g>
		<path class="anac1_st16" d="M488.6,557.6v-11.3h3.5v11.3c0,3.6,5.6,3.6,5.6,0v-11.3h3.4v11.3C501.1,565.9,488.6,565.9,488.6,557.6z"/>
		<path class="anac1_st16" d="M507.8,563.7v-13.9h-4.3v-3.4h12.1v3.4h-4.3v13.9H507.8z"/>
		<path class="anac1_st16" d="M518.2,563.7v-17.3h3.5v17.3H518.2z"/>
		<path class="anac1_st16" d="M529,546.4v13.9h5.5v3.5h-9v-17.3H529z"/>
		<path class="anac1_st16" d="M537.5,563.7v-17.3h3.5v17.3H537.5z"/>
		<path class="anac1_st16" d="M544.5,558.9c2,1.4,4.1,1.5,4.9,1.4c1-0.1,1.9-0.8,1.8-1.7c-0.1-1-0.8-1.4-1.8-1.8c-2.7-1-5.1-2.4-5.1-5.3
			c0-2.9,2-5.1,4.9-5.3c0.9,0,2.1,0,4.3,0.7l-0.4,3.3c-1.9-0.8-3-0.8-3.5-0.7c-1.2,0.1-1.8,1-1.7,1.9c0.1,1,0.9,1.4,1.9,1.7
			c2.7,1,5,2.5,5,5.3c0,2.9-2,5.1-5.2,5.3c-1,0.1-3.1,0-5.5-1.3L544.5,558.9z"/>
		<path class="anac1_st16" d="M563.4,545.7h0.4l7.3,17.9h-3.9l-0.7-1.9h-5.7l-0.7,1.9h-3.9L563.4,545.7z M565.2,558.6l-1.6-4.5l-1.6,4.5
			H565.2z"/>
		<path class="anac1_st16" d="M575.2,563.7v-13.9h-4.3v-3.4H583v3.4h-4.3v13.9H575.2z"/>
		<path class="anac1_st16" d="M585.6,563.7v-17.3h8.7v3.5h-5.2v3.5h4.6v3.5h-4.6v3.5h5.5v3.5H585.6z"/>
		<path class="anac1_st16" d="M597.7,557.6v-11.3h3.5v11.3c0,3.6,5.6,3.6,5.6,0v-11.3h3.4v11.3C610.2,565.9,597.7,565.9,597.7,557.6z"/>
		<path class="anac1_st16" d="M622.7,563.7l-3.5-6.6h-1.7v6.6h-3.5v-17.3h6.8c6.2,0,6.8,8.7,1.7,10.2l4,7.1H622.7z M617.5,553.7h3.1
			c2.3,0,2.3-3.9,0-3.9h-3.1V553.7z"/>
	</g>
	<g>
		<path class="anac1_st16" d="M499.8,558.9c2,1.4,4.1,1.5,4.9,1.4c1-0.1,1.9-0.8,1.8-1.7c-0.1-1-0.8-1.4-1.8-1.8c-2.7-1-5.1-2.4-5.1-5.3
			c0-2.9,2-5.1,4.9-5.3c0.9,0,2.1,0,4.3,0.7l-0.4,3.3c-1.9-0.8-3-0.8-3.5-0.7c-1.2,0.1-1.8,1-1.7,1.9c0.1,1,0.9,1.4,1.9,1.7
			c2.7,1,5,2.5,5,5.3c0,2.9-2,5.1-5.2,5.3c-1,0.1-3.1,0-5.5-1.3L499.8,558.9z"/>
		<path class="anac1_st16" d="M515.8,563.6v-13.9h-4.3v-3.4h12.1v3.4h-4.3v13.9H515.8z"/>
		<path class="anac1_st16" d="M534,546c11.9,0,11.9,17.9,0,17.9C522,563.9,522,546,534,546z M534,549.6c-6.9,0-6.9,10.7,0,10.7
			C540.9,560.3,540.9,549.6,534,549.6z"/>
		<path class="anac1_st16" d="M554.2,549.6c-6.9,0-6.9,10.6,0,10.6c1.5,0,2.7-0.4,3.3-0.8l0.5,3.6c-1.1,0.4-2.6,0.7-3.8,0.7
			c-11.7,0-11.7-17.6,0-17.6c1.2,0,2.4,0.2,3.4,0.7l-0.4,3.6C556.5,550,555.7,549.6,554.2,549.6z"/>
		<path class="anac1_st16" d="M560.7,546.3h3.5c0,2.3,0,4.6,0,6.9l4.4-6.9h4l-5.6,8.5l6.1,8.8h-4.3l-4.6-6.8c0,2.2,0,4.6,0,6.8h-3.5V546.3
			z"/>
		<path class="anac1_st16" d="M581.1,545.7h0.4l7.3,17.9h-3.9l-0.7-1.9h-5.7l-0.7,1.9h-3.9L581.1,545.7z M582.9,558.5l-1.6-4.5l-1.6,4.5
			H582.9z"/>
		<path class="anac1_st16" d="M598.6,563.7c-11.4,0-12-17.1,0-17.6c2.1-0.1,3.7,0.5,4,0.6l-0.4,3.5c-0.7-0.3-1.8-0.7-3.6-0.6
			c-7,0.2-6.7,10.6,0,10.6c0.3,0,0.7,0,1-0.1V555h3.5v7.6C601.8,563.3,600.3,563.7,598.6,563.7z"/>
		<path class="anac1_st16" d="M606.9,563.6v-17.3h8.7v3.5h-5.2v3.5h4.6v3.5h-4.6v3.5h5.5v3.5H606.9z"/>
	</g>
	<g>
		<path class="anac1_st16" d="M489.4,565.2v-13.9h-4.3v-3.4h12.1v3.4h-4.3v13.9H489.4z"/>
		<path class="anac1_st16" d="M508.4,565.2l-3.5-6.6h-1.7v6.6h-3.5v-17.3h6.8c6.2,0,6.8,8.7,1.7,10.2l4,7.1H508.4z M503.3,555.3h3.1
			c2.3,0,2.3-3.9,0-3.9h-3.1V555.3z"/>
		<path class="anac1_st16" d="M520.4,547.3h0.4l7.3,17.9h-3.9l-0.7-1.9h-5.7l-0.7,1.9h-3.9L520.4,547.3z M522.2,560.1l-1.6-4.5l-1.6,4.5
			H522.2z"/>
		<path class="anac1_st16" d="M533.9,565.2h-3.5v-17.7h0.9l8.7,10.2v-9.8h3.5v17.7h-0.9l-8.8-9.8V565.2z"/>
		<path class="anac1_st16" d="M547.1,560.5c2,1.4,4.1,1.5,4.9,1.4c1-0.1,1.9-0.8,1.8-1.7c-0.1-1-0.8-1.4-1.8-1.8c-2.7-1-5.1-2.4-5.1-5.3
			c0-2.9,2-5.1,4.9-5.3c0.9,0,2.1,0,4.3,0.7l-0.4,3.3c-1.9-0.8-3-0.8-3.5-0.7c-1.2,0.1-1.8,1-1.7,1.9c0.1,1,0.9,1.4,1.9,1.7
			c2.7,1,5,2.5,5,5.3c0,2.9-2,5.1-5.2,5.3c-1,0.1-3.1,0-5.5-1.3L547.1,560.5z"/>
		<path class="anac1_st16" d="M575.1,547.7h1.1v17.6h-3.5l0-9.7l-4.4,4.7l-4.4-4.7v9.7h-3.5v-17.6h1.1l6.8,7.6L575.1,547.7z"/>
		<path class="anac1_st16" d="M580.1,565.2v-17.3h8.7v3.5h-5.2v3.5h4.6v3.5h-4.6v3.5h5.5v3.5H580.1z M588.2,543.9l-2.3,2.8h-3.1l1.2-2.8
			H588.2z"/>
		<path class="anac1_st16" d="M597.5,565.2h-5.2v-17.3h5.2C609,547.9,609,565.2,597.5,565.2z M595.8,551.4v10.4h1.7c6.7,0,6.7-10.4,0-10.4
			H595.8z"/>
		<path class="anac1_st16" d="M609.3,565.2v-17.3h3.5v17.3H609.3z"/>
		<path class="anac1_st16" d="M622.4,547.3h0.4l7.3,17.9h-3.9l-0.7-1.9h-5.7l-0.7,1.9h-3.9L622.4,547.3z M624.2,560.1l-1.6-4.5l-1.6,4.5
			H624.2z"/>
	</g>
	<g>
		<path class="anac1_st16" d="M462.8,565.3l-3.5-6.6h-1.7v6.6h-3.5V548h6.8c6.2,0,6.8,8.7,1.7,10.2l4,7.1H462.8z M457.7,555.3h3.1
			c2.3,0,2.3-3.9,0-3.9h-3.1V555.3z"/>
		<path class="anac1_st16" d="M469,565.3V548h8.7v3.5h-5.2v3.5h4.6v3.5h-4.6v3.5h5.5v3.5H469z M477.1,544l-2.3,2.8h-3.1l1.2-2.8H477.1z"/>
		<path class="anac1_st16" d="M480.9,560.6c2,1.4,4.1,1.5,4.9,1.4c1-0.1,1.9-0.8,1.8-1.7c-0.1-1-0.8-1.4-1.8-1.8c-2.7-1-5.1-2.4-5.1-5.3
			c0-2.9,2-5.1,4.9-5.3c0.9,0,2.1,0,4.3,0.7l-0.4,3.3c-1.9-0.8-3-0.8-3.5-0.7c-1.2,0.1-1.8,1-1.7,1.9c0.1,1,0.9,1.4,1.9,1.7
			c2.7,1,5,2.5,5,5.3c0,2.9-2,5.1-5.2,5.3c-1,0.1-3.1,0-5.5-1.3L480.9,560.6z"/>
		<path class="anac1_st16" d="M494.1,565.3V548h8.7v3.5h-5.2v3.5h4.6v3.5h-4.6v3.5h5.5v3.5H494.1z"/>
		<path class="anac1_st16" d="M512,547.4h0.4l7.3,17.9h-3.9l-0.7-1.9h-5.7l-0.7,1.9h-3.9L512,547.4z M513.8,560.2l-1.6-4.5l-1.6,4.5H513.8
			z"/>
		<path class="anac1_st16" d="M522,559.3V548h3.5v11.3c0,3.6,5.6,3.6,5.6,0V548h3.4v11.3C534.5,567.5,522,567.5,522,559.3z"/>
		<path class="anac1_st16" d="M542,556.1l-4.7-8.1h4.2l2.6,4.8l2.6-4.8h4.1l-4.7,8.1l5.4,9.2h-4.1l-3.3-5.9l-3.3,5.9h-4.2L542,556.1z"/>
		<path class="anac1_st16" d="M560.1,560.6c2,1.4,4.1,1.5,4.9,1.4c1-0.1,1.9-0.8,1.8-1.7c-0.1-1-0.8-1.4-1.8-1.8c-2.7-1-5.1-2.4-5.1-5.3
			c0-2.9,2-5.1,4.9-5.3c0.9,0,2.1,0,4.3,0.7l-0.4,3.3c-1.9-0.8-3-0.8-3.5-0.7c-1.2,0.1-1.8,1-1.7,1.9c0.1,1,0.9,1.4,1.9,1.7
			c2.7,1,5,2.5,5,5.3c0,2.9-2,5.1-5.2,5.3c-1,0.1-3.1,0-5.5-1.3L560.1,560.6z"/>
		<path class="anac1_st16" d="M581.6,547.7c11.9,0,11.9,17.9,0,17.9C569.7,565.5,569.7,547.7,581.6,547.7z M581.6,551.3
			c-6.9,0-6.9,10.7,0,10.7C588.6,562,588.6,551.3,581.6,551.3z"/>
		<path class="anac1_st16" d="M601.8,551.3c-6.9,0-6.9,10.6,0,10.6c1.5,0,2.7-0.4,3.3-0.8l0.5,3.6c-1.1,0.4-2.6,0.7-3.8,0.7
			c-11.7,0-11.7-17.6,0-17.6c1.2,0,2.4,0.2,3.4,0.7l-0.4,3.6C604.2,551.7,603.3,551.3,601.8,551.3z"/>
		<path class="anac1_st16" d="M608.4,565.3V548h3.5v17.3H608.4z"/>
		<path class="anac1_st16" d="M621.5,547.4h0.4l7.3,17.9h-3.9l-0.7-1.9h-5.7l-0.7,1.9h-3.9L621.5,547.4z M623.3,560.2l-1.6-4.5l-1.6,4.5
			H623.3z"/>
		<path class="anac1_st16" d="M631.5,559.3V548h3.5v11.3c0,3.6,5.6,3.6,5.6,0V548h3.4v11.3C644,567.5,631.5,567.5,631.5,559.3z"/>
		<path class="anac1_st16" d="M651.5,556.1l-4.7-8.1h4.2l2.6,4.8l2.6-4.8h4.1l-4.7,8.1l5.4,9.2h-4.1l-3.3-5.9l-3.3,5.9H646L651.5,556.1z"
			/>
	</g>
	<g>
		<path class="anac1_st16" d="M466.6,549.5c-6.9,0-6.9,10.6,0,10.6c1.5,0,2.7-0.4,3.3-0.8l0.5,3.6c-1.1,0.4-2.6,0.7-3.8,0.7
			c-11.7,0-11.7-17.6,0-17.6c1.2,0,2.4,0.2,3.4,0.7l-0.4,3.6C469,549.9,468.1,549.5,466.6,549.5z"/>
		<path class="anac1_st16" d="M481.5,546c11.9,0,11.9,17.9,0,17.9C469.6,563.8,469.6,546,481.5,546z M481.5,549.5c-6.9,0-6.9,10.7,0,10.7
			S488.4,549.5,481.5,549.5z"/>
		<path class="anac1_st16" d="M508.5,546h1.1v17.6H506l0-9.7l-4.4,4.7l-4.4-4.7v9.7h-3.5V546h1.1l6.8,7.6L508.5,546z"/>
		<path class="anac1_st16" d="M528.2,546h1.1v17.6h-3.5l0-9.7l-4.4,4.7l-4.4-4.7v9.7h-3.5V546h1.1l6.8,7.6L528.2,546z"/>
		<path class="anac1_st16" d="M533.1,557.5v-11.3h3.5v11.3c0,3.6,5.6,3.6,5.6,0v-11.3h3.4v11.3C545.6,565.8,533.1,565.8,533.1,557.5z"/>
		<path class="anac1_st16" d="M552.9,563.6h-3.5v-17.7h0.9l8.7,10.2v-9.8h3.5v17.7h-0.9l-8.8-9.8V563.6z"/>
		<path class="anac1_st16" d="M566.5,563.6v-17.3h3.5v17.3H566.5z"/>
		<path class="anac1_st16" d="M581.9,549.5c-6.9,0-6.9,10.6,0,10.6c1.5,0,2.7-0.4,3.3-0.8l0.5,3.6c-1.1,0.4-2.6,0.7-3.8,0.7
			c-11.7,0-11.7-17.6,0-17.6c1.2,0,2.4,0.2,3.4,0.7l-0.4,3.6C584.2,549.9,583.4,549.5,581.9,549.5z"/>
		<path class="anac1_st16" d="M594.2,545.6h0.4l7.3,17.9h-3.9l-0.7-1.9h-5.7l-0.7,1.9h-3.9L594.2,545.6z M596,558.5l-1.6-4.5l-1.6,4.5H596
			z"/>
		<path class="anac1_st16" d="M606,563.6v-13.9h-4.3v-3.4h12.1v3.4h-4.3v13.9H606z"/>
		<path class="anac1_st16" d="M616.4,563.6v-17.3h3.5v17.3H616.4z"/>
		<path class="anac1_st16" d="M632.1,546c11.9,0,11.9,17.9,0,17.9C620.1,563.8,620.1,546,632.1,546z M632.1,549.5c-6.9,0-6.9,10.7,0,10.7
			C639,560.2,639,549.5,632.1,549.5z"/>
		<path class="anac1_st16" d="M647.7,563.6h-3.5v-17.7h0.9l8.7,10.2v-9.8h3.5v17.7h-0.9l-8.8-9.8V563.6z"/>
	</g>
	<g>
		<path class="anac1_st16" d="M508.7,546h1.1v17.6h-3.5l0-9.7l-4.4,4.7l-4.4-4.7v9.7h-3.5V546h1.1l6.8,7.6L508.7,546z"/>
		<path class="anac1_st16" d="M519.4,545.6h0.4l7.3,17.9h-3.9l-0.7-1.9h-5.7l-0.7,1.9h-3.9L519.4,545.6z M521.2,558.5l-1.6-4.5l-1.6,4.5
			H521.2z"/>
		<path class="anac1_st16" d="M538.1,563.6l-3.5-6.6h-1.7v6.6h-3.5v-17.3h6.8c6.2,0,6.8,8.7,1.7,10.2l4,7.1H538.1z M532.9,553.6h3.1
			c2.3,0,2.3-3.9,0-3.9h-3.1V553.6z"/>
		<path class="anac1_st16" d="M544.3,546.2h3.5c0,2.3,0,4.6,0,6.9l4.4-6.9h4l-5.6,8.6l6.1,8.8h-4.3l-4.6-6.8c0,2.2,0,4.6,0,6.8h-3.5V546.2
			z"/>
		<path class="anac1_st16" d="M558.9,563.6v-17.3h8.7v3.5h-5.2v3.5h4.6v3.5h-4.6v3.5h5.5v3.5H558.9z"/>
		<path class="anac1_st16" d="M574,563.6v-13.9h-4.3v-3.4h12.1v3.4h-4.3v13.9H574z"/>
		<path class="anac1_st16" d="M584.4,563.6v-17.3h3.5v17.3H584.4z"/>
		<path class="anac1_st16" d="M595.2,563.6h-3.5v-17.7h0.9l8.7,10.2v-9.8h3.5v17.7H604l-8.8-9.8V563.6z"/>
		<path class="anac1_st16" d="M616.8,563.7c-11.4,0-12-17.1,0-17.6c2.1-0.1,3.7,0.5,4,0.6l-0.4,3.5c-0.7-0.3-1.8-0.7-3.6-0.6
			c-7,0.2-6.7,10.6,0,10.6c0.3,0,0.7,0,1-0.1v-5.2h3.5v7.6C620,563.3,618.5,563.7,616.8,563.7z"/>
	</g>
	<g>
		<path class="anac1_st16" d="M509,563.6h-5.2v-17.3h5.2C520.6,546.2,520.6,563.6,509,563.6z M507.3,549.7v10.4h1.7c6.7,0,6.7-10.4,0-10.4
			H507.3z"/>
		<path class="anac1_st16" d="M520.9,563.6v-17.3h8.7v3.5h-5.2v3.5h4.6v3.5h-4.6v3.5h5.5v3.5H520.9z"/>
		<path class="anac1_st16" d="M538.9,545.6h0.4l7.3,17.9h-3.9l-0.7-1.9h-5.7l-0.7,1.9h-3.9L538.9,545.6z M540.6,558.5l-1.6-4.5l-1.6,4.5
			H540.6z"/>
		<path class="anac1_st16" d="M554.1,563.6H549v-17.3h5.2C565.6,546.2,565.6,563.6,554.1,563.6z M552.4,549.7v10.4h1.7
			c6.7,0,6.7-10.4,0-10.4H552.4z"/>
		<path class="anac1_st16" d="M569.5,546.2v13.9h5.5v3.5h-9v-17.3H569.5z"/>
		<path class="anac1_st16" d="M577.9,563.6v-17.3h3.5v17.3H577.9z"/>
		<path class="anac1_st16" d="M588.8,563.6h-3.5v-17.7h0.9l8.7,10.2v-9.8h3.5v17.7h-0.9l-8.8-9.8V563.6z"/>
		<path class="anac1_st16" d="M602.4,563.6v-17.3h8.7v3.5h-5.2v3.5h4.6v3.5h-4.6v3.5h5.5v3.5H602.4z"/>
	</g>
	<g>
		<path class="anac1_st16" d="M517.7,565.3V548h8.7v3.5h-5.2v3.5h4.6v3.5h-4.6v3.5h5.5v3.5H517.7z M525.8,544.1l-2.3,2.8h-3.1l1.2-2.8
			H525.8z"/>
		<path class="anac1_st16" d="M538.1,565.4c-11.6,0-11.6-17.5,0-17.5c8.6,0,10.9,9.7,6.7,14.6l2.3,2.9h-3.8l-0.8-1
			C541.2,565.1,539.8,565.4,538.1,565.4z M541.2,558l1.2,1.6c1.8-3.1,0.3-8.1-4.4-8.1c-6.8,0-6.8,10.5,0,10.5c0.8,0,1.4-0.1,2-0.3
			l-2.9-3.6H541.2z"/>
		<path class="anac1_st16" d="M550.2,559.3V548h3.5v11.3c0,3.6,5.6,3.6,5.6,0V548h3.4v11.3C562.7,567.6,550.2,567.6,550.2,559.3z"/>
		<path class="anac1_st16" d="M566.5,565.3V548h3.5v17.3H566.5z"/>
		<path class="anac1_st16" d="M573.9,565.3v-17.3h6.8c6.7,0,6.7,10.7,0,10.7h-3.3v6.6H573.9z M580.4,555.4c2.3,0,2.3-3.9,0-3.9h-3.1v3.9
			H580.4z"/>
		<path class="anac1_st16" d="M588.5,565.3V548h8.7v3.5H592v3.5h4.6v3.5H592v3.5h5.5v3.5H588.5z"/>
	</g>
	<g>
		<path class="anac1_st16" d="M480,563.6v-17.3h6.8c6.7,0,6.7,10.7,0,10.7h-3.3v6.6H480z M486.5,553.6c2.3,0,2.3-3.9,0-3.9h-3.1v3.9H486.5
			z"/>
		<path class="anac1_st16" d="M503,546c11.9,0,11.9,17.9,0,17.9S491,546,503,546z M503,549.5c-6.9,0-6.9,10.7,0,10.7
			C509.9,560.2,509.9,549.5,503,549.5z"/>
		<path class="anac1_st16" d="M518.6,546.2v13.9h5.5v3.5h-9v-17.3H518.6z"/>
		<path class="anac1_st16" d="M529.4,555.8l-6-9.5h4.2l3.5,6l3.5-6h4.2l-6.1,9.5v7.8h-3.4V555.8z"/>
		<path class="anac1_st16" d="M546.3,563.9l-7.2-17.7h4l2.3,5.8l1.3,3.6l1.2-3.5l2.3-5.9h4l-7.2,17.7H546.3z"/>
		<path class="anac1_st16" d="M560.4,545.6h0.4l7.3,17.9h-3.9l-0.7-1.9h-5.7l-0.7,1.9h-3.9L560.4,545.6z M562.1,558.5l-1.6-4.5l-1.6,4.5
			H562.1z"/>
		<path class="anac1_st16" d="M573.9,546.2v13.9h5.5v3.5h-9v-17.3H573.9z"/>
		<path class="anac1_st16" d="M582.4,563.6v-17.3h8.7v3.5h-5.2v3.5h4.6v3.5h-4.6v3.5h5.5v3.5H582.4z"/>
		<path class="anac1_st16" d="M598,563.6h-3.5v-17.7h0.9l8.7,10.2v-9.8h3.5v17.7h-0.9l-8.8-9.8V563.6z"/>
		<path class="anac1_st16" d="M619.6,549.5c-6.9,0-6.9,10.6,0,10.6c1.5,0,2.7-0.4,3.3-0.8l0.5,3.6c-1.1,0.4-2.6,0.7-3.8,0.7
			c-11.7,0-11.7-17.6,0-17.6c1.2,0,2.4,0.2,3.4,0.7l-0.4,3.6C622,549.9,621.2,549.5,619.6,549.5z"/>
		<path class="anac1_st16" d="M626.2,563.6v-17.3h8.7v3.5h-5.2v3.5h4.6v3.5h-4.6v3.5h5.5v3.5H626.2z"/>
	</g>
	<g>
		<path class="anac1_st16" d="M513.9,546.1h6.9c3.1,0,5,2.2,4.9,5.3c0,1.3-0.5,2.7-1.6,3.4c1.1,0.8,1.8,2.1,1.8,3.5c0,2.9-2.3,5.2-5.1,5.2
			h-6.9V546.1z M517.3,553h2.1h1c1,0,1.6-0.8,1.6-1.7c0-1-0.6-1.7-1.6-1.7h-3.1V553z M517.3,560h2.1h1c1,0,1.7-0.8,1.7-1.7
			c0-1-0.8-1.7-1.7-1.7h-3.1V560z"/>
		<path class="anac1_st16" d="M528.8,557.4v-11.3h3.5v11.3c0,3.6,5.6,3.6,5.6,0v-11.3h3.4v11.3C541.3,565.6,528.8,565.6,528.8,557.4z"/>
		<path class="anac1_st16" d="M550.3,563.4h-5.2v-17.3h5.2C561.8,546.1,561.8,563.4,550.3,563.4z M548.6,549.6V560h1.7
			c6.7,0,6.7-10.4,0-10.4H548.6z"/>
		<path class="anac1_st16" d="M570.2,563.5c-11.4,0-12-17.1,0-17.6c2.1-0.1,3.7,0.5,4,0.6l-0.4,3.5c-0.7-0.3-1.8-0.7-3.6-0.6
			c-7,0.2-6.7,10.6,0,10.6c0.3,0,0.7,0,1-0.1v-5.2h3.5v7.6C573.4,563.1,571.9,563.5,570.2,563.5z"/>
		<path class="anac1_st16" d="M578.5,563.4v-17.3h8.7v3.5H582v3.5h4.6v3.5H582v3.5h5.5v3.5H578.5z"/>
		<path class="anac1_st16" d="M593.6,563.4v-13.9h-4.3v-3.4h12.1v3.4H597v13.9H593.6z"/>
	</g>
	<g>
		<path class="anac1_st16" d="M518.2,563.5c-11.4,0-12-17.1,0-17.6c2.1-0.1,3.7,0.5,4,0.6l-0.4,3.5c-0.7-0.3-1.8-0.7-3.6-0.6
			c-7,0.2-6.7,10.6,0,10.6c0.3,0,0.7,0,1-0.1v-5.2h3.5v7.6C521.4,563.1,519.9,563.5,518.2,563.5z"/>
		<path class="anac1_st16" d="M526.5,563.4v-17.3h8.7v3.5H530v3.5h4.6v3.5H530v3.5h5.5v3.5H526.5z"/>
		<path class="anac1_st16" d="M538.3,558.7c2,1.4,4.1,1.5,4.9,1.4c1-0.1,1.9-0.8,1.8-1.7c-0.1-1-0.8-1.4-1.8-1.8c-2.7-1-5.1-2.4-5.1-5.3
			c0-2.9,2-5.1,4.9-5.3c0.9,0,2.1,0,4.3,0.7l-0.4,3.3c-1.9-0.8-3-0.8-3.5-0.7c-1.2,0.1-1.8,1-1.7,1.9c0.1,1,0.9,1.4,1.9,1.7
			c2.7,1,5,2.5,5,5.3c0,2.9-2,5.1-5.2,5.3c-1,0.1-3.1,0-5.5-1.3L538.3,558.7z"/>
		<path class="anac1_st16" d="M554.4,563.4v-13.9h-4.3v-3.4h12.1v3.4h-4.3v13.9H554.4z"/>
		<path class="anac1_st16" d="M564.8,563.4v-17.3h3.5v17.3H564.8z"/>
		<path class="anac1_st16" d="M580.5,545.8c11.9,0,11.9,17.9,0,17.9C568.5,563.7,568.5,545.8,580.5,545.8z M580.5,549.4
			c-6.9,0-6.9,10.7,0,10.7C587.4,560.1,587.4,549.4,580.5,549.4z"/>
		<path class="anac1_st16" d="M596.1,563.4h-3.5v-17.7h0.9l8.7,10.2v-9.8h3.5v17.7h-0.9l-8.8-9.8V563.4z"/>
	</g>
	<g>
		<path class="anac1_st16" d="M515.6,563.5v-17.3h6.8c6.7,0,6.7,10.7,0,10.7H519v6.6H515.6z M522.1,553.5c2.3,0,2.3-3.9,0-3.9H519v3.9
			H522.1z"/>
		<path class="anac1_st16" d="M538.8,563.5l-3.5-6.6h-1.7v6.6h-3.5v-17.3h6.8c6.2,0,6.8,8.7,1.7,10.2l4,7.1H538.8z M533.6,553.5h3.1
			c2.3,0,2.3-3.9,0-3.9h-3.1V553.5z"/>
		<path class="anac1_st16" d="M553.4,545.8c11.9,0,11.9,17.9,0,17.9C541.4,563.7,541.4,545.8,553.4,545.8z M553.4,549.4
			c-6.9,0-6.9,10.7,0,10.7C560.3,560.1,560.3,549.4,553.4,549.4z"/>
		<path class="anac1_st16" d="M564.4,560h3.3c1,0,1.8-0.8,1.8-1.7v-12.1h3.4v12.1c0,2.9-2.3,5.2-5.1,5.2h-3.4V560z"/>
		<path class="anac1_st16" d="M576.8,563.5v-17.3h8.7v3.5h-5.2v3.5h4.6v3.5h-4.6v3.5h5.5v3.5H576.8z"/>
		<path class="anac1_st16" d="M591.9,563.5v-13.9h-4.3v-3.4h12.1v3.4h-4.3v13.9H591.9z"/>
	</g>
	<g>
		<path class="anac1_st16" d="M547.2,552.9h1.7c1,0,1.8-0.6,1.8-1.6c-0.1-2.5-4.3-2.1-5.7-1.4l-0.5-3.3c1.1-0.4,2.8-0.8,4.6-0.7
			c3.1,0.2,5.3,2.4,5.4,5.3c0,1.4-0.4,2.5-1.8,3.4c1.4,0.8,2,2.3,2,3.7c0.1,2.9-1.7,5.1-5.1,5.3c-1.7,0.1-4.3-0.3-5.4-0.8l0.4-3.5
			c1.5,0.7,6.5,1.7,6.4-1c0-1-0.9-1.9-1.9-1.9h-1.7L547.2,552.9z"/>
		<path class="anac1_st16" d="M562.5,563.5h-5.2v-17.3h5.2C574.1,546.2,574.1,563.5,562.5,563.5z M560.8,549.6V560h1.7
			c6.7,0,6.7-10.4,0-10.4H560.8z"/>
	</g>
	<g>
		<path class="anac1_st16" d="M525.5,558.6c2,1.4,4.1,1.5,4.9,1.4c1-0.1,1.9-0.8,1.8-1.7c-0.1-1-0.8-1.4-1.8-1.8c-2.7-1-5.1-2.4-5.1-5.3
			c0-2.9,2-5.1,4.9-5.3c0.9,0,2.1,0,4.3,0.7L534,550c-1.9-0.8-3-0.8-3.5-0.7c-1.2,0.1-1.8,1-1.7,1.9c0.1,1,0.9,1.4,1.9,1.7
			c2.7,1,5,2.5,5,5.3c0,2.9-2,5.1-5.2,5.3c-1,0.1-3.1,0-5.5-1.3L525.5,558.6z"/>
		<path class="anac1_st16" d="M543.9,563.7l-7.1-17.7h3.9l3.5,8.8l3.4-8.7h0.2l3.4,8.7l3.5-8.8h3.9l-7.1,17.6h-0.6l-3.2-7.7l-3.1,7.8
			H543.9z"/>
		<path class="anac1_st16" d="M560.7,563.3V546h3.5v17.3H560.7z"/>
		<path class="anac1_st16" d="M571.5,549.5v3.5h4.4v3.5h-4.4v6.9H568V546h8.6v3.5H571.5z"/>
		<path class="anac1_st16" d="M582.4,563.3v-13.9h-4.3V546h12.1v3.4h-4.3v13.9H582.4z"/>
	</g>
	<g>
		<path class="anac1_st16" d="M464.1,549.6c-6.9,0-6.9,10.6,0,10.6c1.5,0,2.7-0.4,3.3-0.8l0.5,3.6c-1.1,0.4-2.6,0.7-3.8,0.7
			c-11.7,0-11.7-17.6,0-17.6c1.2,0,2.4,0.2,3.4,0.7l-0.4,3.6C466.5,550,465.6,549.6,464.1,549.6z"/>
		<path class="anac1_st16" d="M479.3,563.6l-3.5-6.6h-1.7v6.6h-3.5v-17.3h6.8c6.2,0,6.8,8.7,1.7,10.2l4,7.1H479.3z M474.2,553.6h3.1
			c2.3,0,2.3-3.9,0-3.9h-3.1V553.6z"/>
		<path class="anac1_st16" d="M493.9,546c11.9,0,11.9,17.9,0,17.9C482,563.9,482,546,493.9,546z M493.9,549.6c-6.9,0-6.9,10.7,0,10.7
			C500.8,560.3,500.8,549.6,493.9,549.6z"/>
		<path class="anac1_st16" d="M505.7,558.9c2,1.4,4.1,1.5,4.9,1.4c1-0.1,1.9-0.8,1.8-1.7c-0.1-1-0.8-1.4-1.8-1.8c-2.7-1-5.1-2.4-5.1-5.3
			c0-2.9,2-5.1,4.9-5.3c0.9,0,2.1,0,4.3,0.7l-0.4,3.3c-1.9-0.8-3-0.8-3.5-0.7c-1.2,0.1-1.8,1-1.7,1.9c0.1,1,0.9,1.4,1.9,1.7
			c2.7,1,5,2.5,5,5.3c0,2.9-2,5.1-5.2,5.3c-1,0.1-3.1,0-5.5-1.3L505.7,558.9z"/>
		<path class="anac1_st16" d="M518.5,558.9c2,1.4,4.1,1.5,4.9,1.4c1-0.1,1.9-0.8,1.8-1.7c-0.1-1-0.8-1.4-1.8-1.8c-2.7-1-5.1-2.4-5.1-5.3
			c0-2.9,2-5.1,4.9-5.3c0.9,0,2.1,0,4.3,0.7l-0.4,3.3c-1.9-0.8-3-0.8-3.5-0.7c-1.2,0.1-1.8,1-1.7,1.9c0.1,1,0.9,1.4,1.9,1.7
			c2.7,1,5,2.5,5,5.3c0,2.9-2,5.1-5.2,5.3c-1,0.1-3.1,0-5.5-1.3L518.5,558.9z"/>
		<path class="anac1_st16" d="M530.7,553.7h8.8v3.2h-8.8V553.7z"/>
		<path class="anac1_st16" d="M542.7,563.6v-17.3h6.8c6.7,0,6.7,10.7,0,10.7h-3.3v6.6H542.7z M549.2,553.6c2.3,0,2.3-3.9,0-3.9h-3.1v3.9
			H549.2z"/>
		<path class="anac1_st16" d="M560.7,546.3v13.9h5.5v3.5h-9v-17.3H560.7z"/>
		<path class="anac1_st16" d="M575,545.7h0.4l7.3,17.9h-3.9l-0.7-1.9h-5.7l-0.7,1.9h-3.9L575,545.7z M576.7,558.5l-1.6-4.5l-1.6,4.5H576.7
			z"/>
		<path class="anac1_st16" d="M586.8,563.6v-13.9h-4.3v-3.4h12.1v3.4h-4.3v13.9H586.8z"/>
		<path class="anac1_st16" d="M600.6,549.8v3.5h4.4v3.5h-4.4v6.9h-3.5v-17.3h8.6v3.5H600.6z"/>
		<path class="anac1_st16" d="M617,546c11.9,0,11.9,17.9,0,17.9C605.1,563.9,605.1,546,617,546z M617,549.6c-6.9,0-6.9,10.7,0,10.7
			C623.9,560.3,623.9,549.6,617,549.6z"/>
		<path class="anac1_st16" d="M637.8,563.6l-3.5-6.6h-1.7v6.6h-3.5v-17.3h6.8c6.2,0,6.8,8.7,1.7,10.2l4,7.1H637.8z M632.6,553.6h3.1
			c2.3,0,2.3-3.9,0-3.9h-3.1V553.6z"/>
		<path class="anac1_st16" d="M658.8,546h1.1v17.6h-3.5l0-9.7l-4.4,4.7l-4.4-4.7v9.7H644V546h1.1l6.8,7.6L658.8,546z"/>
	</g>
	<g>
		<path class="anac1_st16" d="M524.9,563.4v-6.9h-5.2v6.9h-3.5v-17.3h3.5v6.9h5.2v-6.9h3.5v17.3H524.9z"/>
		<path class="anac1_st16" d="M536.5,555.6l-6-9.5h4.2l3.5,6l3.5-6h4.2l-6.1,9.5v7.8h-3.4V555.6z"/>
		<path class="anac1_st16" d="M547.9,546.1h6.9c3.1,0,5,2.2,4.9,5.3c0,1.3-0.5,2.7-1.6,3.4c1.1,0.8,1.8,2.1,1.8,3.5c0,2.9-2.3,5.2-5.1,5.2
			h-6.9V546.1z M551.4,553.1h2.1h1c1,0,1.6-0.8,1.6-1.7c0-1-0.6-1.7-1.6-1.7h-3.1V553.1z M551.4,560h2.1h1c1,0,1.7-0.8,1.7-1.7
			c0-1-0.8-1.7-1.7-1.7h-3.1V560z"/>
		<path class="anac1_st16" d="M571.6,563.4l-3.5-6.6h-1.7v6.6H563v-17.3h6.8c6.2,0,6.8,8.7,1.7,10.2l4,7.1H571.6z M566.4,553.5h3.1
			c2.3,0,2.3-3.9,0-3.9h-3.1V553.5z"/>
		<path class="anac1_st16" d="M577.8,563.4v-17.3h3.5v17.3H577.8z"/>
		<path class="anac1_st16" d="M590.3,563.4h-5.2v-17.3h5.2C601.9,546.1,601.9,563.4,590.3,563.4z M588.6,549.6V560h1.7
			c6.7,0,6.7-10.4,0-10.4H588.6z"/>
	</g>
	<g>
		<path class="anac1_st16" d="M530.6,563.6h-3.5v-17.7h0.9l8.7,10.2v-9.8h3.5v17.7h-0.9l-8.8-9.8V563.6z"/>
		<path class="anac1_st16" d="M549.9,545.6h0.4l7.3,17.9h-3.9l-0.7-1.9h-5.7l-0.7,1.9h-3.9L549.9,545.6z M551.7,558.5l-1.6-4.5l-1.6,4.5
			H551.7z"/>
		<path class="anac1_st16" d="M561.7,563.6v-13.9h-4.3v-3.4h12.1v3.4h-4.3v13.9H561.7z"/>
		<path class="anac1_st16" d="M572.1,563.6v-17.3h3.5v17.3H572.1z"/>
		<path class="anac1_st16" d="M582.9,549.7v3.5h4.4v3.5h-4.4v6.9h-3.5v-17.3h8.6v3.5H582.9z"/>
	</g>
	<g>
		<path class="anac1_st16" d="M530.6,545.9h1.1v17.6h-3.5l0-9.7l-4.4,4.7l-4.4-4.7v9.7h-3.5v-17.6h1.1l6.8,7.6L530.6,545.9z"/>
		<path class="anac1_st16" d="M543.9,545.9c11.9,0,11.9,17.9,0,17.9C532,563.7,532,545.9,543.9,545.9z M543.9,549.4
			c-6.9,0-6.9,10.7,0,10.7C550.8,560.1,550.8,549.4,543.9,549.4z"/>
		<path class="anac1_st16" d="M556.1,546.1h6.9c3.1,0,5,2.2,4.9,5.3c0,1.3-0.5,2.7-1.6,3.4c1.1,0.8,1.8,2.1,1.8,3.5c0,2.9-2.3,5.2-5.1,5.2
			h-6.9V546.1z M559.6,553.1h2.1h1c1,0,1.6-0.8,1.6-1.7c0-1-0.6-1.7-1.6-1.7h-3.1V553.1z M559.6,560h2.1h1c1,0,1.7-0.8,1.7-1.7
			c0-1-0.8-1.7-1.7-1.7h-3.1V560z"/>
		<path class="anac1_st16" d="M571.1,563.5v-17.3h3.5v17.3H571.1z"/>
		<path class="anac1_st16" d="M582,546.1V560h5.5v3.5h-9v-17.3H582z"/>
		<path class="anac1_st16" d="M590.4,563.5v-17.3h8.7v3.5h-5.2v3.5h4.6v3.5h-4.6v3.5h5.5v3.5H590.4z"/>
	</g>
	<g>
		<path class="anac1_st16" d="M510.9,545.6h0.4l7.3,17.9h-3.9l-0.7-1.9h-5.7l-0.7,1.9h-3.9L510.9,545.6z M512.7,558.5l-1.6-4.5l-1.6,4.5
			H512.7z"/>
		<path class="anac1_st16" d="M524.4,563.6H521v-17.7h0.9l8.7,10.2v-9.8h3.5v17.7h-0.9l-8.8-9.8V563.6z"/>
		<path class="anac1_st16" d="M543.2,563.6H538v-17.3h5.2C554.7,546.2,554.7,563.6,543.2,563.6z M541.5,549.7v10.4h1.7
			c6.7,0,6.7-10.4,0-10.4H541.5z"/>
		<path class="anac1_st16" d="M563.7,563.6l-3.5-6.6h-1.7v6.6h-3.5v-17.3h6.8c6.2,0,6.8,8.7,1.7,10.2l4,7.1H563.7z M558.5,553.6h3.1
			c2.3,0,2.3-3.9,0-3.9h-3.1V553.6z"/>
		<path class="anac1_st16" d="M578.2,546c11.9,0,11.9,17.9,0,17.9C566.3,563.8,566.3,546,578.2,546z M578.2,549.5c-6.9,0-6.9,10.7,0,10.7
			C585.2,560.2,585.2,549.5,578.2,549.5z"/>
		<path class="anac1_st16" d="M590.4,563.6v-17.3h3.5v17.3H590.4z"/>
		<path class="anac1_st16" d="M602.9,563.6h-5.2v-17.3h5.2C614.5,546.2,614.5,563.6,602.9,563.6z M601.3,549.7v10.4h1.7
			c6.7,0,6.7-10.4,0-10.4H601.3z"/>
	</g>
	<g>
		<path class="anac1_st16" d="M500.5,563.6v-17.3h3.5v17.3H500.5z"/>
		<path class="anac1_st16" d="M511.3,563.6h-3.5v-17.7h0.9l8.7,10.2v-9.8h3.5v17.7h-0.9l-8.8-9.8V563.6z"/>
		<path class="anac1_st16" d="M527.7,563.6v-13.9h-4.3v-3.4h12.1v3.4h-4.3v13.9H527.7z"/>
		<path class="anac1_st16" d="M538.1,563.6v-17.3h8.7v3.5h-5.2v3.5h4.6v3.5h-4.6v3.5h5.5v3.5H538.1z"/>
		<path class="anac1_st16" d="M559,563.6l-3.5-6.6h-1.7v6.6h-3.5v-17.3h6.8c6.2,0,6.8,8.7,1.7,10.2l4,7.1H559z M553.8,553.6h3.1
			c2.3,0,2.3-3.9,0-3.9h-3.1V553.6z"/>
		<path class="anac1_st16" d="M568.6,549.7v3.5h4.4v3.5h-4.4v6.9h-3.5v-17.3h8.6v3.5H568.6z"/>
		<path class="anac1_st16" d="M581.7,545.6h0.4l7.3,17.9h-3.9l-0.7-1.9H579l-0.7,1.9h-3.9L581.7,545.6z M583.4,558.5l-1.6-4.5l-1.6,4.5
			H583.4z"/>
		<path class="anac1_st16" d="M599.2,549.5c-6.9,0-6.9,10.6,0,10.6c1.5,0,2.7-0.4,3.3-0.8l0.5,3.6c-1.1,0.4-2.6,0.7-3.8,0.7
			c-11.7,0-11.7-17.6,0-17.6c1.2,0,2.4,0.2,3.4,0.7l-0.4,3.6C601.6,549.9,600.7,549.5,599.2,549.5z"/>
		<path class="anac1_st16" d="M605.8,563.6v-17.3h8.7v3.5h-5.2v3.5h4.6v3.5h-4.6v3.5h5.5v3.5H605.8z"/>
	</g>
	<g>
		<path class="anac1_st16" d="M483.1,545.7h0.4l7.3,17.9h-3.9l-0.7-1.9h-5.7l-0.7,1.9h-3.9L483.1,545.7z M484.9,558.6l-1.6-4.5l-1.6,4.5
			H484.9z"/>
		<path class="anac1_st16" d="M501.8,563.7l-3.5-6.6h-1.7v6.6h-3.5v-17.3h6.8c6.2,0,6.8,8.7,1.7,10.2l4,7.1H501.8z M496.7,553.7h3.1
			c2.3,0,2.3-3.9,0-3.9h-3.1V553.7z"/>
		<path class="anac1_st16" d="M516.1,549.6c-6.9,0-6.9,10.6,0,10.6c1.5,0,2.7-0.4,3.3-0.8l0.5,3.6c-1.1,0.4-2.6,0.7-3.8,0.7
			c-11.7,0-11.7-17.6,0-17.6c1.2,0,2.4,0.2,3.4,0.7l-0.4,3.6C518.4,550,517.6,549.6,516.1,549.6z"/>
		<path class="anac1_st16" d="M531.3,563.7v-6.9h-5.2v6.9h-3.5v-17.3h3.5v6.9h5.2v-6.9h3.5v17.3H531.3z"/>
		<path class="anac1_st16" d="M538.6,563.7v-17.3h3.5v17.3H538.6z"/>
		<path class="anac1_st16" d="M548.9,563.7v-13.9h-4.3v-3.4h12.1v3.4h-4.3v13.9H548.9z"/>
		<path class="anac1_st16" d="M559.3,563.7v-17.3h8.7v3.5h-5.2v3.5h4.6v3.5h-4.6v3.5h5.5v3.5H559.3z"/>
		<path class="anac1_st16" d="M579.5,549.6c-6.9,0-6.9,10.6,0,10.6c1.5,0,2.7-0.4,3.3-0.8l0.5,3.6c-1.1,0.4-2.6,0.7-3.8,0.7
			c-11.7,0-11.7-17.6,0-17.6c1.2,0,2.4,0.2,3.4,0.7l-0.4,3.6C581.8,550,581,549.6,579.5,549.6z"/>
		<path class="anac1_st16" d="M588.9,563.7v-13.9h-4.3v-3.4h12.1v3.4h-4.3v13.9H588.9z"/>
		<path class="anac1_st16" d="M599.2,557.6v-11.3h3.5v11.3c0,3.6,5.6,3.6,5.6,0v-11.3h3.4v11.3C611.7,565.9,599.2,565.9,599.2,557.6z"/>
		<path class="anac1_st16" d="M624.2,563.7l-3.5-6.6H619v6.6h-3.5v-17.3h6.8c6.2,0,6.8,8.7,1.7,10.2l4,7.1H624.2z M619,553.7h3.1
			c2.3,0,2.3-3.9,0-3.9H619V553.7z"/>
		<path class="anac1_st16" d="M630.4,563.7v-17.3h8.7v3.5h-5.2v3.5h4.6v3.5h-4.6v3.5h5.5v3.5H630.4z"/>
	</g>
	<g>
		<path class="anac1_st16" d="M537.3,563.6v-6.9h-5.2v6.9h-3.5v-17.3h3.5v6.9h5.2v-6.9h3.5v17.3H537.3z"/>
		<path class="anac1_st16" d="M547.5,563.6v-13.9h-4.3v-3.4h12.1v3.4h-4.3v13.9H547.5z"/>
		<path class="anac1_st16" d="M572.6,546h1.1v17.6h-3.5l0-9.7l-4.4,4.7l-4.4-4.7v9.7h-3.5V546h1.1l6.8,7.6L572.6,546z"/>
		<path class="anac1_st16" d="M581.1,546.2v13.9h5.5v3.5h-9v-17.3H581.1z"/>
	</g>
	<g>
		<path class="anac1_st16" d="M547.4,549.4c-6.9,0-6.9,10.6,0,10.6c1.5,0,2.7-0.4,3.3-0.8l0.5,3.6c-1.1,0.4-2.6,0.7-3.8,0.7
			c-11.7,0-11.7-17.6,0-17.6c1.2,0,2.4,0.2,3.4,0.7l-0.4,3.6C549.7,549.8,548.9,549.4,547.4,549.4z"/>
		<path class="anac1_st16" d="M553.6,558.7c2,1.4,4.1,1.5,4.9,1.4c1-0.1,1.9-0.8,1.8-1.7c-0.1-1-0.8-1.4-1.8-1.8c-2.7-1-5.1-2.4-5.1-5.3
			c0-2.9,2-5.1,4.9-5.3c0.9,0,2.1,0,4.3,0.7l-0.4,3.3c-1.9-0.8-3-0.8-3.5-0.7c-1.2,0.1-1.8,1-1.7,1.9c0.1,1,0.9,1.4,1.9,1.7
			c2.7,1,5,2.5,5,5.3c0,2.9-2,5.1-5.2,5.3c-1,0.1-3.1,0-5.5-1.3L553.6,558.7z"/>
		<path class="anac1_st16" d="M566.4,558.7c2,1.4,4.1,1.5,4.9,1.4c1-0.1,1.9-0.8,1.8-1.7c-0.1-1-0.8-1.4-1.8-1.8c-2.7-1-5.1-2.4-5.1-5.3
			c0-2.9,2-5.1,4.9-5.3c0.9,0,2.1,0,4.3,0.7l-0.4,3.3c-1.9-0.8-3-0.8-3.5-0.7c-1.2,0.1-1.8,1-1.7,1.9c0.1,1,0.9,1.4,1.9,1.7
			c2.7,1,5,2.5,5,5.3c0,2.9-2,5.1-5.2,5.3c-1,0.1-3.1,0-5.5-1.3L566.4,558.7z"/>
	</g>
	<g>
		<path class="anac1_st16" d="M465.1,565.3V548h6.8c6.7,0,6.7,10.7,0,10.7h-3.3v6.6H465.1z M471.6,555.3c2.3,0,2.3-3.9,0-3.9h-3.1v3.9
			H471.6z"/>
		<path class="anac1_st16" d="M488.3,565.3l-3.5-6.6h-1.7v6.6h-3.5V548h6.8c6.2,0,6.8,8.7,1.7,10.2l4,7.1H488.3z M483.2,555.3h3.1
			c2.3,0,2.3-3.9,0-3.9h-3.1V555.3z"/>
		<path class="anac1_st16" d="M494.5,565.3V548h8.7v3.5H498v3.5h4.6v3.5H498v3.5h5.5v3.5H494.5z M502.6,544l-2.3,2.8h-3.1l1.2-2.8H502.6z"
			/>
		<path class="anac1_st16" d="M506.7,565.3V548h6.8c6.7,0,6.7,10.7,0,10.7h-3.3v6.6H506.7z M513.3,555.3c2.3,0,2.3-3.9,0-3.9h-3.1v3.9
			H513.3z"/>
		<path class="anac1_st16" d="M530,565.3l-3.5-6.6h-1.7v6.6h-3.5V548h6.8c6.2,0,6.8,8.7,1.7,10.2l4,7.1H530z M524.8,555.3h3.1
			c2.3,0,2.3-3.9,0-3.9h-3.1V555.3z"/>
		<path class="anac1_st16" d="M544.5,547.7c11.9,0,11.9,17.9,0,17.9C532.6,565.5,532.6,547.7,544.5,547.7z M544.5,551.3
			c-6.9,0-6.9,10.7,0,10.7C551.4,562,551.4,551.3,544.5,551.3z"/>
		<path class="anac1_st16" d="M564.7,551.3c-6.9,0-6.9,10.6,0,10.6c1.5,0,2.7-0.4,3.3-0.8l0.5,3.6c-1.1,0.4-2.6,0.7-3.8,0.7
			c-11.7,0-11.7-17.6,0-17.6c1.2,0,2.4,0.2,3.4,0.7l-0.4,3.6C567.1,551.7,566.2,551.3,564.7,551.3z"/>
		<path class="anac1_st16" d="M571.3,565.3V548h8.7v3.5h-5.2v3.5h4.6v3.5h-4.6v3.5h5.5v3.5H571.3z"/>
		<path class="anac1_st16" d="M583.1,560.6c2,1.4,4.1,1.5,4.9,1.4c1-0.1,1.9-0.8,1.8-1.7c-0.1-1-0.8-1.4-1.8-1.8c-2.7-1-5.1-2.4-5.1-5.3
			c0-2.9,2-5.1,4.9-5.3c0.9,0,2.1,0,4.3,0.7l-0.4,3.3c-1.9-0.8-3-0.8-3.5-0.7c-1.2,0.1-1.8,1-1.7,1.9c0.1,1,0.9,1.4,1.9,1.7
			c2.7,1,5,2.5,5,5.3c0,2.9-2,5.1-5.2,5.3c-1,0.1-3.1,0-5.5-1.3L583.1,560.6z"/>
		<path class="anac1_st16" d="M595.9,560.6c2,1.4,4.1,1.5,4.9,1.4c1-0.1,1.9-0.8,1.8-1.7c-0.1-1-0.8-1.4-1.8-1.8c-2.7-1-5.1-2.4-5.1-5.3
			c0-2.9,2-5.1,4.9-5.3c0.9,0,2.1,0,4.3,0.7l-0.4,3.3c-1.9-0.8-3-0.8-3.5-0.7c-1.2,0.1-1.8,1-1.7,1.9c0.1,1,0.9,1.4,1.9,1.7
			c2.7,1,5,2.5,5,5.3c0,2.9-2,5.1-5.2,5.3c-1,0.1-3.1,0-5.5-1.3L595.9,560.6z"/>
		<path class="anac1_st16" d="M609.1,565.3V548h8.7v3.5h-5.2v3.5h4.6v3.5h-4.6v3.5h5.5v3.5H609.1z"/>
		<path class="anac1_st16" d="M621.2,559.3V548h3.5v11.3c0,3.6,5.6,3.6,5.6,0V548h3.4v11.3C633.7,567.5,621.2,567.5,621.2,559.3z"/>
		<path class="anac1_st16" d="M646.2,565.3l-3.5-6.6H641v6.6h-3.5V548h6.8c6.2,0,6.8,8.7,1.7,10.2l4,7.1H646.2z M641,555.3h3.1
			c2.3,0,2.3-3.9,0-3.9H641V555.3z"/>
	</g>
	<g>
		<path class="anac1_st16" d="M499.6,545.6h0.4l7.3,17.9h-3.9l-0.7-1.9H497l-0.7,1.9h-3.9L499.6,545.6z M501.4,558.5l-1.6-4.5l-1.6,4.5
			H501.4z"/>
		<path class="anac1_st16" d="M513.2,563.6h-3.5v-17.7h0.9l8.7,10.2v-9.8h3.5v17.7H522l-8.8-9.8V563.6z"/>
		<path class="anac1_st16" d="M526.8,563.6v-17.3h3.5v17.3H526.8z"/>
		<path class="anac1_st16" d="M548.9,546h1.1v17.6h-3.5l0-9.7l-4.4,4.7l-4.4-4.7v9.7h-3.5V546h1.1l6.8,7.6L548.9,546z"/>
		<path class="anac1_st16" d="M559.6,545.6h0.4l7.3,17.9h-3.9l-0.7-1.9h-5.7l-0.7,1.9h-3.9L559.6,545.6z M561.4,558.5l-1.6-4.5l-1.6,4.5
			H561.4z"/>
		<path class="anac1_st16" d="M571.4,563.6v-13.9h-4.3v-3.4h12.1v3.4h-4.3v13.9H571.4z"/>
		<path class="anac1_st16" d="M581.8,563.6v-17.3h3.5v17.3H581.8z"/>
		<path class="anac1_st16" d="M597.5,546c11.9,0,11.9,17.9,0,17.9C585.6,563.8,585.6,546,597.5,546z M597.5,549.5c-6.9,0-6.9,10.7,0,10.7
			C604.4,560.2,604.4,549.5,597.5,549.5z"/>
		<path class="anac1_st16" d="M613.2,563.6h-3.5v-17.7h0.9l8.7,10.2v-9.8h3.5v17.7h-0.9l-8.8-9.8V563.6z"/>
	</g>
	<g>
		<path class="anac1_st16" d="M537.3,558.6c2,1.4,4.1,1.5,4.9,1.4c1-0.1,1.9-0.8,1.8-1.7c-0.1-1-0.8-1.4-1.8-1.8c-2.7-1-5.1-2.4-5.1-5.3
			c0-2.9,2-5.1,4.9-5.3c0.9,0,2.1,0,4.3,0.7l-0.4,3.3c-1.9-0.8-3-0.8-3.5-0.7c-1.2,0.1-1.8,1-1.7,1.9c0.1,1,0.9,1.4,1.9,1.7
			c2.7,1,5,2.5,5,5.3c0,2.9-2,5.1-5.2,5.3c-1,0.1-3.1,0-5.5-1.3L537.3,558.6z"/>
		<path class="anac1_st16" d="M555.8,563.7l-7.2-17.7h4l2.3,5.8l1.3,3.6l1.2-3.5l2.3-5.9h4l-7.2,17.7H555.8z"/>
		<path class="anac1_st16" d="M573.9,563.4c-11.4,0-12-17.1,0-17.6c2.1-0.1,3.7,0.5,4,0.6l-0.4,3.5c-0.7-0.3-1.8-0.7-3.6-0.6
			c-7,0.2-6.7,10.6,0,10.6c0.3,0,0.7,0,1-0.1v-5.2h3.5v7.6C577,563,575.5,563.4,573.9,563.4z"/>
	</g>
	<g>
		<path class="anac1_st16" d="M489.1,549.7v3.5h4.4v3.5h-4.4v6.9h-3.5v-17.3h8.6v3.5H489.1z"/>
		<path class="anac1_st16" d="M505.8,563.6l-3.5-6.6h-1.7v6.6h-3.5v-17.3h6.8c6.2,0,6.8,8.7,1.7,10.2l4,7.1H505.8z M500.6,553.6h3.1
			c2.3,0,2.3-3.9,0-3.9h-3.1V553.6z"/>
		<path class="anac1_st16" d="M517.7,545.6h0.4l7.3,17.9h-3.9l-0.7-1.9h-5.7l-0.7,1.9h-3.9L517.7,545.6z M519.5,558.5l-1.6-4.5l-1.6,4.5
			H519.5z"/>
		<path class="anac1_st16" d="M542.6,546h1.1v17.6h-3.5l0-9.7l-4.4,4.7l-4.4-4.7v9.7h-3.5V546h1.1l6.8,7.6L542.6,546z"/>
		<path class="anac1_st16" d="M547.6,563.6v-17.3h8.7v3.5H551v3.5h4.6v3.5H551v3.5h5.5v3.5H547.6z"/>
		<path class="anac1_st16" d="M565.1,563.9l-7.1-17.7h3.9l3.5,8.8l3.4-8.7h0.2l3.4,8.7l3.5-8.8h3.9l-7.1,17.6H572l-3.2-7.7l-3.1,7.8H565.1
			z"/>
		<path class="anac1_st16" d="M590.2,546c11.9,0,11.9,17.9,0,17.9C578.2,563.8,578.2,546,590.2,546z M590.2,549.5c-6.9,0-6.9,10.7,0,10.7
			C597.1,560.2,597.1,549.5,590.2,549.5z"/>
		<path class="anac1_st16" d="M611,563.6l-3.5-6.6h-1.7v6.6h-3.5v-17.3h6.8c6.2,0,6.8,8.7,1.7,10.2l4,7.1H611z M605.8,553.6h3.1
			c2.3,0,2.3-3.9,0-3.9h-3.1V553.6z"/>
		<path class="anac1_st16" d="M617.2,546.2h3.5c0,2.3,0,4.6,0,6.9l4.4-6.9h4l-5.6,8.6l6.1,8.8h-4.3l-4.6-6.8c0,2.2,0,4.6,0,6.8h-3.5V546.2
			z"/>
	</g>
	<g>
		<path class="anac1_st16" d="M538.7,563.5v-17.3h3.5v17.3H538.7z"/>
		<path class="anac1_st16" d="M554.4,545.9c11.9,0,11.9,17.9,0,17.9C542.5,563.7,542.5,545.9,554.4,545.9z M554.4,549.4
			c-6.9,0-6.9,10.7,0,10.7C561.3,560.1,561.3,549.4,554.4,549.4z"/>
		<path class="anac1_st16" d="M566.2,558.7c2,1.4,4.1,1.5,4.9,1.4c1-0.1,1.9-0.8,1.8-1.7c-0.1-1-0.8-1.4-1.8-1.8c-2.7-1-5.1-2.4-5.1-5.3
			c0-2.9,2-5.1,4.9-5.3c0.9,0,2.1,0,4.3,0.7l-0.4,3.3c-1.9-0.8-3-0.8-3.5-0.7c-1.2,0.1-1.8,1-1.7,1.9c0.1,1,0.9,1.4,1.9,1.7
			c2.7,1,5,2.5,5,5.3c0,2.9-2,5.1-5.2,5.3c-1,0.1-3.1,0-5.5-1.3L566.2,558.7z"/>
	</g>
	<g>
		<g>
			<path class="anac1_st16" d="M507.4,546.1h6.9c3.1,0,5,2.2,4.9,5.3c0,1.3-0.5,2.7-1.6,3.4c1.1,0.8,1.8,2.1,1.8,3.5
				c0,2.9-2.3,5.2-5.1,5.2h-6.9V546.1z M510.9,553.1h2.1h1c1,0,1.6-0.8,1.6-1.7c0-1-0.6-1.7-1.6-1.7h-3.1V553.1z M510.9,560h2.1h1
				c1,0,1.7-0.8,1.7-1.7c0-1-0.8-1.7-1.7-1.7h-3.1V560z"/>
			<path class="anac1_st16" d="M530.8,545.9c11.9,0,11.9,17.9,0,17.9C518.8,563.7,518.8,545.9,530.8,545.9z M530.8,549.4
				c-6.9,0-6.9,10.7,0,10.7C537.7,560.1,537.7,549.4,530.8,549.4z"/>
			<path class="anac1_st16" d="M542.8,557.4v-11.3h3.5v11.3c0,3.6,5.6,3.6,5.6,0v-11.3h3.4v11.3C555.4,565.7,542.8,565.7,542.8,557.4z"/>
			<path class="anac1_st16" d="M567.2,549.4c-6.9,0-6.9,10.6,0,10.6c1.5,0,2.7-0.4,3.3-0.8l0.5,3.6c-1.1,0.4-2.6,0.7-3.8,0.7
				c-11.7,0-11.7-17.6,0-17.6c1.2,0,2.4,0.2,3.4,0.7l-0.4,3.6C569.6,549.8,568.7,549.4,567.2,549.4z"/>
			<path class="anac1_st16" d="M577.2,546.1V560h5.5v3.5h-9v-17.3H577.2z"/>
			<path class="anac1_st16" d="M585.7,563.5v-17.3h8.7v3.5h-5.2v3.5h4.6v3.5h-4.6v3.5h5.5v3.5H585.7z"/>
			<path class="anac1_st16" d="M597.5,558.7c2,1.4,4.1,1.5,4.9,1.4c1-0.1,1.9-0.8,1.8-1.7c-0.1-1-0.8-1.4-1.8-1.8c-2.7-1-5.1-2.4-5.1-5.3
				c0-2.9,2-5.1,4.9-5.3c0.9,0,2.1,0,4.3,0.7l-0.4,3.3c-1.9-0.8-3-0.8-3.5-0.7c-1.2,0.1-1.8,1-1.7,1.9c0.1,1,0.9,1.4,1.9,1.7
				c2.7,1,5,2.5,5,5.3c0,2.9-2,5.1-5.2,5.3c-1,0.1-3.1,0-5.5-1.3L597.5,558.7z"/>
		</g>
	</g>
	<g>
		<g>
			<path class="anac1_st16" d="M493.7,549.4c-6.9,0-6.9,10.6,0,10.6c1.5,0,2.7-0.4,3.3-0.8l0.5,3.6c-1.1,0.4-2.6,0.7-3.8,0.7
				c-11.7,0-11.7-17.6,0-17.6c1.2,0,2.4,0.2,3.4,0.7l-0.4,3.6C496,549.8,495.2,549.4,493.7,549.4z"/>
			<path class="anac1_st16" d="M508.6,545.8c11.9,0,11.9,17.9,0,17.9C496.7,563.7,496.7,545.8,508.6,545.8z M508.6,549.4
				c-6.9,0-6.9,10.7,0,10.7C515.5,560.1,515.5,549.4,508.6,549.4z"/>
			<path class="anac1_st16" d="M524.2,563.4h-3.5v-17.7h0.9l8.7,10.2v-9.8h3.5v17.7H533l-8.8-9.8V563.4z"/>
			<path class="anac1_st16" d="M543,563.4h-5.2v-17.3h5.2C554.5,546.1,554.5,563.4,543,563.4z M541.3,549.6V560h1.7c6.7,0,6.7-10.4,0-10.4
				H541.3z"/>
			<path class="anac1_st16" d="M554.9,563.4v-17.3h3.5v17.3H554.9z"/>
			<path class="anac1_st16" d="M565.1,563.4v-13.9h-4.3v-3.4h12.1v3.4h-4.3v13.9H565.1z"/>
			<path class="anac1_st16" d="M575.5,563.4v-17.3h3.5v17.3H575.5z"/>
			<path class="anac1_st16" d="M591.2,545.8c11.9,0,11.9,17.9,0,17.9C579.3,563.7,579.3,545.8,591.2,545.8z M591.2,549.4
				c-6.9,0-6.9,10.7,0,10.7C598.1,560.1,598.1,549.4,591.2,549.4z"/>
			<path class="anac1_st16" d="M606.8,563.4h-3.5v-17.7h0.9l8.7,10.2v-9.8h3.5v17.7h-0.9l-8.8-9.8V563.4z"/>
			<path class="anac1_st16" d="M620,558.7c2,1.4,4.1,1.5,4.9,1.4c1-0.1,1.9-0.8,1.8-1.7c-0.1-1-0.8-1.4-1.8-1.8c-2.7-1-5.1-2.4-5.1-5.3
				c0-2.9,2-5.1,4.9-5.3c0.9,0,2.1,0,4.3,0.7l-0.4,3.3c-1.9-0.8-3-0.8-3.5-0.7c-1.2,0.1-1.8,1-1.7,1.9c0.1,1,0.9,1.4,1.9,1.7
				c2.7,1,5,2.5,5,5.3c0,2.9-2,5.1-5.2,5.3c-1,0.1-3.1,0-5.5-1.3L620,558.7z"/>
		</g>
	</g>
	<g>
		<g>
			<path class="anac1_st16" d="M454.9,563.6v-17.3h6.8c6.7,0,6.7,10.7,0,10.7h-3.3v6.6H454.9z M461.4,553.6c2.3,0,2.3-3.9,0-3.9h-3.1v3.9
				H461.4z"/>
			<path class="anac1_st16" d="M478.1,563.6l-3.5-6.6H473v6.6h-3.5v-17.3h6.8c6.2,0,6.8,8.7,1.7,10.2l4,7.1H478.1z M473,553.6h3.1
				c2.3,0,2.3-3.9,0-3.9H473V553.6z"/>
			<path class="anac1_st16" d="M492.7,546c11.9,0,11.9,17.9,0,17.9C480.8,563.8,480.8,546,492.7,546z M492.7,549.5c-6.9,0-6.9,10.7,0,10.7
				C499.6,560.2,499.6,549.5,492.7,549.5z"/>
			<path class="anac1_st16" d="M512.9,563.7c-11.4,0-12-17.1,0-17.6c2.1-0.1,3.7,0.5,4,0.6l-0.4,3.5c-0.7-0.3-1.8-0.7-3.6-0.6
				c-7,0.2-6.7,10.6,0,10.6c0.3,0,0.7,0,1-0.1v-5.2h3.5v7.6C516,563.3,514.5,563.7,512.9,563.7z"/>
			<path class="anac1_st16" d="M529.8,563.6l-3.5-6.6h-1.7v6.6h-3.5v-17.3h6.8c6.2,0,6.8,8.7,1.7,10.2l4,7.1H529.8z M524.6,553.6h3.1
				c2.3,0,2.3-3.9,0-3.9h-3.1V553.6z"/>
			<path class="anac1_st16" d="M541.7,545.6h0.4l7.3,17.9h-3.9l-0.7-1.9h-5.7l-0.7,1.9h-3.9L541.7,545.6z M543.5,558.5l-1.6-4.5l-1.6,4.5
				H543.5z"/>
			<path class="anac1_st16" d="M566.6,546h1.1v17.6h-3.5l0-9.7l-4.4,4.7l-4.4-4.7v9.7h-3.5V546h1.1l6.8,7.6L566.6,546z"/>
			<path class="anac1_st16" d="M586.4,546h1.1v17.6h-3.5l0-9.7l-4.4,4.7l-4.4-4.7v9.7h-3.5V546h1.1l6.8,7.6L586.4,546z"/>
			<path class="anac1_st16" d="M597.1,545.6h0.4l7.3,17.9h-3.9l-0.7-1.9h-5.7l-0.7,1.9h-3.9L597.1,545.6z M598.9,558.5l-1.6-4.5l-1.6,4.5
				H598.9z"/>
			<path class="anac1_st16" d="M608.9,563.6v-13.9h-4.3v-3.4h12.1v3.4h-4.3v13.9H608.9z"/>
			<path class="anac1_st16" d="M619.3,563.6v-17.3h3.5v17.3H619.3z"/>
			<path class="anac1_st16" d="M635,546c11.9,0,11.9,17.9,0,17.9C623.1,563.8,623.1,546,635,546z M635,549.5c-6.9,0-6.9,10.7,0,10.7
				C641.9,560.2,641.9,549.5,635,549.5z"/>
			<path class="anac1_st16" d="M650.6,563.6h-3.5v-17.7h0.9l8.7,10.2v-9.8h3.5v17.7h-0.9l-8.8-9.8V563.6z"/>
		</g>
	</g>
	<g>
		<g>
			<path class="anac1_st16" d="M521,549.6c-6.9,0-6.9,10.6,0,10.6c1.5,0,2.7-0.4,3.3-0.8l0.5,3.6c-1.1,0.4-2.6,0.7-3.8,0.7
				c-11.7,0-11.7-17.6,0-17.6c1.2,0,2.4,0.2,3.4,0.7l-0.4,3.6C523.3,550,522.5,549.6,521,549.6z"/>
			<path class="anac1_st16" d="M531,546.4v13.9h5.5v3.5h-9v-17.3H531z"/>
			<path class="anac1_st16" d="M545.2,545.7h0.4l7.3,17.9H549l-0.7-1.9h-5.7l-0.7,1.9h-3.9L545.2,545.7z M547,558.6l-1.6-4.5l-1.6,4.5H547
				z"/>
			<path class="anac1_st16" d="M554.9,558.9c2,1.4,4.1,1.5,4.9,1.4c1-0.1,1.9-0.8,1.8-1.7c-0.1-1-0.8-1.4-1.8-1.8c-2.7-1-5.1-2.4-5.1-5.3
				c0-2.9,2-5.1,4.9-5.3c0.9,0,2.1,0,4.3,0.7l-0.4,3.3c-1.9-0.8-3-0.8-3.5-0.7c-1.2,0.1-1.8,1-1.7,1.9c0.1,1,0.9,1.4,1.9,1.7
				c2.7,1,5,2.5,5,5.3c0,2.9-2,5.1-5.2,5.3c-1,0.1-3.1,0-5.5-1.3L554.9,558.9z"/>
			<path class="anac1_st16" d="M567.7,558.9c2,1.4,4.1,1.5,4.9,1.4c1-0.1,1.9-0.8,1.8-1.7c-0.1-1-0.8-1.4-1.8-1.8c-2.7-1-5.1-2.4-5.1-5.3
				c0-2.9,2-5.1,4.9-5.3c0.9,0,2.1,0,4.3,0.7l-0.4,3.3c-1.9-0.8-3-0.8-3.5-0.7c-1.2,0.1-1.8,1-1.7,1.9c0.1,1,0.9,1.4,1.9,1.7
				c2.7,1,5,2.5,5,5.3c0,2.9-2,5.1-5.2,5.3c-1,0.1-3.1,0-5.5-1.3L567.7,558.9z"/>
			<path class="anac1_st16" d="M580.9,563.7v-17.3h8.7v3.5h-5.2v3.5h4.6v3.5h-4.6v3.5h5.5v3.5H580.9z"/>
			<path class="anac1_st16" d="M592.8,558.9c2,1.4,4.1,1.5,4.9,1.4c1-0.1,1.9-0.8,1.8-1.7c-0.1-1-0.8-1.4-1.8-1.8c-2.7-1-5.1-2.4-5.1-5.3
				c0-2.9,2-5.1,4.9-5.3c0.9,0,2.1,0,4.3,0.7l-0.4,3.3c-1.9-0.8-3-0.8-3.5-0.7c-1.2,0.1-1.8,1-1.7,1.9c0.1,1,0.9,1.4,1.9,1.7
				c2.7,1,5,2.5,5,5.3c0,2.9-2,5.1-5.2,5.3c-1,0.1-3.1,0-5.5-1.3L592.8,558.9z"/>
		</g>
	</g>
	<g>
		<g>
			<path class="anac1_st16" d="M531.4,545.9c11.9,0,11.9,17.9,0,17.9C519.5,563.7,519.5,545.9,531.4,545.9z M531.4,549.4
				c-6.9,0-6.9,10.7,0,10.7C538.3,560.1,538.3,549.4,531.4,549.4z"/>
			<path class="anac1_st16" d="M543.6,546.1h6.9c3.1,0,5,2.2,4.9,5.3c0,1.3-0.5,2.7-1.6,3.4c1.1,0.8,1.8,2.1,1.8,3.5
				c0,2.9-2.3,5.2-5.1,5.2h-6.9V546.1z M547.1,553.1h2.1h1c1,0,1.6-0.8,1.6-1.7c0-1-0.6-1.7-1.6-1.7h-3.1V553.1z M547.1,560h2.1h1
				c1,0,1.7-0.8,1.7-1.7c0-1-0.8-1.7-1.7-1.7h-3.1V560z"/>
			<path class="anac1_st16" d="M557.5,560h3.3c1,0,1.8-0.8,1.8-1.7v-12.1h3.4v12.1c0,2.9-2.3,5.2-5.1,5.2h-3.4V560z"/>
			<path class="anac1_st16" d="M569.9,563.5v-17.3h8.7v3.5h-5.2v3.5h4.6v3.5h-4.6v3.5h5.5v3.5H569.9z"/>
			<path class="anac1_st16" d="M585,563.5v-13.9h-4.3v-3.4h12.1v3.4h-4.3v13.9H585z"/>
		</g>
	</g>
	<g>
		<g>
			<path class="anac1_st16" d="M504.9,563.6v-17.3h3.5v17.3H504.9z"/>
			<path class="anac1_st16" d="M515.8,563.6h-3.5v-17.7h0.9l8.7,10.2v-9.8h3.5v17.7h-0.9l-8.8-9.8V563.6z"/>
			<path class="anac1_st16" d="M529,558.8c2,1.4,4.1,1.5,4.9,1.4c1-0.1,1.9-0.8,1.8-1.7c-0.1-1-0.8-1.4-1.8-1.8c-2.7-1-5.1-2.4-5.1-5.3
				c0-2.9,2-5.1,4.9-5.3c0.9,0,2.1,0,4.3,0.7l-0.4,3.3c-1.9-0.8-3-0.8-3.5-0.7c-1.2,0.1-1.8,1-1.7,1.9c0.1,1,0.9,1.4,1.9,1.7
				c2.7,1,5,2.5,5,5.3c0,2.9-2,5.1-5.2,5.3c-1,0.1-3.1,0-5.5-1.3L529,558.8z"/>
			<path class="anac1_st16" d="M545,563.6v-13.9h-4.3v-3.4h12.1v3.4h-4.3v13.9H545z"/>
			<path class="anac1_st16" d="M559.6,545.6h0.4l7.3,17.9h-3.9l-0.7-1.9h-5.7l-0.7,1.9h-3.9L559.6,545.6z M561.4,558.5l-1.6-4.5l-1.6,4.5
				H561.4z"/>
			<path class="anac1_st16" d="M573.1,563.6h-3.5v-17.7h0.9l8.7,10.2v-9.8h3.5v17.7h-0.9l-8.8-9.8V563.6z"/>
			<path class="anac1_st16" d="M594.8,549.5c-6.9,0-6.9,10.6,0,10.6c1.5,0,2.7-0.4,3.3-0.8l0.5,3.6c-1.1,0.4-2.6,0.7-3.8,0.7
				c-11.7,0-11.7-17.6,0-17.6c1.2,0,2.4,0.2,3.4,0.7l-0.4,3.6C597.1,549.9,596.3,549.5,594.8,549.5z"/>
			<path class="anac1_st16" d="M601.3,563.6v-17.3h8.7v3.5h-5.2v3.5h4.6v3.5h-4.6v3.5h5.5v3.5H601.3z"/>
		</g>
	</g>
	<g>
		<g>
			<path class="anac1_st16" d="M499.3,565.2v-17.3h3.5v17.3H499.3z"/>
			<path class="anac1_st16" d="M509.5,565.2v-13.9h-4.3v-3.4h12.1v3.4H513v13.9H509.5z"/>
			<path class="anac1_st16" d="M519.9,565.2v-17.3h8.7v3.5h-5.2v3.5h4.6v3.5h-4.6v3.5h5.5v3.5H519.9z M528,543.9l-2.3,2.8h-3.1l1.2-2.8
				H528z"/>
			<path class="anac1_st16" d="M540.7,565.2l-3.5-6.6h-1.7v6.6h-3.5v-17.3h6.8c6.2,0,6.8,8.7,1.7,10.2l4,7.1H540.7z M535.6,555.3h3.1
				c2.3,0,2.3-3.9,0-3.9h-3.1V555.3z"/>
			<path class="anac1_st16" d="M552.7,547.3h0.4l7.3,17.9h-3.9l-0.7-1.9H550l-0.7,1.9h-3.9L552.7,547.3z M554.5,560.1l-1.6-4.5l-1.6,4.5
				H554.5z"/>
			<path class="anac1_st16" d="M564.5,565.2v-13.9h-4.3v-3.4h12.1v3.4H568v13.9H564.5z"/>
			<path class="anac1_st16" d="M574.9,565.2v-17.3h3.5v17.3H574.9z"/>
			<path class="anac1_st16" d="M590.6,547.6c11.9,0,11.9,17.9,0,17.9C578.7,565.5,578.7,547.6,590.6,547.6z M590.6,551.2
				c-6.9,0-6.9,10.7,0,10.7C597.5,561.9,597.5,551.2,590.6,551.2z"/>
			<path class="anac1_st16" d="M606.2,565.2h-3.5v-17.7h0.9l8.7,10.2v-9.8h3.5v17.7H615l-8.8-9.8V565.2z"/>
		</g>
	</g>
	<g>
		<g>
			<path class="anac1_st16" d="M536.7,563.4v-13.9h-4.3v-3.4h12.1v3.4h-4.3v13.9H536.7z"/>
			<path class="anac1_st16" d="M547.1,563.4v-17.3h8.7v3.5h-5.2v3.5h4.6v3.5h-4.6v3.5h5.5v3.5H547.1z"/>
			<path class="anac1_st16" d="M559,558.7c2,1.4,4.1,1.5,4.9,1.4c1-0.1,1.9-0.8,1.8-1.7c-0.1-1-0.8-1.4-1.8-1.8c-2.7-1-5.1-2.4-5.1-5.3
				c0-2.9,2-5.1,4.9-5.3c0.9,0,2.1,0,4.3,0.7l-0.4,3.3c-1.9-0.8-3-0.8-3.5-0.7c-1.2,0.1-1.8,1-1.7,1.9c0.1,1,0.9,1.4,1.9,1.7
				c2.7,1,5,2.5,5,5.3c0,2.9-2,5.1-5.2,5.3c-1,0.1-3.1,0-5.5-1.3L559,558.7z"/>
			<path class="anac1_st16" d="M575,563.4v-13.9h-4.3v-3.4h12.1v3.4h-4.3v13.9H575z"/>
		</g>
	</g>
	<g>
		<g>
			<path class="anac1_st16" d="M536.4,563.4v-17.3h6.8c6.7,0,6.7,10.7,0,10.7h-3.3v6.6H536.4z M542.9,553.5c2.3,0,2.3-3.9,0-3.9h-3.1v3.9
				H542.9z"/>
			<path class="anac1_st16" d="M559.6,563.4v-6.9h-5.2v6.9H551v-17.3h3.5v6.9h5.2v-6.9h3.5v17.3H559.6z"/>
			<path class="anac1_st16" d="M567,563.4v-17.3h6.8c6.7,0,6.7,10.7,0,10.7h-3.3v6.6H567z M573.5,553.5c2.3,0,2.3-3.9,0-3.9h-3.1v3.9
				H573.5z"/>
		</g>
	</g>
	<g>
		<g>
			<path class="anac1_st16" d="M530.9,560.1h3.3c1,0,1.8-0.8,1.8-1.7v-12.1h3.4v12.1c0,2.9-2.3,5.2-5.1,5.2h-3.4V560.1z"/>
			<path class="anac1_st16" d="M549,545.6h0.4l7.3,17.9h-3.9l-0.7-1.9h-5.7l-0.7,1.9h-3.9L549,545.6z M550.8,558.5l-1.6-4.5l-1.6,4.5
				H550.8z"/>
			<path class="anac1_st16" d="M562.6,563.9l-7.2-17.7h4l2.3,5.8l1.3,3.6l1.2-3.5l2.3-5.9h4l-7.2,17.7H562.6z"/>
			<path class="anac1_st16" d="M576.7,545.6h0.4l7.3,17.9h-3.9l-0.7-1.9H574l-0.7,1.9h-3.9L576.7,545.6z M578.4,558.5l-1.6-4.5l-1.6,4.5
				H578.4z"/>
		</g>
	</g>
	<g>
		<g>
			<path class="anac1_st16" d="M488,563.4v-17.3h6.8c6.7,0,6.7,10.7,0,10.7h-3.3v6.6H488z M494.5,553.5c2.3,0,2.3-3.9,0-3.9h-3.1v3.9
				H494.5z"/>
			<path class="anac1_st16" d="M511.2,563.4l-3.5-6.6H506v6.6h-3.5v-17.3h6.8c6.2,0,6.8,8.7,1.7,10.2l4,7.1H511.2z M506,553.5h3.1
				c2.3,0,2.3-3.9,0-3.9H506V553.5z"/>
			<path class="anac1_st16" d="M525.7,545.8c11.9,0,11.9,17.9,0,17.9C513.8,563.7,513.8,545.8,525.7,545.8z M525.7,549.4
				c-6.9,0-6.9,10.7,0,10.7C532.7,560.1,532.7,549.4,525.7,549.4z"/>
			<path class="anac1_st16" d="M545.9,549.4c-6.9,0-6.9,10.6,0,10.6c1.5,0,2.7-0.4,3.3-0.8l0.5,3.6c-1.1,0.4-2.6,0.7-3.8,0.7
				c-11.7,0-11.7-17.6,0-17.6c1.2,0,2.4,0.2,3.4,0.7l-0.4,3.6C548.3,549.8,547.4,549.4,545.9,549.4z"/>
			<path class="anac1_st16" d="M552.5,563.4v-17.3h8.7v3.5H556v3.5h4.6v3.5H556v3.5h5.5v3.5H552.5z"/>
			<path class="anac1_st16" d="M564.3,558.7c2,1.4,4.1,1.5,4.9,1.4c1-0.1,1.9-0.8,1.8-1.7c-0.1-1-0.8-1.4-1.8-1.8c-2.7-1-5.1-2.4-5.1-5.3
				c0-2.9,2-5.1,4.9-5.3c0.9,0,2.1,0,4.3,0.7l-0.4,3.3c-1.9-0.8-3-0.8-3.5-0.7c-1.2,0.1-1.8,1-1.7,1.9c0.1,1,0.9,1.4,1.9,1.7
				c2.7,1,5,2.5,5,5.3c0,2.9-2,5.1-5.2,5.3c-1,0.1-3.1,0-5.5-1.3L564.3,558.7z"/>
			<path class="anac1_st16" d="M577.2,558.7c2,1.4,4.1,1.5,4.9,1.4c1-0.1,1.9-0.8,1.8-1.7c-0.1-1-0.8-1.4-1.8-1.8c-2.7-1-5.1-2.4-5.1-5.3
				c0-2.9,2-5.1,4.9-5.3c0.9,0,2.1,0,4.3,0.7l-0.4,3.3c-1.9-0.8-3-0.8-3.5-0.7c-1.2,0.1-1.8,1-1.7,1.9c0.1,1,0.9,1.4,1.9,1.7
				c2.7,1,5,2.5,5,5.3c0,2.9-2,5.1-5.2,5.3c-1,0.1-3.1,0-5.5-1.3L577.2,558.7z"/>
			<path class="anac1_st16" d="M590.3,563.4v-17.3h3.5v17.3H590.3z"/>
			<path class="anac1_st16" d="M601.2,563.4h-3.5v-17.7h0.9l8.7,10.2v-9.8h3.5v17.7h-0.9l-8.8-9.8V563.4z"/>
			<path class="anac1_st16" d="M622.8,563.5c-11.4,0-12-17.1,0-17.6c2.1-0.1,3.7,0.5,4,0.6l-0.4,3.5c-0.7-0.3-1.8-0.7-3.6-0.6
				c-7,0.2-6.7,10.6,0,10.6c0.3,0,0.7,0,1-0.1v-5.2h3.5v7.6C625.9,563.1,624.4,563.5,622.8,563.5z"/>
		</g>
	</g>
	<g>
		<g>
			<path class="anac1_st16" d="M502.1,549.6v3.5h4.4v3.5h-4.4v6.9h-3.5v-17.3h8.6v3.5H502.1z"/>
			<path class="anac1_st16" d="M518.5,545.8c11.9,0,11.9,17.9,0,17.9C506.6,563.7,506.6,545.8,518.5,545.8z M518.5,549.4
				c-6.9,0-6.9,10.7,0,10.7C525.4,560.1,525.4,549.4,518.5,549.4z"/>
			<path class="anac1_st16" d="M534.1,563.4h-3.5v-17.7h0.9l8.7,10.2v-9.8h3.5v17.7h-0.9l-8.8-9.8V563.4z"/>
			<path class="anac1_st16" d="M555.7,549.4c-6.9,0-6.9,10.6,0,10.6c1.5,0,2.7-0.4,3.3-0.8l0.5,3.6c-1.1,0.4-2.6,0.7-3.8,0.7
				c-11.7,0-11.7-17.6,0-17.6c1.2,0,2.4,0.2,3.4,0.7l-0.4,3.6C558.1,549.8,557.2,549.4,555.7,549.4z"/>
			<path class="anac1_st16" d="M565.1,563.4v-13.9h-4.3v-3.4h12.1v3.4h-4.3v13.9H565.1z"/>
			<path class="anac1_st16" d="M575.5,563.4v-17.3h3.5v17.3H575.5z"/>
			<path class="anac1_st16" d="M591.2,545.8c11.9,0,11.9,17.9,0,17.9C579.3,563.7,579.3,545.8,591.2,545.8z M591.2,549.4
				c-6.9,0-6.9,10.7,0,10.7C598.2,560.1,598.2,549.4,591.2,549.4z"/>
			<path class="anac1_st16" d="M606.9,563.4h-3.5v-17.7h0.9l8.7,10.2v-9.8h3.5v17.7h-0.9l-8.8-9.8V563.4z"/>
		</g>
	</g>
	<g>
		<g>
			<path class="anac1_st16" d="M493.1,565.4v-17.3h6.8c6.7,0,6.7,10.7,0,10.7h-3.3v6.6H493.1z M499.6,555.4c2.3,0,2.3-3.9,0-3.9h-3.1v3.9
				H499.6z"/>
			<path class="anac1_st16" d="M512.3,547.5h0.4l7.3,17.9h-3.9l-0.7-1.9h-5.7l-0.7,1.9H505L512.3,547.5z M514.1,560.3l-1.6-4.5l-1.6,4.5
				H514.1z"/>
			<path class="anac1_st16" d="M531,565.4l-3.5-6.6h-1.7v6.6h-3.5v-17.3h6.8c6.2,0,6.8,8.7,1.7,10.2l4,7.1H531z M525.9,555.4h3.1
				c2.3,0,2.3-3.9,0-3.9h-3.1V555.4z"/>
			<path class="anac1_st16" d="M543,547.5h0.4l7.3,17.9h-3.9l-0.7-1.9h-5.7l-0.7,1.9h-3.9L543,547.5z M544.8,560.3l-1.6-4.5l-1.6,4.5
				H544.8z"/>
			<path class="anac1_st16" d="M567.8,547.8h1.1v17.6h-3.5l0-9.7l-4.4,4.7l-4.4-4.7v9.7h-3.5v-17.6h1.1l6.8,7.6L567.8,547.8z"/>
			<path class="anac1_st16" d="M572.8,565.4v-17.3h8.7v3.5h-5.2v3.5h4.6v3.5h-4.6v3.5h5.5v3.5H572.8z M577.9,544.1l1.2,2.8H576l-2.3-2.8
				H577.9z"/>
			<path class="anac1_st16" d="M587.9,565.4v-13.9h-4.3v-3.4h12.1v3.4h-4.3v13.9H587.9z"/>
			<path class="anac1_st16" d="M606.9,565.4l-3.5-6.6h-1.7v6.6h-3.5v-17.3h6.8c6.2,0,6.8,8.7,1.7,10.2l4,7.1H606.9z M601.7,555.4h3.1
				c2.3,0,2.3-3.9,0-3.9h-3.1V555.4z"/>
			<path class="anac1_st16" d="M613.1,565.4v-17.3h8.7v3.5h-5.2v3.5h4.6v3.5h-4.6v3.5h5.5v3.5H613.1z"/>
		</g>
	</g>
</g>
<g id="jambes-anac1">
	<polygon class="anac1_st17" points="403,590.9 528.6,606.4 564.3,606.4 693,606.4 648.9,655.4 493,654.3 	"/>
	<g id="jambe-g-anac1">
		<path class="anac1_st18" d="M530,640.1l8.1,45.9l156.3-17.9c17-3,28.3-19.2,25.3-36.2v0c-3-17-19.2-28.3-36.2-25.3L530,640.1z"/>

			<rect x="503.8" y="658.7" transform="matrix(-0.1745 -0.9847 0.9847 -0.1745 -32.6089 1300.6321)" class="anac1_st19" width="50.1" height="10.6"/>
		<polygon class="anac1_st20" points="524.3,682.2 498.2,682.4 492.9,652.5 516.6,648.3 		"/>
		<polygon class="anac1_st1" points="516.6,648.3 520.6,647.6 526.8,682.2 524.3,682.2 		"/>
		<path class="anac1_st21" d="M495.7,632.8c4.2,3.7,10.2,17.4,10.2,17.4c-11.3,6.9-7.7,32.2-7.7,32.2c3.7-4.2,12.4-0.4,10.3,2.6
			c-2.1,3.1-19.2,7.9-19.2,7.9s-27.1,23.6-40.5,28.6s-28.2-12.9-28.2-12.9L495.7,632.8z"/>
		<polygon class="anac1_st22" points="419.6,707.7 422.1,710.2 496.9,634.1 494.4,631.6 		"/>
		<path class="anac1_st22" d="M467.3,709.9l-4.1-3.5l18.4-23.8l8.5,10.1l-20.6,17.2C468.9,710.5,468,710.5,467.3,709.9z"/>
	</g>
	<g id="ordi-anac1">
		<path class="anac1_st23" d="M669,616.5h-225l-11.5-105.9c-1-9.5,6.4-17.7,15.9-17.7h216.1c9.5,0,16.9,8.3,15.9,17.7L669,616.5z"/>
		<ellipse class="anac1_st24" cx="556.5" cy="565.2" rx="21.2" ry="15.6"/>
		<path class="anac1_st24" d="M666,625.4H446.9c-1.6,0-3-1.3-3-3v-5.9h225v5.9C669,624,667.7,625.4,666,625.4z"/>
	</g>
	<g id="jambe-d-anac1">
		<path class="anac1_st25" d="M563.9,645.8l-14.2,44.4l-152.5-38.6c-16.4-5.2-25.5-22.8-20.2-39.2v0c5.2-16.4,22.8-25.5,39.2-20.2
			L563.9,645.8z"/>

			<rect x="536.7" y="664.3" transform="matrix(0.3044 -0.9525 0.9525 0.3044 -247.0686 1000.9233)" class="anac1_st19" width="50.1" height="10.6"/>
		<polygon class="anac1_st20" points="563.9,688.3 589.7,691.9 599,663 576.1,655.7 		"/>
		<polygon class="anac1_st1" points="576.1,655.7 572.2,654.5 561.5,688 563.9,688.3 		"/>
		<path class="anac1_st21" d="M598.9,643.2c-4.7,3.1-12.5,15.9-12.5,15.9c10.3,8.4,3.3,32.9,3.3,32.9c-3.1-4.7-12.3-2.1-10.6,1.2
			c1.7,3.3,17.9,10.3,17.9,10.3s23.7,27,36.3,33.8c12.6,6.8,29.7-9,29.7-9L598.9,643.2z"/>
		<polygon class="anac1_st22" points="664.3,727.5 661.4,729.6 597.5,644.2 600.3,642.1 		"/>
		<path class="anac1_st22" d="M616.7,723.4l4.6-2.9l-15.1-26.1l-9.8,8.9l18.1,19.8C615,723.7,616,723.8,616.7,723.4z"/>
	</g>
</g>
</svg>
