
<svg version="1.1" xmlns="http://www.w3.org/2000/svg" xmlns:xlink="http://www.w3.org/1999/xlink" x="0px" y="0px"
	 viewBox="0 0 496.9 442.1" enable-background="new 0 0 496.9 442.1" xml:space="preserve">
<g id="canape">
	<path fill="#34495E" d="M398.9,204.6H144.1c-32.5,0-58.8,26.3-58.8,58.8v139.1h372.4V263.4C457.7,230.9,431.4,204.6,398.9,204.6z"
		/>
	<rect x="91.4" y="324.8" fill="#2C3D4C" width="359.8" height="5.1"/>
	<path fill="#3A5266" d="M480.3,416.7H435c-2.8,0-5-2.2-5-5v-94.1c0-14.9,12.1-26.9,26.9-26.9h1.5c14.9,0,26.9,12.1,26.9,26.9v94.1
		C485.4,414.5,483.1,416.7,480.3,416.7z"/>
	<path fill="#3A5266" d="M107.9,416.7H62.6c-2.8,0-5-2.2-5-5v-94.1c0-14.9,12.1-26.9,26.9-26.9H86c14.9,0,26.9,12.1,26.9,26.9v94.1
		C112.9,414.5,110.7,416.7,107.9,416.7z"/>
	<path fill="#3E5868" d="M422.6,410.9H120c-4.2,0-7.5-3.4-7.5-7.5v-43.5h317.7v43.5C430.1,407.5,426.8,410.9,422.6,410.9z"/>
	<path fill="#445F72" d="M425.1,329.8H117.5c-5,0-9.1,4.1-9.1,9.1v11.9c0,5,4.1,9.1,9.1,9.1h307.5c5,0,9.1-4.1,9.1-9.1v-11.9
		C434.1,333.9,430.1,329.8,425.1,329.8z"/>
</g>
<g id="fils_depl">

		<rect x="44.7" y="341.6" transform="matrix(0.982 0.1887 -0.1887 0.982 66.5135 -3.1868)" fill="#D6D6D6" width="10.6" height="12.4"/>

		<rect x="29.5" y="329.8" transform="matrix(0.8482 0.5297 -0.5297 0.8482 183.2711 32.601)" fill="#D6D6D6" width="10.6" height="12.4"/>
	<polygon fill="#F4CDB0" points="84.5,247.5 75.2,244.5 89.8,211.1 98.7,214.9 	"/>
	<path fill="#EFE8A8" d="M97.2,227.1l-12.3-8l6.4-9.9c2.2-3.4,6.7-4.4,10.1-2.2l0,0c3.4,2.2,4.4,6.7,2.2,10.1L97.2,227.1z"/>
	<polygon fill="#6BACDD" points="39.4,339.4 28.6,333.7 53.5,285.9 71.4,295.2 	"/>
	<rect x="108.7" y="190.2" fill="#F4C6A4" width="15.2" height="11.2"/>
	<g id="tete_fils">
		<path fill="#FCD4B1" d="M144.4,149.3c0,16.4-5.6,46-26.4,46s-25.6-29.9-25.6-46.2l40.4-7.9L144.4,149.3z"/>
		<polygon fill="#F4C6A4" points="114.3,179.9 121.3,179.9 118.1,182.6 		"/>
		<path fill="#FCD4B1" d="M143.2,171.9c-0.4,1.3-1.4,3-2.4,2.6c-1-0.4-0.3-1.8-0.1-3.3c0.2-1.5,0.1-5.1,1.9-4.9
			C144.4,166.5,143.7,170.4,143.2,171.9"/>
		<path fill="#FCD4B1" d="M93.6,171.9c0.4,1.3,1.4,3,2.4,2.6c1-0.4,0.3-1.8,0.1-3.3c-0.2-1.5-0.1-5.1-1.9-4.9S93.1,170.4,93.6,171.9
			"/>
		<path fill="#1D0421" d="M119.4,162.4C119.4,162.4,119.4,162.4,119.4,162.4C119.4,162.4,119.4,162.4,119.4,162.4L119.4,162.4z"/>
		<path fill="#544129" d="M118.1,128c-34.8,0-24.6,34.6-24.6,34.6s8.7-3.3,15.4-13c0,0,0.3,2.9-2.4,6.8c4.3-1.4,7.3-6.9,7.3-6.9
			s0.2,2.8-1.2,5.4c5.5,0.5,18.7-9.9,18.7-9.9s1.6,9,4.7,14.7c0.3-3.5,1.7-7.1,1.7-7.1c3.8,4,5.8,9.9,5.8,9.9S152.9,128,118.1,128z"
			/>
	</g>
	<path fill="#74BEFF" d="M51.5,288.1l-1.2,9.1c0,0,17.4-0.7,17.5-0.7c4.4-3.5,9.6-5.6,16.6-5.9c0.1,0,0.2,0,0.3,0l2.3,0
		c9.4,0,16.8,4.9,21.6,11.9h0c3.4,0,6.1-2.7,6.1-6.1v-17.9l-52.9,0.6C56.5,279.1,52.2,283,51.5,288.1z"/>
	<path fill="#F9F7A2" d="M83.4,278.1l7.2-35.2c0.2-1.2,0.4-2.3,0.4-3.5l1.6-30.2c0.2-1.9,1.4-3.6,3.1-4.4l12.7-6.3
		c0,0,5.7,5.5,15.3,0l11.2,11.1l-18.5,86.5c-0.1,0.4-0.6,0.6-0.9,0.3C113.1,293.8,102.7,284.2,83.4,278.1z"/>
	<polygon fill="#74BEFF" points="55.7,348.7 43.6,347 51.4,290.2 71.4,292.9 	"/>
	<polygon fill="#FCD4B1" points="135,290.9 128.6,291.1 126.1,221.7 136.3,221.7 	"/>
	<path fill="#FFF9AE" d="M138.5,224.3h-14.6v-9.2c0-4,3.3-7.3,7.3-7.3h0c4,0,7.3,3.3,7.3,7.3V224.3z"/>
	<path fill="#FCD4B1" d="M109,265.2l-32.2-12.9c-2.5-1.2-3.6-4.1-2.4-6.7v0c1.2-2.5,4.1-3.6,6.7-2.4l30.6,16.2L109,265.2z"/>
	<g>
		<path fill="#13344C" d="M37.9,343.2c-0.4,1.6-1.3,4.7-3.7,8.3L8.8,337.2c0,0,4.8-5.3,7.3-4.6c2.4,0.7,5.8,1.6,6.6,2
			c0.8,0.4,3.9,0.2,4.4-0.3c0.5-0.6,0.5-1.6,1.4-1.8l0,0c0.4-0.1,0.6,0.3,0.5,0.7l-0.3,0.6c-0.4,0.7-0.9,1.6-0.3,1.9l4,1.7
			c0.6,0.3,1.2,3,4.8,4.2C37.7,341.9,38,342.5,37.9,343.2z"/>
		<path fill="#D6D7D8" d="M16.2,341.3L8.5,337c0,0,4.8-5.3,7.3-4.6c0.7,0.2,1.5,0.4,2.3,0.7C18.1,333,19.2,335.9,16.2,341.3z"/>
		<path fill="#656666" d="M33.7,351.8L8.6,337.4c-0.2-0.1-0.3-0.4-0.1-0.6l0,0c0.1-0.2,0.4-0.3,0.6-0.1l25.1,14.4
			c0.2,0.1,0.3,0.4,0.1,0.6l0,0C34.1,351.9,33.8,351.9,33.7,351.8z"/>
		<path fill="#F2F3F4" d="M27.1,334.3c-0.5,0.6-3.6,0.8-4.4,0.3c-0.5-0.3-2.3-0.8-4.1-1.3l1.4,1.2c0,0,3.9,1.9,4.5,1.7
			c0.7-0.1,2.1-0.9,2.1-0.9L27.1,334.3z"/>
		<path fill="#F2F3F4" d="M30.9,336.8l0.7,0.3c0,0,2.1,6.9,0.3,12.7l-1.1-0.6C30.8,349.2,32.6,346.2,30.9,336.8z"/>
	</g>
	<g>
		<path fill="#13344C" d="M55.3,352c0.4,1.6,0.9,4.8,0.3,9.1l-29-1.7c0,0,2-6.9,4.5-7.3s5.9-1.2,6.8-1.1c0.9,0,3.6-1.5,3.8-2.2
			c0.2-0.7-0.3-1.6,0.5-2.2l0,0c0.3-0.2,0.7,0,0.7,0.4l0,0.7c0,0.8-0.2,1.8,0.5,1.9l4.3-0.2c0.7,0,2.4,2.2,6.2,1.7
			C54.5,350.9,55.1,351.4,55.3,352z"/>
		<path fill="#D6D7D8" d="M35,359.9l-8.8-0.5c0,0,2-6.9,4.5-7.3c0.7-0.1,1.6-0.3,2.4-0.4C33.1,351.6,35.3,353.7,35,359.9z"/>
		<path fill="#656666" d="M55.3,361.6l-28.9-1.9c-0.2,0-0.4-0.2-0.4-0.4l0,0c0-0.2,0.2-0.4,0.4-0.4l28.9,1.9c0.2,0,0.4,0.2,0.4,0.4
			l0,0C55.7,361.5,55.5,361.6,55.3,361.6z"/>
		<path fill="#F2F3F4" d="M41.7,348.8c-0.2,0.7-2.9,2.3-3.8,2.2c-0.6,0-2.4,0.3-4.3,0.6l1.8,0.5c0,0,4.3,0,4.8-0.4
			c0.6-0.4,1.5-1.7,1.5-1.7L41.7,348.8z"/>
		<path fill="#F2F3F4" d="M46.2,349.4l0.8,0c0,0,4.9,5.2,5.9,11.3l-1.3-0.1C51.6,360.6,51.9,357,46.2,349.4z"/>
	</g>
	<g id="fleche1_depl">
		<rect x="110.7" y="255.9" fill="#2296DD" width="15.1" height="3.3"/>
		<rect x="110.7" y="252.7" fill="#2296DD" width="15.1" height="2.1"/>
		<rect x="110.7" y="250.5" fill="#2296DD" width="15.1" height="1.1"/>
		<rect x="110.6" y="260.4" fill="#2296DD" width="15.1" height="5.1"/>
		<polygon fill="#2296DD" points="129.4,266.5 118.6,278 107.8,266.5 		"/>
	</g>
</g>
<g id="mere_depl">
	<path fill="#FCD4B1" d="M137.4,294.2l-8.8,1c-0.3,0-0.6-0.2-0.6-0.5l-0.4-3.5c-0.1-1,0.6-1.9,1.6-2.1l6.2-0.7
		c1-0.1,1.9,0.6,2.1,1.6l0.4,3.5C137.9,293.9,137.7,294.2,137.4,294.2z"/>
	<path fill="#9EEFAF" d="M161.9,247.8l15.1-37.1l-9.6-10.6l-16.2,43.3c-0.6,1.5-1.1,2.1-1.1,2.1l-28.3,28.4l8.2,8.2l28.3-28.4
		C158.2,253.7,160.9,251.8,161.9,247.8z"/>
	<path fill="#F4C6A4" d="M202.3,305.1H200v19.6h2.3c5.4,0,9.8-4.4,9.8-9.8v0C212.1,309.5,207.7,305.1,202.3,305.1z"/>
	<path fill="#A3AEAF" d="M166.6,315.8l-34-5.4c-5.8-0.9-9.7-6.3-8.8-12.1v0c0.9-5.8,6.3-9.7,12.1-8.8l34,5.4L166.6,315.8z"/>
	<path fill="#A3AEAF" d="M200,324.7h-34.4c-5.8,0-10.6-4.7-10.6-10.6l0,0c0-5.8,4.7-10.6,10.6-10.6H200V324.7z"/>
	<rect x="181.4" y="168.8" fill="#F4C6A4" width="18.6" height="19.1"/>
	<path fill="#F4C6A4" d="M214.6,209.4l-44.4-1.3l2.1-2.5c0-6.1-2.9-5.6,1.5-9.8l7.4-11.7h18.7l0,0c9,4.4,14.7,13.6,14.7,23.6V209.4z
		"/>
	<path fill="#B0BFC1" d="M182.9,326.2h-16.4l2.5-21.1l-2.5-17.3h47.1v7.7C213.6,312.5,199.9,326.2,182.9,326.2z"/>
	<path fill="#C7FFBB" d="M166.2,290l0,1.9l47.4,11.3l-2.5-34.3c-0.1-1.4-0.1-2.8,0-4.2l3.5-70.1c0-2-1.1-3.9-3-4.8l-11.7-5.8
		c0,0-2.8,17.2-13.9,20.7c-11.1,3.6-4.8-20.7-4.8-20.7l-11.7,11.8c-1.4,1.3-2.1,3-2.1,4.9l-0.8,40.7c0,0-0.7,29.1-2.1,33.5
		C163,279.2,166.2,290,166.2,290z"/>
	<radialGradient id="poit_mere_1_" cx="172.6549" cy="239.4562" r="45.6925" gradientUnits="userSpaceOnUse">
		<stop  offset="0" style="stop-color:#B5FFBB"/>
		<stop  offset="1" style="stop-color:#C7FFBB"/>
	</radialGradient>
	<path id="poit_mere" fill="url(#poit_mere_1_)" d="M195,205.7c-4.6,0-9,2.8-12.5,6.8c-2.4-4-5.5-6.8-9.2-6.8
		c-8.1,0-15.7,13.3-15.7,23.6c0,10.3,7.6,13.6,15.7,13.6c3.7,0,6.9-0.7,9.2-2.4c3.5,1.7,7.9,2.4,12.5,2.4c10.1,0,17-3.3,17-13.6
		C212,219,205.1,205.7,195,205.7z"/>
	<path fill="#B0BFC1" d="M169,326.2h-45.5c-5.8,0-10.6-4.7-10.6-10.6l0,0c0-5.8,4.7-10.6,10.6-10.6H169V326.2z"/>
	<path fill="#CCCCCC" d="M145.6,287.3H92.1c-2.5,0-4.5-2-4.5-4.5l-3.4-35.3c0-2.5,2-4.5,4.5-4.5h59.7c2.5,0,4.5,2,4.5,4.5l-2.8,35.3
		C150.1,285.3,148.1,287.3,145.6,287.3z"/>
	<path fill="#F4C6A4" d="M156.9,267.2c-0.7-1.9-3.7-3.2-5.6-3.4l-0.9,4.4c-1.4,0-4.2-0.6-4.7-0.9c-0.5-0.4-1.2,0.6-1.2,0.6
		c-0.1,0.6,0,1.1,0.2,1.7l2.6,7.3c0.2,0.5,0.8,0.8,1.3,0.6l10.3-4.4l1-0.8L156.9,267.2z"/>
	<path fill="#F4C6A4" d="M126.8,279.2h-12.1c-0.5,0-0.9,0.4-0.9,0.9v7.9c0,1,0.8,1.8,1.8,1.8h10.1c1,0,1.8-0.8,1.8-1.8V280
		C127.6,279.6,127.3,279.2,126.8,279.2z"/>
	<path fill="#9EEFAF" d="M215.1,243.7l1.5-46.5c0.1-3.6-2.7-6.7-6.4-6.8h0c-3.6-0.1-6.7,2.7-6.8,6.4l-1.5,46.5c0,0,0.9,1.4-4.2,3.6
		l-40.8,20.3l3.1,5.1l41.9-14.6C202,257.7,214.7,255.5,215.1,243.7z"/>
	<circle fill="#282828" cx="93.8" cy="282.1" r="1.6"/>
	<circle fill="#F4F4F4" cx="93.8" cy="278.1" r="1"/>
	<path fill="#FCD4B1" d="M137.7,292.6l-0.3,0.1c-0.4,0.1-0.8-0.1-0.9-0.4l-1-2.8l0.9-0.3c0.4-0.1,0.9,0.1,1,0.5l0.7,2
		C138.2,292.1,138,292.5,137.7,292.6z"/>
	<g id="tete_mere">
		<path fill="#FCD4B1" d="M215.8,124.1"/>
		<path fill="#FCD4B1" d="M215.8,124.1c0,17,1.6,41.1-15.5,53c-8.9,6.1-20.6,6.1-29-0.6c-14.7-11.7-14.1-35.2-14.1-51.7L215.8,124.1
			z"/>
		<polygon fill="#F4C6A4" points="179,164.3 187.9,164.3 183.8,167.7 		"/>
		<path fill="#C1974D" d="M215,159.7l-1.7,2.3c0,0,1.1-6.7,1.9-13.3c0-0.3-1.3,3.4-1.3,2.5c0-2.9-0.4-7.9-1.2-11.3
			c-0.7-3.4-2.8-10.1-3.8-12c-2.1,0.8-7.3,6-12.7,8.5c1.2-2.4,0-3-1.2-2.4c-2.2,1.2-10.5,5.7-17.5,7.3c-8.4,1.9-11.5,0.9-12.8,1.2
			c-3,3.6-3.7,18.9-0.1,28.6C108.3,92.5,249.4,73.3,215,159.7"/>
		<g>
			<path fill="#FCD4B1" d="M216,154.2c-0.3,1.6-1.3,4-2.6,3.6c-1.3-0.3-0.7-2.2-0.7-4.1c0-1-0.2-2.9,0.3-4.5
				c0.4-1.4,1.5-2.5,2.6-2.5C217.8,146.7,216.4,152.3,216,154.2"/>
			<path fill="#7C7A7A" d="M214.1,156.7c0,0.2-0.1,0.3-0.3,0.3c-0.2,0-0.3-0.1-0.3-0.3c0-0.2,0.1-0.3,0.3-0.3
				C213.9,156.4,214.1,156.5,214.1,156.7"/>
			<path fill="#9B9898" d="M215.1,155.7c0,0.2-0.1,0.3-0.3,0.3c-0.2,0-0.3-0.1-0.3-0.3s0.1-0.3,0.3-0.3
				C214.9,155.4,215.1,155.5,215.1,155.7"/>
		</g>
		<path fill="#1D0421" d="M187.9,141.2C187.9,141.2,187.9,141.2,187.9,141.2C187.8,141.2,187.8,141.2,187.9,141.2L187.9,141.2z"/>

		<g>
			<defs>
				<path id="IDSVG_1_" d="M215.8,124.1c0,17,1.6,41.1-15.5,53c-8.9,6.1-20.6,6.1-29-0.6c-14.7-11.7-14.1-35.2-14.1-51.7
					L215.8,124.1z"/>
			</defs>
			<clipPath id="IDSVG_2_">
				<use xlink:href="#IDSVG_1_"  overflow="visible"/>
			</clipPath>
			<path clip-path="url(#IDSVG_2_)" fill="#FDC99A" d="M177.2,168.9c0,3.1-2.5,5.6-5.6,5.6s-5.6-2.5-5.6-5.6c0-3.1,2.5-5.6,5.6-5.6
				S177.2,165.9,177.2,168.9"/>
			<path clip-path="url(#IDSVG_2_)" fill="#FDC99A" d="M204.7,168.9c0,3.1-2.5,5.6-5.6,5.6s-5.6-2.5-5.6-5.6c0-3.1,2.5-5.6,5.6-5.6
				S204.7,165.9,204.7,168.9"/>
		</g>

		<g>
			<path fill="#410B4C" d="M186.6,146.6c-0.7,0.3-1.4,0.2-2.1,0.2c-0.7,0-1.3,0.1-2-0.2c-10.5-4.3-24.3-1.4-24.3-1.4s0.3,2.5,0.4,3
				c0.9,0.4,1.8,1.7,1.8,1.7c1.3,1.2-2.1,10.8,9.6,11.6c11.9,0.4,11.5-10.1,13.7-11.9c0.4-0.2,0.8-0.2,1-0.1c0.1,0,0.5,0,0.9,0.1
				c2.1,1.8,1.8,12.2,13.7,11.9c11.7-0.8,8.4-10.4,9.6-11.6c0,0,0.9-1.3,1.8-1.7l3.5-0.7v-2l-3.1-0.3
				C210.9,145.2,197.1,142.3,186.6,146.6 M170.9,160.6c-7.5-0.2-9.5-5.8-8.7-11.3c0.4-2.8,4.3-3.8,8.4-3.8c4.3,0,8.9,0.9,9.5,3.8
				C180.7,154.5,178.6,159.9,170.9,160.6 M198.4,160.6c-7.7-0.6-9.7-6.1-9.2-11.3c0.5-2.9,5.2-3.7,9.5-3.8c4.1,0,8,1,8.4,3.8
				C207.9,154.8,205.9,160.4,198.4,160.6"/>
			<path fill="#CCC6C6" d="M162.2,146.6c0,0.2-0.6,0.5-1.3,0.6c-0.8,0.1-1.4-0.1-1.4-0.3c0-0.2,0.6-0.5,1.3-0.6
				C161.5,146.2,162.1,146.3,162.2,146.6"/>
			<path fill="#CCC6C6" d="M207.1,146.6c0,0.2,0.6,0.5,1.3,0.6c0.8,0.1,1.4-0.1,1.4-0.3c0-0.2-0.6-0.5-1.3-0.6
				C207.7,146.2,207.1,146.3,207.1,146.6"/>
		</g>
	</g>
</g>
<g id="fille1_depl">
	<path fill="#C1974D" d="M310.9,213.7c0,0-8.8-10-10.5-29.2c-1.7-19.2-0.8-30.9-0.8-30.9l-65.2-1.3c0,0,1.4,18.6,0,31.8
		c-1.4,13.3-9.6,27.8-9.6,27.8s7.3-5.4,8.1-6.6c0,0-1.1,6.2-2.9,8.4c0,0,14.7-3.7,19.7-7.6c0,0,34.9,1.5,38.1,0.3c0,0,4.7,7,8.6,9.6
		c0,0-1.4-1.1,0.9-5.8C297.1,210.2,303.8,213,310.9,213.7z"/>
	<path fill="#EF5D59" d="M209.7,300.4l-4-0.8c-2.2-0.4-3.6-2.5-3.2-4.7l1.7-8.5c0.4-2.2,2.5-3.6,4.7-3.2l4,0.8
		c2.2,0.4,3.6,2.5,3.2,4.7l-1.7,8.5C214,299.4,211.8,300.8,209.7,300.4z"/>
	<path fill="#EF5D59" d="M250,431.1h-0.7c-4.2,0-7.6-3.4-7.6-7.6v-10.3c0-4.2,3.4-7.6,7.6-7.6h0.7c4.2,0,7.6,3.4,7.6,7.6v10.3
		C257.6,427.7,254.2,431.1,250,431.1z"/>
	<path fill="#FCD4B1" d="M296.2,142.6"/>
	<path fill="none" stroke="#0C0C0C" stroke-width="0.25" stroke-miterlimit="10" d="M259.8,197.6
		C259.8,197.6,259.8,197.6,259.8,197.6"/>
	<path fill="none" stroke="#0C0C0C" stroke-width="0.25" stroke-miterlimit="10" d="M272.8,197.4
		C272.8,197.3,272.9,197.3,272.8,197.4"/>
	<path fill="#1D0421" d="M268.1,150.1C268.1,150.1,268.1,150.1,268.1,150.1c-0.1,0-0.1,0-0.1,0H268.1z"/>
	<rect x="258.6" y="189.1" fill="#F4C6A4" width="15.9" height="8.3"/>
	<g id="tete_fille1">
		<path fill="#FCD4B1" d="M296.2,142.6c0,18.5,1.9,37.8-20.3,46.6c-6.1,2.5-13,2.6-19.2,0.1c-20.4-8.2-19.6-27.8-19.6-46.1
			L296.2,142.6z"/>
		<polygon fill="#F4C6A4" points="261.6,175.8 270.5,175.8 266.4,179.2 		"/>
		<path fill="#FDC99A" d="M256.4,175.1c0,3.8-3.1,6.9-6.9,6.9c-3.8,0-6.9-3.1-6.9-6.9c0-3.8,3.1-6.9,6.9-6.9
			C253.4,168.2,256.4,171.3,256.4,175.1"/>
		<path fill="#FDC99A" d="M289.4,175.1c0,3.8-3.1,6.9-6.9,6.9s-6.9-3.1-6.9-6.9c0-3.8,3.1-6.9,6.9-6.9S289.4,171.3,289.4,175.1"/>
		<path fill="#C1974D" d="M235.1,174.4c10.5-7,18.5-27.9,18.5-27.9s14.6,15.6,46,19.6c-0.7-12.7,6.3-43.4-31.4-44.2
			C223.8,121,235.1,172.1,235.1,174.4z"/>
	</g>
	<polygon fill="#F4C6A4" points="281.3,225.5 254.4,224.8 247.4,198.1 258.2,193.3 274,193.3 283.4,197.5 	"/>
	<path fill="#D7DBDB" d="M274.8,325.4h-17.7c-12,0-21.7-9.7-21.7-21.7v-10.1h61.1v10.1C296.5,315.7,286.8,325.4,274.8,325.4z"/>
	<path fill="#EF7670" d="M283.4,197.5l14,6.7l-7.2,63.9c-0.5,4.6,0.1,9.3,1.9,13.5l5.3,12.8h-62.7l3.2-9c1.9-5.4,2.7-11.2,2.2-17
		l-5.4-64.2l13.3-6.3c0,0,3,24.3,18.8,23.5C282.6,220.6,283.4,197.5,283.4,197.5z"/>
	<path fill="#EDEDED" d="M217.3,301.2l3.4-13.8l71.8,11.9c4.1,1,6.3,6.2,5,11.6l-1.5,6c-1.3,5.4-5.7,8.9-9.8,7.9L217.3,301.2z"/>
	<path fill="#F4F4F4" d="M256.6,394.9h-14.2l-5.7-80.8c0-4.7,4.5-8.5,10-8.5h6.2c5.5,0,10,3.8,10,8.5L256.6,394.9z"/>
	<path fill="#F4C6A4" d="M252.4,422.3h-5.9c-2.2,0-4-1.9-3.8-4.1l1-12.9c0.1-1.1,0-2.3-0.1-3.4l-1.1-7h14.1l-1,7.1
		c-0.1,0.9-0.2,1.8-0.1,2.7l0.9,13.6C256.3,420.4,254.6,422.3,252.4,422.3z"/>
	<path fill="#F4C6A4" d="M209,299.1L209,299.1c0.7-0.1,1.4,0,2,0.2l6.7,2l3.1-13.8l-7-1.1c-0.6-0.1-1.1-0.3-1.6-0.5l-0.3-0.2
		c-0.3-0.2-0.8,0-0.8,0.4l-2.7,12.3C208.3,298.8,208.6,299.1,209,299.1z"/>
	<path fill="#EA6363" d="M208.9,283.2c-2.2-0.4-4.3,1-4.7,3.2l-1.7,8.5c-0.4,2.2,1,4.3,3.2,4.7c0,0,2.8-2.1,3.6-7.8
		S208.9,283.2,208.9,283.2z"/>
	<path fill="#F4C6A4" d="M294.9,257.4l-0.1-30.6l2.5-22c7.3,2.4,8.2,8.3,8.2,8.3l1.4,42.5"/>
	<path fill="#F4C6A4" d="M237,256.6l0-0.2l-0.3-31.5l-2-20.3c-7.3,2.4-8.6,8.4-8.6,8.4l-1.1,41.5"/>
	<radialGradient id="poit_fille_1_" cx="265.5402" cy="224.8622" r="31.0858" gradientUnits="userSpaceOnUse">
		<stop  offset="0" style="stop-color:#EF7670"/>
		<stop  offset="1" style="stop-color:#EF6E70"/>
	</radialGradient>
	<path id="poit_fille" fill="url(#poit_fille_1_)" d="M294.8,226.8c1.1,2.1,1.7,4.4,1.7,6.9c0,8.7-7.3,15.8-16.4,15.8
		c-6.7,0-12.4-3.9-15-9.4c-2.6,5.5-8.3,9.4-15,9.4c-9.1,0-16.4-7.1-16.4-15.8c0-3.3,1.3-6.3,3.1-8.8L294.8,226.8z"/>
	<g id="fleche2_depl">
		<rect x="261.1" y="277.9" fill="#2296DD" width="7.9" height="1.7"/>
		<rect x="261.1" y="276.2" fill="#2296DD" width="7.9" height="1.1"/>
		<rect x="261.1" y="275" fill="#2296DD" width="7.9" height="0.6"/>
		<rect x="261" y="280.2" fill="#2296DD" width="7.9" height="2.7"/>
		<polygon fill="#2296DD" points="271.3,283.5 265.6,289.5 259.9,283.5 		"/>
	</g>
	<g>
		<path fill="#282828" d="M270.2,291.1h-10c-1,0-1.9-0.5-1.9-1.2l-2.7-15.7c0-0.7,0.8-1.2,1.9-1.2h15.4c1,0,1.9,0.5,1.9,1.2
			l-2.7,15.7C272.1,290.6,271.3,291.1,270.2,291.1z"/>
		<path fill="#E0E0E0" d="M261.7,276.9h-2.5c-0.3,0-0.5-0.1-0.5-0.1l-0.7-1.7c0-0.1,0.2-0.1,0.5-0.1h3.9c0.3,0,0.5,0.1,0.5,0.1
			l-0.7,1.7C262.2,276.9,262,276.9,261.7,276.9z"/>
		<ellipse fill="#282828" cx="261.1" cy="276.1" rx="1.1" ry="0.7"/>
	</g>
	<path fill="#F4C6A4" d="M225,254.5c-1.3,8.6,2.8,10.9,2.8,10.9l21,21.9l1,0.8l10.3,4.6c0.5,0.2,1.1-0.1,1.3-0.6l2.8-7.2
		c0.2-0.6,0.3-1.2,0.2-1.7c0,0-0.6-1-1.1-0.7c-0.5,0.3-4.5,0.8-6,0.7l-0.8-4.4c-1.9,0.2-3.7,1.5-4.4,3.4l-0.1,0.1L237,256.6"/>
	<path fill="#F4C6A4" d="M306.9,255.5c1.3,8.6-2.8,10.9-2.8,10.9l-21.2,20.9l-1,0.8l-10.3,4.6c-0.5,0.2-1.1-0.1-1.3-0.6l-2.8-7.2
		c-0.2-0.6-0.3-1.2-0.2-1.7c0,0,0.6-1,1.1-0.7c0.5,0.3,3.3,0.9,4.7,0.8l0.8-4.4c1.9,0.2,4.9,1.4,5.7,3.3l0.1,0.1l15.2-24.8l0-0.2"/>
	<path fill="#F6FF71" d="M249.8,288.4c-0.1,0-0.2-0.1-0.2-0.2c-0.6-4.7,2.3-6,2.4-6.1c0.1-0.1,0.3,0,0.3,0.1c0.1,0.1,0,0.3-0.1,0.3
		c-0.1,0-2.6,1.2-2.1,5.6C250.1,288.2,250,288.3,249.8,288.4C249.8,288.4,249.8,288.4,249.8,288.4z"/>
</g>
<g id="pere_depl">
	<g>
		<path fill="#66BED3" d="M377.7,434.5h-28.9l2.4-7.6c0-2.1,1.7-3.8,3.8-3.8h16.3c2.1,0,3.8,1.7,3.8,3.8L377.7,434.5z"/>
		<path fill="#E0E0E0" d="M372.6,429.1h-19.5l-0.7-3.9c0-0.2-0.1-0.5-0.1-0.7v-9.1h21.2v9.2c0,0.3,0,0.6-0.1,0.8L372.6,429.1z"/>
		<path fill="#7CCCE5" d="M377.7,434.6C377.7,434.6,377.8,434.7,377.7,434.6C377.8,434.7,377.7,434.7,377.7,434.6
			c-0.2-5.9-6.6-10.6-14.5-10.6c-7.9,0-14.3,4.8-14.5,10.7c0,0,0,0.1,0,0.1c0,0,0-0.2,0-0.2c0,0,0-0.1,0-0.1h0
			c0.4,3,6.7,3.6,14.4,3.6c7.8,0,14.1-0.6,14.4-3.6h0C377.8,434.5,377.7,434.7,377.7,434.6z"/>
	</g>
	<g>
		<path fill="#66BED3" d="M417.7,434.5h-28.9l2.4-7.6c0-2.1,1.7-3.8,3.8-3.8h16.3c2.1,0,3.8,1.7,3.8,3.8L417.7,434.5z"/>
		<path fill="#E0E0E0" d="M412.6,429.1h-19.5l-0.7-3.9c0-0.2-0.1-0.5-0.1-0.7v-9.1h21.2v9.2c0,0.3,0,0.6-0.1,0.8L412.6,429.1z"/>
		<path fill="#7CCCE5" d="M417.7,434.6C417.7,434.6,417.8,434.7,417.7,434.6C417.8,434.7,417.7,434.7,417.7,434.6
			c-0.2-5.9-6.6-10.6-14.5-10.6c-7.9,0-14.3,4.8-14.5,10.7c0,0,0,0.1,0,0.1c0,0,0-0.2,0-0.2c0,0,0-0.1,0-0.1h0
			c0.4,3,6.7,3.6,14.4,3.6c7.8,0,14.1-0.6,14.4-3.6h0C417.8,434.5,417.7,434.7,417.7,434.6z"/>
	</g>
	<path fill="#8BD7E8" d="M436.8,251.3L436.8,251.3c-5.5,2.2-11.7-0.5-14-5.9L403,196c-2.2-5.5,0.5-11.7,5.9-14h0
		c5.5-2.2,11.7,0.5,14,5.9l19.9,49.4C445,242.9,442.3,249.1,436.8,251.3z"/>
	<path fill="#8BD7E8" d="M317.6,246.5L317.6,246.5c-5.1-3.1-6.6-9.7-3.5-14.8l27.8-45.4c3.1-5.1,9.7-6.6,14.8-3.5l0,0
		c5.1,3.1,6.6,9.7,3.5,14.8L332.4,243C329.3,248.1,322.7,249.6,317.6,246.5z"/>
	<path fill="#939D9E" d="M410.2,324.7h-53.6c-5.9,0-10.8-4.8-10.8-10.8v-17.1h75.2v17.1C420.9,319.8,416.1,324.7,410.2,324.7z"/>
	<rect x="375.8" y="158.4" fill="#F4C6A4" width="15.3" height="30.8"/>
	<g id="tete-pere">
		<path fill="#FCD4B1" d="M352.7,145.2c0.5,1.6,1.8,3.8,3.1,3.3c1.3-0.5,0.4-2.3,0.2-4.2c-0.2-1.9-0.1-6.5-2.4-6.2
			C351.2,138.3,352.1,143.3,352.7,145.2"/>
		<g>
			<path fill="#FCD4B1" d="M405.9,115.9c5.9,0.1,10.4,5.4,9.6,11.2c-2.9,20.1-11.9,43.2-32.7,43.2c-20.9,0-29.1-24-31.7-44.3
				c-0.7-6,4-11.2,10-11.1L405.9,115.9z"/>
		</g>
		<polygon fill="#F4C6A4" points="378,155.5 386.9,155.5 382.8,159 		"/>
		<path fill="#FCD4B1" d="M413.8,145.2c-0.5,1.6-1.8,3.8-3.1,3.3c-1.3-0.5-0.4-2.3-0.2-4.2c0.2-1.9,0.1-6.5,2.4-6.2
			C415.3,138.3,414.4,143.3,413.8,145.2"/>
		<path fill="#1D0421" d="M384.5,128.4C384.5,128.4,384.5,128.3,384.5,128.4c-0.1,0-0.1,0-0.1,0H384.5z"/>
		<path fill="#1C1611" d="M353,137.5c0,0,1.2,1,1.2-0.5c-0.1-8.5-1.1-18.2,8.6-16.1c11.4,2.4,11.9,1.7,19.8,1.6
			c7.9-0.1,11.4,0,21.1-1.6c9-1.5,8.1,11.8,8.1,16.8c0,0.4,1.5-0.1,1.5-0.1s17.4-46.9-30.9-46C335.6,92.6,353,137.5,353,137.5z"/>
		<path fill="#1C1611" d="M390.6,93.4c0,0-10.3-4.4-11.3-3.4c0.7,0.1,2.6,0.6,2.9,1.2c-0.9,0.1-6.6-0.9-9.7,0.1
			c1.9,0.2,3.1,0.9,3.1,0.9s-5.1,0.8-7.9,2.6c0,0,0.8-0.1,1.5-0.1c0.1,0.3-0.6,0.8-0.6,0.8L390.6,93.4z"/>
		<g>
			<g>
				<path fill="#020202" d="M375.8,137.2c-4.8-0.6-17.9-0.4-18.3,0c-0.4,0.4-2.6,0.8-2.6,0.8v3.3c0,0,1.5,1.1,1.8,3.3
					c0.6,5.4,4.2,5,4.2,5c1,0.3,13.1,0.2,14.1,0c3.4-0.1,4.7-4.2,4.8-4.7s0.2-1.4,0.5-2.7c0.4-1.3,2.7-1,2.7-1s0-1.4,0-2.5
					C379.4,138.6,380.5,137.8,375.8,137.2z M379.1,143.8c-0.3,5.5-4.8,5.1-5.6,5.2c-0.8,0.1-10.1,0.1-10.5,0c-0.4-0.1-5.9,0.8-6-6
					c0,0,0,0,0,0c0,0,0,0,0,0c0-0.1,0-0.4,0-2.8c0-3.1,3-2.6,3.8-2.6c0.7,0,13.6,0.2,13.6,0.2s4.7-0.2,4.7,2.6L379.1,143.8z"/>
			</g>
			<g>
				<path fill="#020202" d="M383,138.7c0,1,0,2.5,0,2.5s2.3-0.3,2.7,1c0.4,1.3,0.4,2.2,0.5,2.7c0.1,0.5,1.4,4.6,4.8,4.7
					c1,0.2,13.1,0.3,14.1,0c0,0,3.6,0.3,4.2-5c0.4-2.2,1.8-3.3,1.8-3.3V138c0,0-2.1-0.4-2.6-0.8s-13.5-0.6-18.3,0
					S386.7,138.6,383,138.7z M386.9,140.4c0-2.8,4.7-2.6,4.7-2.6s12.8-0.2,13.6-0.2c0.7,0,3.8-0.5,3.8,2.6c0,2.4,0,2.8,0,2.8
					c0,0,0,0,0,0c0,0,0,0,0,0c-0.1,6.7-5.6,5.9-6,6c-0.4,0.1-9.7,0.1-10.5,0c-0.8-0.1-5.3,0.3-5.6-5.2L386.9,140.4z"/>
			</g>
		</g>
		<path fill="#1C1611" d="M386.9,91.9c0,0-0.3-0.8-1.8-1.7c1.7,0.4,4.4,1.5,4.4,1.5s-0.4-0.4-0.9-0.8c2,0.4,3.2,1.4,3.2,1.4
			s0.1-0.7-0.1-0.9c0.9,0.2,3.7,2.3,3.7,2.3l-8.4-0.2L386.9,91.9z"/>
	</g>
	<path fill="#7CCCE5" d="M420.9,278.9H346l2.6-29.6l-3.2-63.2c0-2.3,1.4-4.3,3.5-5.1l27-10.3l6.2,10.2l1.3,5.6l1.3-5.6l6.3-10.2
		l25.8,10.2c2.1,0.8,3.4,2.8,3.5,5.1l-2,67.1L420.9,278.9z"/>
	<polygon fill="#A2E1F9" points="382.1,180.9 375.9,170.7 368.9,172.1 379,183.4 	"/>
	<polygon fill="#A2E1F9" points="384.4,180.9 390.6,170.7 397.6,172.1 387.5,183.4 	"/>
	<polygon fill="#A2E1F9" points="383.5,276.9 383,276.9 382.9,184 383.5,186.5 	"/>
	<path fill="#B0BFC1" d="M376.1,419.9H350l-4.2-109.4c0-7.6,6.1-13.7,13.7-13.7h7.2c7.6,0,13.7,6.1,13.7,13.7L376.1,419.9z"/>
	<path fill="#B0BFC1" d="M415.8,419.9h-26.1l-4.2-109.4c0-7.6,6.1-13.7,13.7-13.7h7.2c7.6,0,13.7,6.1,13.7,13.7L415.8,419.9z"/>
	<path fill="#8BD7E8" d="M439.4,233L439.4,233c4.6,3.7,5.4,10.5,1.7,15.1l-16.4,20.5c-3.7,4.6-10.5,5.4-15.1,1.7l0,0
		c-4.6-3.7-5.4-10.5-1.7-15.1l16.4-20.5C428,230.1,434.8,229.3,439.4,233z"/>
	<ellipse fill="#FF3641" cx="301.6" cy="317.1" rx="5.9" ry="10.7"/>
</g>
<g id="fille2_depl">
	<ellipse fill="#E6F0F4" cx="301.6" cy="317.1" rx="5.9" ry="10.7"/>

		<rect x="327.2" y="227.2" transform="matrix(0.9705 0.2412 -0.2412 0.9705 66.5649 -73.6118)" fill="#F4C6A4" width="13.3" height="15.7"/>
	<g id="tete_fille2">
		<path d="M320.4,194.9c0,0-6.7,7.8-7.1,16.2c-0.4,7.4,0.6,14.8-3.3,20.3c16.8,3.2,44.8,3.3,54.1-1.3c-4.6-3.4-0.9-15.4-1.4-23.9
			c-0.4-5.4-3.8-7.2-3.8-7.2L320.4,194.9z"/>
		<path fill="#FCD4B1" d="M358.1,200.5c0,14.4-3.8,36.2-20.6,36.2c-15.5,0-19.7-18.1-20.2-32.2c0,0,21.9-11.8,24.4-11.4
			C344.3,193.4,358.1,200.5,358.1,200.5z"/>
		<polygon fill="#F4C6A4" points="338.7,224.7 344.9,224.7 342,227.1 		"/>
		<path fill="#FDC99A" d="M336.1,225.9c0,2.6-2.1,4.8-4.8,4.8s-4.8-2.1-4.8-4.8c0-2.6,2.1-4.8,4.8-4.8S336.1,223.3,336.1,225.9"/>
		<path fill="#1D0421" d="M338.7,208C338.7,208,338.7,208,338.7,208C338.7,208,338.6,208,338.7,208L338.7,208z"/>
		<path d="M346.9,200.6c-8,8.5-30.7,15-30.7,15s-4.2-29.2,22.8-29.2c26.7,0,23.6,27.9,23.6,27.9S353.8,208.5,346.9,200.6z"/>
		<g id="mask_fille">
			<defs>
				<path id="IDSVG_3_" d="M358.1,200.5c0,14.4-3.8,36.2-20.6,36.2c-15.5,0-19.7-18.1-20.2-32.2c0,0,21.9-11.8,24.4-11.4
					C344.3,193.4,358.1,200.5,358.1,200.5z"/>
			</defs>
			<clipPath id="IDSVG_4_">
				<use xlink:href="#IDSVG_3_"  overflow="visible"/>
			</clipPath>
			<path clip-path="url(#IDSVG_4_)" fill="#FDC99A" d="M357.7,226.9c0,2.6-2.1,4.8-4.8,4.8c-2.6,0-4.8-2.1-4.8-4.8
				c0-2.6,2.1-4.8,4.8-4.8C355.6,222.1,357.7,224.2,357.7,226.9"/>
		</g>
	</g>
	<path fill="#E6F0F4" d="M338.5,297.4l-34.6-7.5l4.6-12.5c0.6-1.6,1-3.2,1.3-4.9l5.3-32.4l11.3-2.4l4.7,3.9c1.7,1.4,4.3,1.6,6.2,0.4
		l2.3-1.5l9.1,5.2l-8.5,37.1L338.5,297.4z"/>
	<path fill="#7E7684" d="M345.3,243.8l-3.6-2.1l-4.1,28c-11.6,0.8-19.7-4-19.7-4l5.5-27.6l-4.5,0.9l-4.1,25.7c-1.8-0.3-3.7-1-3.7-1
		l-1.3,8.7c-0.3,1.7-0.7,3.3-1.3,4.9l-4.5,12.3h0l0,0l-0.1,0.2l0,0l-6.1,28.7c-1.2,5.7,2.1,11.1,7.3,12.2c4.2,0.9,8.3-1.3,10.4-5.1
		c1.3,2.3,3.6,4.1,6.4,4.6c5.2,1.1,10.3-2.3,11.4-7.5l5.7-27.7l-0.3-0.1l1.2-12.3l2.8-12.3l-1.7,0.1L345.3,243.8z"/>
	<path fill="#88828E" d="M325.8,299.3l-6.5-1.5c-2.8-0.6-4.6-3.4-3.9-6.2l2.1-9.2l16.7,3.7l-2.1,9.2
		C331.4,298.1,328.6,299.9,325.8,299.3z"/>
	<circle fill="#997A55" cx="316.3" cy="267.8" r="1.1"/>
	<circle fill="#997A55" cx="318.4" cy="284.5" r="0.8"/>
	<circle fill="#997A55" cx="332" cy="287.6" r="0.8"/>
	<circle fill="#997A55" cx="339.3" cy="272" r="1.1"/>
	<g>

			<rect x="307.9" y="278.8" transform="matrix(0.7034 0.7108 -0.7108 0.7034 297.7447 -138.0843)" fill="#B1BEC9" width="12.9" height="17.9"/>

			<rect x="319" y="272.9" transform="matrix(0.7034 0.7108 -0.7108 0.7034 293.7164 -148.0306)" fill="#B1BEC9" width="10.4" height="10"/>

			<rect x="320.3" y="274.1" transform="matrix(0.7034 0.7108 -0.7108 0.7034 293.7164 -148.0306)" fill="#676F82" width="7.9" height="7.6"/>

			<rect x="297.6" y="289" transform="matrix(0.7034 0.7108 -0.7108 0.7034 299.6023 -125.3887)" fill="#B1BEC9" width="4.8" height="14.6"/>

			<rect x="303.2" y="294.6" transform="matrix(0.7034 0.7108 -0.7108 0.7034 305.245 -127.674)" fill="#B1BEC9" width="4.8" height="14.6"/>

			<rect x="292" y="301.3" transform="matrix(0.7034 0.7108 -0.7108 0.7034 301.8806 -119.7635)" fill="#B6D3E0" width="4.8" height="1.1"/>

			<rect x="297.6" y="306.9" transform="matrix(0.7034 0.7108 -0.7108 0.7034 307.5233 -122.0488)" fill="#B6D3E0" width="4.8" height="1.1"/>

			<rect x="312.6" y="275.3" transform="matrix(-0.7034 -0.7108 0.7108 -0.7034 337.6502 695.265)" fill="#B6D3E0" width="2.7" height="3.7"/>

			<rect x="323.4" y="286.3" transform="matrix(-0.7034 -0.7108 0.7108 -0.7034 348.3729 721.7403)" fill="#B6D3E0" width="2.7" height="3.7"/>

			<rect x="306.9" y="276.4" transform="matrix(0.7034 0.7108 -0.7108 0.7034 292.2885 -135.061)" fill="#B1BEC9" width="2.2" height="12.5"/>

			<rect x="318.1" y="287.8" transform="matrix(0.7034 0.7108 -0.7108 0.7034 303.6567 -139.6651)" fill="#B1BEC9" width="2.2" height="12.5"/>

			<rect x="309.2" y="286.1" transform="matrix(0.7034 0.7108 -0.7108 0.7034 298.0893 -136.7922)" fill="#676F82" width="7.5" height="5.3"/>

			<rect x="319.6" y="278.8" transform="matrix(0.7034 0.7108 -0.7108 0.7034 294.3404 -146.4901)" fill="#B6D3E0" width="6.2" height="1.3"/>
		<circle fill="#B6D3E0" cx="324.3" cy="275.1" r="1.2"/>
		<circle fill="#B6D3E0" cx="326.9" cy="277.8" r="1.2"/>

			<rect x="329.7" y="269" transform="matrix(0.7034 0.7108 -0.7108 0.7034 291.3522 -153.8682)" fill="#6B6B6B" width="0.7" height="6.4"/>
	</g>
	<g>
		<polygon fill="#FCD4B1" points="309.4,273.8 313.9,247.8 307,246.6 302.2,274.2 302.3,274.2 302.2,274.2 308.9,296.5 315.6,294.5
					"/>
		<path fill="#FCD4B1" d="M317.5,302l-6,1.8c-0.7,0.2-1.4-0.2-1.6-0.9l-1-4.5c-0.2-0.7-0.4-2,0.3-2.2l6-1.8c0.7-0.2,1.4,0.2,1.6,0.9
			l1.5,5.1C318.6,301.1,318.2,301.8,317.5,302z"/>
		<ellipse fill="#FCD4B1" cx="316.8" cy="295.8" rx="1.4" ry="1.3"/>
	</g>
	<path fill="#E6F0F4" d="M306.4,246.4l8.6-6.3l-1.2,10.4l-7.2-3C306.1,247.3,306,246.7,306.4,246.4z"/>
	<g id="fleche3_depl">
		<rect x="375.6" y="257.9" fill="#2296DD" width="15.1" height="3.3"/>
		<rect x="375.6" y="254.7" fill="#2296DD" width="15.1" height="2.1"/>
		<rect x="375.6" y="252.5" fill="#2296DD" width="15.1" height="1.1"/>
		<rect x="375.5" y="262.4" fill="#2296DD" width="15.1" height="5.1"/>
		<polygon fill="#2296DD" points="394.3,268.5 383.5,280 372.6,268.5 		"/>
	</g>
	<path fill="#434444" d="M424.5,296.8h-82.1c-3.4,0-6.1-2.7-6.1-6.1l-4.9-45.9c0-3.4,2.7-6.1,6.1-6.1h92.1c3.4,0,6.1,2.7,6.1,6.1
		l-5,45.9C430.6,294.1,427.9,296.8,424.5,296.8z"/>
	<path id="psm_logo_ordi_depl" opacity="0.3" fill="#FFFFFF" d="M373.9,261c-1.1,0-2,0.4-2.7,1.1c-0.8,0.8-1.1,1.7-1.1,2.7
		l0,9.7l1.9,0l0-9.7c0-0.5,0.2-1,0.6-1.4c0.4-0.4,0.8-0.6,1.4-0.6c0.5,0,1,0.2,1.4,0.6c0.4,0.4,0.6,0.8,0.6,1.4l0,1.9
		c0,0.5-0.2,1-0.6,1.4c-0.4,0.4-0.8,0.6-1.4,0.6l0,1.9c1.1,0,2-0.4,2.7-1.1c0.8-0.8,1.1-1.7,1.1-2.7l0-1.9c0-1.1-0.4-2-1.1-2.7
		C375.8,261.4,374.9,261,373.9,261z M382.6,262.9c-0.5,0-1-0.2-1.4-0.6c-0.4-0.4-0.6-0.8-0.6-1.4l-1.9,0c0,1.1,0.4,2,1.1,2.7
		c0.8,0.8,1.7,1.1,2.7,1.1c0.5,0,1,0.2,1.4,0.6c0.4,0.4,0.6,0.8,0.6,1.4c0,0.5-0.2,1-0.6,1.4c-0.4,0.4-0.8,0.6-1.4,0.6
		c-0.5,0-1-0.2-1.4-0.6c-0.4-0.4-0.6-0.8-0.6-1.4l-1.9,0c0,1.1,0.4,2,1.1,2.7c0.8,0.8,1.7,1.1,2.7,1.1c1.1,0,2-0.4,2.7-1.1
		c0.8-0.8,1.1-1.7,1.1-2.7c0-1.1-0.4-2-1.1-2.7C384.5,263.3,383.6,262.9,382.6,262.9z M395.8,262.1c-0.8-0.8-1.7-1.1-2.7-1.1l0,1.9
		c0.5,0,1,0.2,1.4,0.6c0.4,0.4,0.6,0.8,0.6,1.4l0,5.8l1.9,0l0-5.8C396.9,263.8,396.6,262.9,395.8,262.1z M389.2,261l-1.9,0l0,9.7
		l1.9,0l0-7.7c0.5,0,1,0.2,1.4,0.6c0.4,0.4,0.6,0.8,0.6,1.4l0,5.8l1.9,0l0-5.8c0-1.1-0.4-2-1.1-2.7C391.2,261.4,390.3,261,389.2,261
		z"/>
</g>
<g id="tetes_levees_depl">

		<g>
			<defs>
				<rect id="masque_bouche_pere" x="371" y="162.3" width="24.7" height="5.4"/>
				<clipPath id="IDSVG_6_">
				<use xlink:href="#masque_bouche_pere"  overflow="visible"/>
				</clipPath>
			</defs>
			<g clip-path="url(#IDSVG_6_)">
				<path id="bouche-pere_depl"  fill="#DD8773" d="M395.7,157L395.7,157c-0.1,0.1-0.1,0.1-0.2,0.2
			c-7.5,6.9-16.8,6.9-24.3,0c-0.1-0.1-0.1-0.1-0.2-0.2l0,0"/>
			</g>
		</g>


		<g>
			<defs>
				<rect id="IDSVG_7_" x="174.9" y="172.1" width="22.4" height="4.9"/>
				<clipPath id="IDSVG_8_">
					<use xlink:href="#IDSVG_7_"  overflow="visible"/>
				</clipPath>
			</defs>
			<g clip-path="url(#IDSVG_8_)">
				<path id="bouche-mere_depl"  fill="#ED8B6E" d="M197.3,166.7L197.3,166.7
			c-0.1,0.1-0.1,0.1-0.2,0.2c-6.8,6.3-15.3,6.3-22.1,0c-0.1,0-0.1-0.1-0.2-0.2v0c0,0,6.3,0.3,11.2,0.3c4.9,0,10.9-0.3,10.9-0.3
			H197.3z"/>
			</g>
		</g>


		<g>
			<defs>
				<rect id="IDSVG_9_" x="334.4" y="229.5" width="15.2" height="5.3"/>
				<clipPath id="IDSVG_10_">
					<use xlink:href="#IDSVG_9_"  overflow="visible"/>
				</clipPath>
			</defs>
			<g clip-path="url(#IDSVG_10_)">
				<path id="bouche-fille2_depl" fill="#ED8B6E" d="M349.6,224.3L349.6,224.3
			c0,0.1-0.1,0.1-0.1,0.2c-4.6,6.8-10.4,6.8-15,0c0-0.1-0.1-0.1-0.1-0.2v0c0,0,4.3,0.4,7.6,0.4c3.3,0,7.4-0.4,7.4-0.4H349.6z"/>
			</g>
		</g>


		<g>
			<defs>
				<rect id="IDSVG_11_" x="109.4" y="185.1" width="18.2" height="3.9"/>
				<clipPath id="IDSVG_12_">
					<use xlink:href="#IDSVG_11_"  overflow="visible"/>
				</clipPath>
			</defs>
			<g clip-path="url(#IDSVG_12_)">
				<path id="bouche-fils_depl" fill="#C97865" d="M127.6,181.1L127.6,181.1c0,0-0.1,0.1-0.1,0.1
			c-5.5,5.1-12.4,5.1-17.9,0c0,0-0.1-0.1-0.1-0.1l0,0c0,0,5.1,0.3,9.1,0.3c4,0,8.9-0.3,8.9-0.3H127.6z"/>
			</g>
		</g>


		<g>
			<defs>
				<rect id="IDSVG_13_" x="253.5" y="181.3" width="26.5" height="5.7"/>
				<clipPath id="IDSVG_14_">
					<use xlink:href="#IDSVG_13_"  overflow="visible"/>
				</clipPath>
			</defs>
			<g clip-path="url(#IDSVG_14_)">
				<path id="bouche-fille1_depl" fill="#ED8B6E" d="M280,174.8L280,174.8
			c-0.1,0.1-0.1,0.1-0.2,0.2c-8,7.4-18.1,7.4-26.1,0c-0.1-0.1-0.1-0.1-0.2-0.2l0,0c0,0,7.5,0.4,13.2,0.4c5.8,0,12.9-0.4,12.9-0.4
			H280z"/>
			</g>
		</g>


</g>
</svg>
