<svg version="1.1" xmlns="http://www.w3.org/2000/svg" xmlns:xlink="http://www.w3.org/1999/xlink" x="0px" y="0px"
	 viewBox="0 0 481.5 523" enable-background="new 0 0 481.5 523" xml:space="preserve">
<g id="chaise_x5F_idee">
	<polygon fill="#3A3A3A" points="316.3,386.2 263.4,386.2 228,348.1 351.8,348.1 	"/>
	<path fill="#282828" d="M353,338.8H226.7l-10.4-203.5c-0.5-10.5,7.8-19.2,18.3-19.2h110.6c10.5,0,18.8,8.8,18.3,19.2L353,338.8z"/>

		<rect x="193.2" y="261.3" transform="matrix(0.98 -0.1989 0.1989 0.98 -55.8968 45.6752)" fill="#3A3A3A" width="12.4" height="79.5"/>

		<rect x="372.2" y="261.3" transform="matrix(-0.98 -0.1989 0.1989 -0.98 689.2591 671.3407)" fill="#3A3A3A" width="12.4" height="79.5"/>
	<path fill="#1C1C1C" d="M290.3,488.5L290.3,488.5c-2,0-3.5-1.6-3.5-3.5v-13.4c0-2,1.6-3.5,3.5-3.5l0,0c2,0,3.5,1.6,3.5,3.5V485
		C293.8,487,292.2,488.5,290.3,488.5z"/>
	<polygon fill="#2D2D2D" points="297.9,470.5 282.6,470.5 285.1,453.9 294.9,453.9 	"/>
	<path fill="#1C1C1C" d="M229.8,488.6L229.8,488.6c-7,0-12.7-5.7-12.7-12.7v0c0-7,5.7-12.7,12.7-12.7h0c7,0,12.7,5.7,12.7,12.7v0
		C242.5,482.9,236.8,488.6,229.8,488.6z"/>
	<circle fill="#3A3A3A" cx="229.8" cy="475.9" r="8"/>
	<polygon fill="#1C1C1C" points="232.5,477.5 227.4,478.4 223,464.1 231.8,462.7 	"/>
	<path fill="#1C1C1C" d="M351.8,488.6L351.8,488.6c-7,0-12.7-5.7-12.7-12.7v0c0-7,5.7-12.7,12.7-12.7h0c7,0,12.7,5.7,12.7,12.7v0
		C364.5,482.9,358.8,488.6,351.8,488.6z"/>
	<circle fill="#3A3A3A" cx="351.8" cy="475.9" r="8"/>
	<polygon fill="#1C1C1C" points="354.3,478.3 349.2,477.8 348.7,462.8 357.6,463.8 	"/>
	<path fill="#282828" d="M373.3,351.5H206.5c-4.1,0-7.5-3.3-7.5-7.5v-2.5c0-4.1,3.3-7.5,7.5-7.5h166.8c4.1,0,7.5,3.3,7.5,7.5v2.5
		C380.7,348.2,377.4,351.5,373.3,351.5z"/>
	<polygon fill="#3A3A3A" points="297.9,450.6 282.6,450.6 282.6,385.2 297.9,385.2 297.9,449.4 	"/>
	<path fill="#3A3A3A" d="M364.4,467l-65.2-6.3h-17.9l-65.1,6.6v-5.4c0-3.3,2.9-6,6.9-6.4l57.9-5.9h18.6l57.9,5.6
		c3.9,0.4,6.9,3.1,6.9,6.4V467z"/>
</g>
<g id="jambes_x5F_idee">
	<path fill="#627277" d="M333,341.8h-97.8c-7.2,0-13.1-5.9-13.1-13.1v-19.4c0-7.2,5.9-13.1,13.1-13.1H333c7.2,0,13.1,5.9,13.1,13.1
		v19.4C346.1,335.9,340.2,341.8,333,341.8z"/>

		<rect x="256.5" y="454.9" transform="matrix(-0.9927 0.1204 -0.1204 -0.9927 587.5918 889.9955)" fill="#353535" width="20.8" height="15.6"/>

		<rect x="304.5" y="456.9" transform="matrix(-0.9964 -8.488124e-02 8.488124e-02 -0.9964 589.2884 954.5737)" fill="#353535" width="20.8" height="15.6"/>
	<path fill="#829399" d="M280.1,461.7l-26.3,1.1l-33-123.4c-1.6-7.4,4.7-14.8,13.8-16.4l10.1-1.7c9.1-1.6,17.5,3.3,18.5,10.8
		L280.1,461.7z"/>
	<path fill="#829399" d="M335.3,468.2l-33.6-1.8L304,332c0.1-7.9,7.9-14,17.1-13.5l10.2,0.5c9.2,0.5,16.3,7.4,15.6,15.3L335.3,468.2
		z"/>
	<g>
		<path fill="#13344C" d="M323.7,465.2l-9.9-0.4c-8.8-0.4-16.3,6.8-16.8,16l0.7,6.5l39.9,1.5l1.4-6.1
			C339.3,473.4,332.5,465.6,323.7,465.2z"/>
		<path fill="#D6D7D8" d="M323.5,471.4l-9.8-0.4c-8.8-0.4-15.2,5.5-15.5,12.8l-0.2,4.9l39.5,1.5l0.2-4.9
			C338,478,332.2,471.8,323.5,471.4z"/>
		<path fill="#F2F3F4" d="M308,466.8"/>
		<path fill="#13344C" d="M327.9,466.8l-18.1-1.1l0.1-1.4c0.1-1.5,1.4-2.7,2.9-2.6l12.6,0.8c1.5,0.1,2.7,1.4,2.6,2.9L327.9,466.8z"
			/>
		<path fill="#F2F3F4" d="M328.6,472l0.1-2.5c0.1-1.8-2.1-3.4-2.9-3.5l-13.7-0.8c-0.8,0-3.3,1.3-3.4,3.1l-0.1,2.5
			C308.5,470.8,319.5,467.9,328.6,472z"/>
		<polygon fill="#656666" points="337.7,488.8 297.9,487.1 297.8,488.6 337.7,490.3 		"/>
	</g>
	<g>
		<path fill="#13344C" d="M281.4,467.1c1.4,3.7,3.5,10.9,3,20.9l-75.1,2.5c0,0,3.4-16.3,9.8-17.8s15-4,17.3-4.1s8.8-4.2,9.2-5.9
			c0.3-1.7-1-3.7,0.7-5.2l0,0c0.7-0.6,1.8-0.2,1.9,0.8l0.1,1.6c0.1,1.8,0,4.2,1.8,4.2l11.1-1.4c1.7-0.1,6.8,4.5,16.3,2.5
			C279.2,464.7,280.8,465.6,281.4,467.1z"/>
		<path fill="#D6D7D8" d="M231.1,489.5l-22.8,0.7c0,0,3.4-16.3,9.8-17.8c1.9-0.5,4-1,6-1.5C224.2,470.9,230.5,475.2,231.1,489.5z"/>
		<path fill="#656666" d="M283.9,489.2l-75.1,1.9c-0.5,0-0.9-0.4-1-0.9l0,0c0-0.5,0.4-0.9,0.9-1l75.1-1.9c0.5,0,0.9,0.4,1,0.9l0,0
			C284.8,488.7,284.4,489.2,283.9,489.2z"/>
		<path fill="#F2F3F4" d="M245.6,462.6c-0.3,1.7-6.8,5.9-9.2,5.9c-1.6,0.1-6.1,1.2-10.8,2.4l4.6,0.8c0,0,11-1,12.4-2
			c1.3-1,3.5-4.3,3.5-4.3L245.6,462.6z"/>
		<path fill="#F2F3F4" d="M257.4,462.9l2.1-0.3c0,0,14,11,17.8,24.8l-3.3,0.1C274,487.5,273.9,479.2,257.4,462.9z"/>
	</g>
</g>
<g id="corps_x5F_idee">
	<path fill="#5B93FF" d="M325,318.4l-65.7,0.5l-21.4-149.6c-0.5-6.2,4.1-11.6,10.2-12l33.1-8.6h17.8l38.4,4.9
		c6.6-0.4,11.9,5.4,11.2,12.2L325,318.4z"/>
	<polyline opacity="5.000000e-02" points="344,195.6 325,318.4 259.3,319 248.8,246 343.3,196 	"/>
	<path fill="#5B93FF" d="M344.4,193.2"/>
</g>
<g id="bras_gauche_idee">
	<g id="arriere-bras_gauche_idee">
		<path fill="#E8CBC1" d="M382.1,243.3L382.1,243.3c5.7-2.8,8-9.8,5.2-15.5L365,182.9l-20.7,10.3l22.3,44.9
			C369.5,243.8,376.4,246.1,382.1,243.3z"/>
		<path fill="#5B93FF" d="M336.9,155.6L336.9,155.6c7-3.7,15.7-1,19.4,6l11.4,21.6l-25.4,13.4L330.8,175
			C327.1,168,329.8,159.3,336.9,155.6z"/>
	</g>
	<g id="avant-bras_gauche_idee">
		<g>
			<path fill="#F9D7C7" d="M388.9,231.2l-0.8-2.4c-1.3-4.1-9.5-10.4-14.3-9.1l-78.1,27l5.5,11.9l80.9-12.7
				C387,244.7,390.2,235.3,388.9,231.2z"/>
			<g>
				<path fill="#F9D7C7" d="M299.9,249.6l0.5,1.1c3.3,7.6-0.2,16.4-7.8,19.6l-3.4,1.5c-3.4,1.5-7.4-0.1-8.9-3.6l-6.9-16.1
					c-1.5-3.4,0.1-7.4,3.6-8.9l3.4-1.5C287.8,238.5,296.6,242,299.9,249.6z"/>
				<path fill="#FCDFD4" d="M287.3,268.2l-6.1,4.3c-2.1,1.5-5.6,3.3-4.1,5.5c1,1.4,2.8,1.7,4.2,0.7l9.4-6.5
					c8.3-3.5,10.1-6.5,10.9-17.4c-0.5-1.2-1.3-1.6-2.5-1.1l-5.5,2.4C287.3,258.8,285.1,261.9,287.3,268.2z"/>
				<path fill="#F9D7C7" d="M256.4,276L256.4,276c0.6,1.4,1.8,1.5,3.2,0.9l5-1.9l3.7-1.4l4.1-1.9l9-3.6l-2.6-5.9l-8.7,4.7l-4.4,1.8
					l-3.4,1.6l-4.7,1.9C256.2,272.8,255.8,274.6,256.4,276z"/>
				<path fill="#FCE5DE" d="M273.6,260l0.7,1.5c0.5,1.2,1.9,1.8,3.1,1.3l14.5-6.2c1.4-0.6,2.1-2.3,1.5-3.8l-0.3-0.7
					c-0.6-1.4-2.3-2.1-3.8-1.5l-14.5,6.2C273.6,257.4,273.1,258.8,273.6,260z"/>
				<path fill="#FCE5DE" d="M272.2,254.1l0.6,1.4c0.4,0.9,1.4,1.3,2.4,0.9l14.3-6.2c1.1-0.5,1.7-1.8,1.2-3l-0.2-0.6
					c-0.5-1.1-1.8-1.7-3-1.2l-14.3,6.2C272.3,252.2,271.9,253.2,272.2,254.1z"/>
				<path fill="#FCE5DE" d="M271.3,249l0.6,1.3c0.3,0.8,1.3,1.2,2.1,0.8l11.4-4.9c1-0.4,1.5-1.6,1.1-2.7l-0.2-0.5
					c-0.4-1-1.6-1.5-2.7-1.1l-11.4,4.9C271.3,247.3,270.9,248.2,271.3,249z"/>
			</g>
		</g>
	</g>
</g>
<g id="bras_droit_idee">
	<g id="arriere-bras_droit">
		<path fill="#E8CBC1" d="M187.4,242.7L187.4,242.7c-5.2-3.7-6.4-10.9-2.6-16.1l29.3-40.7l18.7,13.5l-29.3,40.7
			C199.7,245.3,192.5,246.4,187.4,242.7z"/>
		<path fill="#5B93FF" d="M246.4,161.5L246.4,161.5c-6.3-4.8-15.4-3.5-20.1,2.8l-14.7,19.4l22.9,17.3l14.7-19.4
			C254,175.3,252.8,166.3,246.4,161.5z"/>
	</g>
	<g id="avant-bras_droit">
		<g>
			<path fill="#F9D7C7" d="M190,244.1l-2.4-0.8c-4-1.3-10.1-9.1-8.6-13.6l28-70.5l17,5.5l-19,73.4C203.5,242.7,194,245.5,190,244.1z
				"/>
			<path fill="#E2E2E2" d="M207.6,160l14.5,5c0.8,0.3,1.8-0.2,2.1-1l1-2.8c0.3-0.8-0.2-1.8-1-2.1l-14.5-5c-0.8-0.3-1.8,0.2-2.1,1
				l-1,2.8C206.3,158.8,206.7,159.7,207.6,160z"/>
			<g>
				<path fill="#E8CBC1" d="M213.1,156.1c0,0,11.3,6.3,18.7,3.3c7.4-3,17.7-7.9,18-9.8c0.5-3.1,2.7-7.5-3.8-7.1
					c-8.2,0.5-8.6-7.6-8.6-7.6l-14.7,2.3L213.1,156.1z"/>
				<path fill="#F9D7C7" d="M211.8,156.1c-1.8-0.6-2.7-2.6-1.8-4.3c3.7-6.9,12.1-22.4,13.3-23.5c1.6-1.4,16.3,4.1,18.8,5.2
					c2.5,1.1,5.8,13.7,3.1,15.6c-2.6,1.9-14,6.3-15.3,5.3c-1.3-1-4.2-3.5-1.2-6s10.5-2.7,10.5-2.7s-4.2-4.6-2.1-7.3
					c0,0-3.2,2.7-8.1,0.2c0,0-0.7,12-3.7,16.5C222.9,159.2,220.9,158.9,211.8,156.1z"/>
			</g>
			<path fill="#EDEDED" d="M217.1,162.9l6.6,2.3c0.5,0.2,1.1-0.1,1.3-0.6l1-3c0.2-0.5-0.1-1.1-0.6-1.3l-6.6-2.3
				c-1.4-0.5-2.8,0.3-3.3,1.6l0,0C215,160.9,215.7,162.4,217.1,162.9z"/>
			<path fill="#E2E2E2" d="M226.4,161l-1.4,4.1c-0.2,0.5-0.8,0.8-1.3,0.7l-0.4-0.1c-0.5-0.2-0.8-0.8-0.7-1.3l1.4-4.1
				c0.2-0.5,0.8-0.8,1.3-0.7l0.4,0.1C226.3,159.9,226.6,160.5,226.4,161z"/>
			<path fill="#EDEDED" d="M208.9,151.5l-3.4,9.5c-0.2,0.6-0.8,0.9-1.4,0.7l0,0c-0.6-0.2-0.9-0.8-0.7-1.4l3.4-9.5
				c0.2-0.6,0.8-0.9,1.4-0.7l0,0C208.8,150.3,209.1,150.9,208.9,151.5z"/>
		</g>
	</g>
</g>
<g id="table_x5F_idee">
	<path fill="#3D3D3D" d="M50,481.2h-4c-2,0-3.6-1.6-3.6-3.6V273.9h11.2v203.7C53.7,479.6,52,481.2,50,481.2z"/>
	<path fill="#3D3D3D" d="M442.6,481.2h-4c-2,0-3.6-1.6-3.6-3.6V273.9h11.2v203.7C446.2,479.6,444.6,481.2,442.6,481.2z"/>
	<path fill="#E8E8E8" d="M40.4,243.1l-7.1,0.7c-0.6,0.1-1,0.5-1,1.1l0,0c0,0.6,0.5,1.1,1.2,1.1l6.9-0.7V243.1z"/>
	<path fill="#D6D6D6" d="M210.3,246H40.4v-4.4h167.2c1.5,0,2.7,1.2,2.7,2.7V246z"/>
	<path fill="#4B4C4C" d="M41.1,491.3h-4c-2,0-3.6-1.6-3.6-3.6V283.9h11.2v203.7C44.7,489.6,43.1,491.3,41.1,491.3z"/>
	<path fill="#4B4C4C" d="M451.4,491.3h-4c-2,0-3.6-1.6-3.6-3.6V283.9H455v203.7C455,489.6,453.4,491.3,451.4,491.3z"/>
	<rect x="29.5" y="254.3" fill="#D5D6C8" width="428.9" height="76.2"/>
	<rect x="330.4" y="259.4" fill="#F4F4F4" width="100.7" height="21"/>
	<g>
		<circle fill="#E3E5E4" cx="342.1" cy="269.9" r="7.4"/>
		<circle cx="338.1" cy="269.9" r="1"/>
		<circle fill="#C1C1C1" cx="341.8" cy="264.7" r="1"/>
		<circle cx="346.1" cy="269.9" r="1"/>
	</g>
	<g>
		<circle fill="#E3E5E4" cx="361.4" cy="269.9" r="7.4"/>
		<circle cx="357.4" cy="269.9" r="1"/>
		<circle fill="#C1C1C1" cx="361.1" cy="264.7" r="1"/>
		<circle cx="365.4" cy="269.9" r="1"/>
	</g>
	<g>
		<circle fill="#E3E5E4" cx="380.7" cy="269.9" r="7.4"/>
		<circle cx="376.8" cy="269.9" r="1"/>
		<circle fill="#C1C1C1" cx="380.5" cy="264.7" r="1"/>
		<circle cx="384.7" cy="269.9" r="1"/>
	</g>
	<g>
		<circle fill="#E3E5E4" cx="400.1" cy="269.9" r="7.4"/>
		<circle cx="396.1" cy="269.9" r="1"/>
		<circle fill="#C1C1C1" cx="399.8" cy="264.7" r="1"/>
		<circle cx="404.1" cy="269.9" r="1"/>
	</g>
	<g>
		<circle fill="#E3E5E4" cx="419.4" cy="269.9" r="7.4"/>
		<circle cx="415.4" cy="269.9" r="1"/>
		<circle fill="#C1C1C1" cx="419.2" cy="264.7" r="1"/>
		<circle cx="423.4" cy="269.9" r="1"/>
	</g>
	<path fill="#E8EAEA" d="M175.4,243.8H42.8c-2.1,0-3.8-1.8-3.8-4v-84c0-5.5,4.2-9.9,9.4-9.9l121.3-9.4c5.2,0,9.4,4.4,9.4,9.9v93.4
		C179.1,242,177.5,243.8,175.4,243.8z"/>
	<polygon opacity="5.000000e-02" points="29.5,330.4 29.5,254.3 458.4,254.3 	"/>
	<rect x="179.1" y="241.2" fill="#444444" width="29" height="0.4"/>
	<circle fill="#EFEFEF" cx="361.4" cy="270" r="7.4"/>
	<path fill="#F2F4F4" d="M33.4,246h15.8l26.6-3.5v-1.7l-26.6,3l-15.7,0c-0.6,0-1.1,0.5-1.1,1.1l0,0C32.4,245.5,32.8,246,33.4,246z"
		/>
	<rect x="24.4" y="246" fill="#6BC993" width="439" height="9.2"/>
	<path fill="#F2F4F4" d="M218,277.7c12.6,1,25.3,1.4,38.1,1.4c1.3,0,2.5,0,3.8,0c49.8-0.3,92.4-6,101.7-7.3c1.1-0.2,1.9-1.2,1.7-2.3
		l0,0c-0.2-1.1-1.2-1.8-2.2-1.7c-9.2,1.3-51.6,7-101.2,7.3c-11.3,0.1-22.5-0.2-33.8-0.9"/>
	<path fill="#F2F4F4" d="M218,277.7c-38.6-3.1-76.4-11.9-114.6-32.1l1.9-3.5c40.1,21.1,80.4,29.6,120.8,32.1"/>
	<path fill="#F2F4F4" d="M103,246.8H78.4c-1.4,0-2.6-1.2-2.6-2.6v-3.3c0-1.4,1.2-2.6,2.6-2.6H103c1.4,0,2.6,1.2,2.6,2.6v3.3
		C105.6,245.6,104.4,246.8,103,246.8z"/>
	<path id="psm_x5F_logo_x5F_ordi" opacity="0.1" d="M93.4,182.7c-1.7,0-3.1,0.7-4.3,1.9c-1.2,1.2-1.7,2.7-1.7,4.4l0.4,15.5l3.1-0.1
		L90.5,189c0-0.9,0.3-1.6,0.8-2.2c0.6-0.6,1.3-0.9,2.2-1c0.9,0,1.6,0.3,2.2,0.8c0.6,0.6,0.9,1.3,1,2.2l0.1,3.1
		c0,0.9-0.3,1.6-0.8,2.2c-0.6,0.6-1.3,1-2.2,1l0.1,3.1c1.7,0,3.1-0.7,4.3-1.9c1.2-1.2,1.7-2.7,1.7-4.4l-0.1-3.1
		c0-1.7-0.7-3.1-1.9-4.3C96.6,183.2,95.1,182.6,93.4,182.7z M107.4,185.4c-0.9,0-1.6-0.3-2.2-0.8c-0.6-0.6-0.9-1.3-1-2.2l-3.1,0.1
		c0,1.7,0.7,3.1,1.9,4.3c1.2,1.2,2.7,1.7,4.4,1.7c0.9,0,1.6,0.3,2.2,0.8c0.6,0.6,0.9,1.3,1,2.2c0,0.9-0.3,1.6-0.8,2.2
		c-0.6,0.6-1.3,1-2.2,1c-0.9,0-1.6-0.3-2.2-0.8c-0.6-0.6-0.9-1.3-1-2.2l-3.1,0.1c0,1.7,0.7,3.1,1.9,4.3c1.2,1.2,2.7,1.7,4.4,1.7
		c1.7,0,3.1-0.7,4.3-1.9c1.2-1.2,1.7-2.7,1.7-4.4c0-1.7-0.7-3.1-1.9-4.3C110.6,185.9,109.1,185.3,107.4,185.4z M128.6,183.5
		c-1.3-1.2-2.7-1.7-4.4-1.7l0.1,3.1c0.9,0,1.6,0.3,2.2,0.8c0.6,0.6,0.9,1.3,1,2.2l0.3,9.3l3.1-0.1l-0.3-9.3
		C130.5,186.1,129.9,184.7,128.6,183.5z M118,182l-3.1,0.1l0.4,15.5l3.1-0.1l-0.4-12.4c0.9,0,1.6,0.3,2.2,0.8c0.6,0.6,0.9,1.3,1,2.2
		l0.3,9.3l3.1-0.1l-0.3-9.3c0-1.7-0.7-3.1-1.9-4.3C121.2,182.5,119.7,181.9,118,182z"/>
</g>
<g id="ampoule_idee">
	<g id="ampoule_x5F_idee_1_">
		<g id="allumee_idee" display="none">
			<path id="vitre_x5F_al" display="inline" fill="#FFFFA8" d="M400,75.9c3.6-7.8,0.1-17.1-7.8-20.7c-7.9-3.6-17.2,0-20.8,7.8
				c-0.5,1.1-1,2.6-1.2,3.6l0,0l-2.7,24.9l13.4,6.1l17-18.4l0,0C398.7,78.4,399.5,77,400,75.9z"/>

				<ellipse id="reflet_x5F_al" transform="matrix(0.5293 0.8484 -0.8484 0.5293 231.3632 -295.5679)" display="inline" fill="#FFFFC7" cx="382.1" cy="60.7" rx="3.1" ry="6.2"/>
		</g>
		<g id="eteinte_idee">
			<path id="vitre_x5F_et" fill="#BEFFFF" d="M400,75.9c3.6-7.8,0.1-17.1-7.8-20.7c-7.9-3.6-17.2,0-20.8,7.8c-0.5,1.1-1,2.6-1.2,3.6
				l0,0l-2.7,24.9l13.4,6.1l17-18.4l0,0C398.7,78.4,399.5,77,400,75.9z"/>

				<ellipse id="reflet_x5F_et" transform="matrix(0.5293 0.8484 -0.8484 0.5293 231.3632 -295.5679)" fill="#DDFFFF" cx="382.1" cy="60.7" rx="3.1" ry="6.2"/>
		</g>
		<g id="structure_x5F_idee">

				<rect x="371.6" y="92.9" transform="matrix(0.91 0.4146 -0.4146 0.91 72.6138 -146.8894)" opacity="0.8" fill="#878787" stroke="#878787" stroke-miterlimit="10" width="6.1" height="1.8"/>
			<polygon opacity="0.8" fill="none" stroke="#878787" stroke-width="0.5" stroke-miterlimit="10" points="377.8,90.8 374.8,89.5
				372.9,90.4 372.2,91.7 377.8,94.3 378.4,92.8 			"/>

				<rect x="375.6" y="85.9" transform="matrix(0.91 0.4146 -0.4146 0.91 70.4953 -148.471)" opacity="0.8" fill="none" stroke="#878787" stroke-width="0.5" stroke-miterlimit="10" width="3.2" height="4.4"/>
			<polyline opacity="0.8" fill="none" stroke="#878787" stroke-width="0.5" stroke-miterlimit="10" points="380.8,70.3 377.1,84.6
				380,85.9 388.4,73.7 			"/>
			<path opacity="0.8" fill="#878787" d="M380,87l-3.7-1.7c-0.2-0.1-0.3-0.4-0.2-0.6l0,0c0.1-0.2,0.4-0.3,0.6-0.2l3.7,1.7
				c0.2,0.1,0.3,0.4,0.2,0.6l0,0C380.5,87,380.2,87.1,380,87z"/>
			<polyline opacity="0.8" fill="none" stroke="#878787" stroke-miterlimit="10" points="372.9,90.4 375,84.2 377.9,70.2 			"/>
			<polyline opacity="0.8" fill="none" stroke="#878787" stroke-miterlimit="10" points="378.4,92.8 381.6,87.4 390.3,75.9 			"/>
		</g>

			<polyline id="tung_et_idee" opacity="0.8" fill="none" stroke="#878787" stroke-width="2" stroke-miterlimit="10" points="
			377.9,70.1 380.8,70.2 388.3,73.6 390.3,75.8 		"/>
		<g id="tung_al_idee" display="none">

				<radialGradient id="SVGID_1_" cx="334.7043" cy="10.66" r="12.1392" gradientTransform="matrix(0.9892 0.4507 -0.6695 1.4694 60.0824 -92.8754)" gradientUnits="userSpaceOnUse">
				<stop  offset="0" style="stop-color:#FFFFE1"/>
				<stop  offset="0.369" style="stop-color:#FFFFE5;stop-opacity:0.631"/>
				<stop  offset="0.7244" style="stop-color:#FFFFF0;stop-opacity:0.2756"/>
				<stop  offset="1" style="stop-color:#FFFFFF;stop-opacity:0"/>
			</radialGradient>
			<path display="inline" fill="url(#SVGID_1_)" d="M396.4,79.3c-4.4,9.6-13.4,14.9-20.2,11.8c-6.8-3.1-8.8-13.4-4.4-23
				s13.4-14.9,20.2-11.8C398.8,59.4,400.7,69.7,396.4,79.3z"/>
			<polyline id="tung_al" display="inline" fill="none" stroke="#FFFFFF" stroke-width="2" stroke-miterlimit="10" points="
				377.9,70.1 380.8,70.2 388.3,73.6 390.3,75.8 			"/>
		</g>
		<g id="base_x5F_idee">
			<g>
				<path fill="#282828" d="M370.3,111.3c-0.4,1-1.8,0.5-3.5-0.2c-1.7-0.8-2.9-1.5-2.5-2.5L370.3,111.3z"/>
				<g>

						<rect x="364" y="94" transform="matrix(0.91 0.4146 -0.4146 0.91 75.3108 -144.8773)" fill="#757575" width="14.7" height="14.1"/>
				</g>
				<g>
					<polygon fill="#6B6B6B" points="370.1,111.6 364.1,108.9 361.7,104.4 375.1,110.5 					"/>
				</g>
				<path fill="#9E9E9E" d="M379.9,98.7l-12.5-5.4c-0.4-0.2-0.6-0.6-0.4-1v0c0.2-0.4,0.6-0.6,1-0.4l12.5,5.4c0.4,0.2,0.6,0.6,0.4,1
					l0,0C380.7,98.7,380.3,98.9,379.9,98.7z"/>
				<path fill="#9E9E9E" d="M379.2,100.4l-12.5-5.4c-0.4-0.2-0.6-0.6-0.4-1l0,0c0.2-0.4,0.6-0.6,1-0.4l12.5,5.4
					c0.4,0.2,0.6,0.6,0.4,1l0,0C380,100.4,379.5,100.5,379.2,100.4z"/>
				<path fill="#9E9E9E" d="M378.4,102l-12.5-5.4c-0.4-0.2-0.6-0.6-0.4-1l0,0c0.2-0.4,0.6-0.6,1-0.4l12.5,5.4c0.4,0.2,0.6,0.6,0.4,1
					v0C379.3,102,378.8,102.2,378.4,102z"/>
				<path fill="#9E9E9E" d="M377.7,103.6l-12.5-5.4c-0.4-0.2-0.6-0.6-0.4-1l0,0c0.2-0.4,0.6-0.6,1-0.4l12.5,5.4
					c0.4,0.2,0.6,0.6,0.4,1l0,0C378.5,103.6,378.1,103.8,377.7,103.6z"/>
				<path fill="#9E9E9E" d="M376.9,105.3l-12.5-5.4c-0.4-0.2-0.6-0.6-0.4-1l0,0c0.2-0.4,0.6-0.6,1-0.4l12.5,5.4
					c0.4,0.2,0.6,0.6,0.4,1l0,0C377.8,105.2,377.3,105.4,376.9,105.3z"/>
				<path fill="#9E9E9E" d="M376.2,106.9l-12.5-5.4c-0.4-0.2-0.6-0.6-0.4-1l0,0c0.2-0.4,0.6-0.6,1-0.4l12.5,5.4
					c0.4,0.2,0.6,0.6,0.4,1l0,0C377,106.9,376.6,107.1,376.2,106.9z"/>
				<path fill="#9E9E9E" d="M375.4,108.5l-12.5-5.4c-0.4-0.2-0.6-0.6-0.4-1l0,0c0.2-0.4,0.6-0.6,1-0.4l12.5,5.4
					c0.4,0.2,0.6,0.6,0.4,1l0,0C376.3,108.5,375.8,108.7,375.4,108.5z"/>
				<path fill="#9E9E9E" d="M374.4,110l-11.9-5.2c-0.6-0.2-0.8-0.9-0.6-1.4v0c0.1-0.2,0.3-0.3,0.6-0.2l13.1,5.7
					c0.2,0.1,0.3,0.3,0.2,0.6l0,0C375.6,110,374.9,110.3,374.4,110z"/>
			</g>
			<path opacity="0.1" fill="#FFFFFF" d="M366.7,111.1c-1.6-0.7-2.8-1.5-2.5-2.5l0,0l-2.4-4.2c-0.2-0.1-0.3-0.3-0.2-0.5l0.3-0.8
				c0-0.1,0.1-0.1,0.2-0.1l0,0l0-0.1l0,0c-0.1,0-0.1-0.2-0.1-0.3l0.5-1.1c0-0.1,0.1-0.2,0.2-0.1l0,0l0.2-0.4l0,0
				c-0.1,0-0.2-0.1-0.1-0.2l0.5-1c0-0.1,0.1-0.1,0.2-0.1l0,0l0.1-0.2l0,0c-0.1,0-0.1-0.2-0.1-0.3l0.5-1.1c0-0.1,0.1-0.2,0.2-0.1l0,0
				l0.2-0.5l0,0c-0.1,0-0.2,0-0.2-0.1l0.4-1c0-0.1,0.1-0.1,0.2-0.1l0,0l0.1-0.3l0,0c-0.1,0-0.1-0.1-0.1-0.2l0.5-1
				c0-0.1,0.1-0.1,0.2-0.1l0,0l0-0.1l0,0c-0.1,0-0.1-0.2-0.1-0.3l0.5-1.1c0-0.1,0.1-0.2,0.2-0.1l0,0l0.2-0.4l0,0
				c-0.1,0-0.2-0.1-0.1-0.2l0.5-1c0-0.1,0.1-0.1,0.2-0.1l0,0l0.1-0.2l6.7,3L366.7,111.1z"/>
		</g>
	</g>
</g>
<g id="tete_idee">
	<path fill="none" stroke="#0C0C0C" stroke-width="0.25" stroke-miterlimit="10" d="M281.6,155.5"/>
	<path fill="none" stroke="#0C0C0C" stroke-width="0.25" stroke-miterlimit="10" d="M297.1,155.1"/>
	<path fill="#9BB9D3" d="M289.3,160.2"/>
	<g>
		<polygon fill="#E8CBC1" points="302.2,149.6 294.4,164.1 278,164.9 267.6,148.3 291.7,133.1 		"/>
		<g>
			<path fill="#F9D7C7" d="M282.5,68.4c13.4,21.2,30.1,64.2,3.3,81.1c-26.9,17-57.5-17.7-70.9-38.9c-13.4-21.2-5-38.7,14.3-50.9
				C248.4,47.7,269.1,47.3,282.5,68.4"/>
			<polygon fill="#F4C6A4" points="264.3,126.4 273.4,120.7 271.4,126.8 			"/>
			<path fill="#F9D7C7" d="M297.2,90c0.5,2,0.6,5-1,5.3c-1.6,0.3-1.9-2.1-2.8-4.2c-1-2.1-4-6.7-1.5-7.9
				C294.4,82.1,296.6,87.7,297.2,90"/>
			<path fill="#F9D7C7" d="M227.9,133.7c1.6,1.3,4.2,2.7,5.2,1.4c1-1.3-1.1-2.6-2.5-4.4c-1.5-1.8-4.3-6.5-6.4-4.7
				C222,127.8,226.1,132.3,227.9,133.7"/>
			<path fill="#1D0421" d="M260.7,105.8C260.7,105.8,260.6,105.9,260.7,105.8c-0.1,0.1-0.1,0.1-0.1,0.1L260.7,105.8z"/>
			<path fill="#BC9661" d="M229.1,59.8c-45,28.4-4.1,64.9-4.1,64.9s9-11.4,9.9-29.5c0,0,2.7,3.5,2.4,10.7c4.5-5.3,3.8-14.9,3.8-14.9
				s2.5,3.4,2.8,7.9c7.6-3.9,16.1-28,16.1-28s9.4,10.4,18.1,15.2c-2.4-4.8-3.6-10.6-3.6-10.6c8.2,2,15.7,8,15.7,8
				S274.1,31.4,229.1,59.8z"/>
		</g>
	</g>
</g>
</svg>
