
<svg version="1.1" xmlns="http://www.w3.org/2000/svg" xmlns:xlink="http://www.w3.org/1999/xlink" x="0px" y="0px"
	 viewBox="0 0 566.9 311.8" enable-background="new 0 0 566.9 311.8" xml:space="preserve">
<g id="texte_1_">
	<path id="p" d="M113.5,225.7h6.9c1.1,0,2,0.2,2.7,0.5c0.7,0.3,1.2,0.7,1.6,1.2c0.4,0.5,0.6,1,0.8,1.6c0.1,0.6,0.2,1.1,0.2,1.6
		c0,0.5-0.1,1-0.2,1.6c-0.1,0.6-0.4,1.1-0.8,1.6c-0.4,0.5-0.9,0.9-1.6,1.2c-0.7,0.3-1.6,0.5-2.7,0.5h-4.2v6h-2.7V225.7z
		 M116.2,233.1h4c0.3,0,0.6,0,0.9-0.1c0.3-0.1,0.6-0.2,0.9-0.4c0.3-0.2,0.5-0.5,0.7-0.8c0.2-0.3,0.3-0.7,0.3-1.2
		c0-0.5-0.1-0.9-0.2-1.3c-0.1-0.3-0.3-0.6-0.6-0.8c-0.2-0.2-0.5-0.3-0.9-0.4c-0.3-0.1-0.7-0.1-1-0.1h-4.1V233.1z"/>
	<path id="r" d="M128.1,225.7h7.5c1.7,0,3,0.4,3.9,1.1c0.9,0.7,1.3,1.8,1.3,3.1c0,0.8-0.1,1.4-0.3,1.9c-0.2,0.5-0.5,0.9-0.8,1.2
		c-0.3,0.3-0.6,0.5-0.9,0.6c-0.3,0.1-0.5,0.2-0.6,0.3v0c0.2,0,0.5,0.1,0.8,0.2c0.3,0.1,0.5,0.3,0.8,0.6c0.2,0.3,0.4,0.6,0.6,1
		c0.2,0.4,0.2,0.9,0.2,1.5c0,0.9,0.1,1.8,0.2,2.5c0.1,0.8,0.4,1.3,0.6,1.6h-2.9c-0.2-0.3-0.3-0.7-0.4-1.1c0-0.4-0.1-0.8-0.1-1.2
		c0-0.7,0-1.3-0.1-1.9c-0.1-0.5-0.2-1-0.5-1.3c-0.2-0.3-0.5-0.6-1-0.8c-0.4-0.2-0.9-0.2-1.5-0.2h-4v6.5h-2.7V225.7z M130.9,232.8
		h4.5c0.9,0,1.5-0.2,2-0.6c0.5-0.4,0.7-1,0.7-1.9c0-0.5-0.1-0.9-0.2-1.2c-0.1-0.3-0.3-0.6-0.6-0.7c-0.3-0.2-0.5-0.3-0.9-0.4
		c-0.3-0.1-0.7-0.1-1-0.1h-4.5V232.8z"/>
	<path id="o" d="M150.2,225.3c1.2,0,2.2,0.2,3.2,0.7c0.9,0.4,1.7,1,2.4,1.8c0.6,0.7,1.1,1.6,1.5,2.6c0.3,1,0.5,2.1,0.5,3.2
		c0,1.1-0.2,2.2-0.5,3.2c-0.3,1-0.8,1.9-1.5,2.6c-0.6,0.7-1.4,1.3-2.4,1.8c-0.9,0.4-2,0.7-3.2,0.7c-1.2,0-2.2-0.2-3.1-0.7
		c-0.9-0.4-1.7-1-2.4-1.8c-0.6-0.7-1.1-1.6-1.5-2.6c-0.3-1-0.5-2.1-0.5-3.2c0-1.1,0.2-2.2,0.5-3.2c0.3-1,0.8-1.9,1.5-2.6
		c0.6-0.7,1.4-1.3,2.4-1.8C148,225.5,149.1,225.3,150.2,225.3z M150.2,227.6c-0.8,0-1.6,0.2-2.2,0.5c-0.6,0.3-1.1,0.8-1.5,1.3
		c-0.4,0.6-0.7,1.2-0.8,1.9c-0.2,0.7-0.3,1.4-0.3,2.2c0,0.7,0.1,1.5,0.3,2.2c0.2,0.7,0.5,1.4,0.8,1.9c0.4,0.6,0.9,1,1.5,1.4
		c0.6,0.3,1.3,0.5,2.2,0.5c0.8,0,1.6-0.2,2.2-0.5c0.6-0.3,1.1-0.8,1.5-1.4c0.4-0.6,0.7-1.2,0.9-1.9c0.2-0.7,0.3-1.4,0.3-2.2
		c0-0.8-0.1-1.5-0.3-2.2c-0.2-0.7-0.5-1.4-0.9-1.9c-0.4-0.6-0.9-1-1.5-1.3C151.8,227.7,151.1,227.6,150.2,227.6z"/>
	<path id="d" d="M160.3,225.7h6.5c1.2,0,2.2,0.2,3.1,0.6c0.9,0.4,1.6,1,2.2,1.7c0.6,0.7,1,1.5,1.2,2.5c0.3,1,0.4,2,0.4,3.1
		s-0.1,2.1-0.4,3c-0.3,1-0.7,1.8-1.2,2.5c-0.6,0.7-1.3,1.3-2.2,1.7c-0.9,0.4-1.9,0.6-3.1,0.6h-6.5V225.7z M163,239.1h2.7
		c1.1,0,1.9-0.1,2.6-0.4c0.7-0.3,1.2-0.7,1.6-1.2c0.4-0.5,0.7-1.1,0.8-1.8c0.1-0.7,0.2-1.4,0.2-2.2c0-0.8-0.1-1.5-0.2-2.2
		c-0.1-0.7-0.4-1.3-0.8-1.8c-0.4-0.5-0.9-0.9-1.6-1.2c-0.7-0.3-1.6-0.4-2.6-0.4H163V239.1z"/>
	<path id="u" d="M175.9,225.7h2.7v9.1c0,0.5,0,1.1,0.1,1.6c0.1,0.5,0.2,1,0.4,1.5c0.2,0.4,0.6,0.8,1.1,1.1c0.5,0.3,1.2,0.4,2.1,0.4
		c0.9,0,1.6-0.1,2.1-0.4c0.5-0.3,0.9-0.6,1.1-1.1c0.2-0.4,0.4-0.9,0.4-1.5c0-0.5,0.1-1.1,0.1-1.6v-9.1h2.7v10c0,1-0.2,1.9-0.5,2.6
		c-0.3,0.7-0.7,1.4-1.3,1.9c-0.6,0.5-1.2,0.9-2,1.1c-0.8,0.2-1.7,0.4-2.6,0.4c-1,0-1.8-0.1-2.6-0.4c-0.8-0.2-1.5-0.6-2-1.1
		c-0.6-0.5-1-1.1-1.3-1.9c-0.3-0.7-0.5-1.6-0.5-2.6V225.7z"/>
	<path id="i" d="M192,225.7h2.7v15.7H192V225.7z"/>
	<path id="t" d="M196.6,225.7h12.7v2.4h-5v13.3h-2.7v-13.3h-5V225.7z"/>
	<path id="s" d="M212.9,236.2c0,0.6,0.1,1.1,0.3,1.5c0.2,0.4,0.5,0.8,0.9,1c0.4,0.3,0.8,0.5,1.3,0.6c0.5,0.1,1,0.2,1.5,0.2
		c0.6,0,1.1-0.1,1.5-0.2c0.4-0.1,0.8-0.3,1-0.5c0.3-0.2,0.4-0.5,0.6-0.8c0.1-0.3,0.2-0.6,0.2-0.9c0-0.6-0.1-1-0.4-1.3
		c-0.3-0.3-0.6-0.5-0.9-0.6c-0.6-0.2-1.2-0.4-1.9-0.6c-0.7-0.2-1.7-0.4-2.7-0.7c-0.7-0.2-1.2-0.4-1.7-0.7c-0.4-0.3-0.8-0.6-1.1-1
		c-0.3-0.3-0.4-0.7-0.6-1.1c-0.1-0.4-0.2-0.8-0.2-1.2c0-0.8,0.2-1.5,0.5-2.1c0.3-0.6,0.8-1.1,1.3-1.4c0.5-0.4,1.2-0.7,1.8-0.8
		c0.7-0.2,1.4-0.3,2.1-0.3c0.8,0,1.6,0.1,2.3,0.3c0.7,0.2,1.4,0.5,1.9,1c0.6,0.4,1,1,1.3,1.6c0.3,0.6,0.5,1.3,0.5,2.2h-2.7
		c-0.1-1-0.4-1.7-1-2.1c-0.6-0.4-1.4-0.6-2.3-0.6c-0.3,0-0.6,0-1,0.1c-0.3,0.1-0.6,0.2-0.9,0.3c-0.3,0.1-0.5,0.4-0.7,0.6
		c-0.2,0.3-0.3,0.6-0.3,1c0,0.6,0.2,1,0.5,1.3c0.3,0.3,0.8,0.6,1.3,0.7c0.1,0,0.3,0.1,0.7,0.2c0.4,0.1,0.9,0.2,1.4,0.4
		c0.5,0.1,1,0.3,1.5,0.4c0.5,0.1,0.8,0.2,1,0.3c0.5,0.2,1,0.4,1.3,0.7c0.4,0.3,0.7,0.6,1,1c0.3,0.4,0.4,0.7,0.6,1.2
		c0.1,0.4,0.2,0.8,0.2,1.2c0,0.9-0.2,1.6-0.5,2.2c-0.4,0.6-0.8,1.1-1.4,1.5c-0.6,0.4-1.3,0.7-2,0.9c-0.8,0.2-1.5,0.3-2.3,0.3
		c-0.9,0-1.7-0.1-2.5-0.3c-0.8-0.2-1.5-0.6-2.1-1c-0.6-0.5-1.1-1-1.4-1.7c-0.3-0.7-0.5-1.6-0.5-2.5H212.9z"/>
	<path id="e" d="M231.4,225.7h11.3v2.4h-8.5v4.1h7.9v2.2h-7.9v4.6h8.7v2.4h-11.4V225.7z"/>
	<path id="t_1_" d="M243.7,225.7h12.7v2.4h-5v13.3h-2.7v-13.3h-5V225.7z"/>
	<path id="s_1_" d="M266.2,236.2c0,0.6,0.1,1.1,0.3,1.5c0.2,0.4,0.5,0.8,0.9,1c0.4,0.3,0.8,0.5,1.3,0.6c0.5,0.1,1,0.2,1.5,0.2
		c0.6,0,1.1-0.1,1.5-0.2c0.4-0.1,0.8-0.3,1-0.5c0.3-0.2,0.5-0.5,0.6-0.8c0.1-0.3,0.2-0.6,0.2-0.9c0-0.6-0.1-1-0.4-1.3
		c-0.3-0.3-0.6-0.5-0.9-0.6c-0.6-0.2-1.2-0.4-1.9-0.6c-0.7-0.2-1.7-0.4-2.7-0.7c-0.7-0.2-1.2-0.4-1.7-0.7c-0.4-0.3-0.8-0.6-1.1-1
		c-0.3-0.3-0.4-0.7-0.6-1.1c-0.1-0.4-0.2-0.8-0.2-1.2c0-0.8,0.2-1.5,0.5-2.1c0.3-0.6,0.8-1.1,1.3-1.4c0.5-0.4,1.2-0.7,1.8-0.8
		c0.7-0.2,1.4-0.3,2.1-0.3c0.8,0,1.6,0.1,2.3,0.3c0.7,0.2,1.4,0.5,1.9,1c0.5,0.4,1,1,1.3,1.6c0.3,0.6,0.5,1.3,0.5,2.2H273
		c-0.1-1-0.4-1.7-1-2.1c-0.6-0.4-1.4-0.6-2.3-0.6c-0.3,0-0.7,0-1,0.1c-0.3,0.1-0.6,0.2-0.9,0.3c-0.3,0.1-0.5,0.4-0.7,0.6
		c-0.2,0.3-0.3,0.6-0.3,1c0,0.6,0.2,1,0.5,1.3c0.3,0.3,0.8,0.6,1.3,0.7c0.1,0,0.3,0.1,0.7,0.2c0.4,0.1,0.9,0.2,1.3,0.4
		c0.5,0.1,1,0.3,1.5,0.4c0.5,0.1,0.8,0.2,1,0.3c0.5,0.2,1,0.4,1.3,0.7c0.4,0.3,0.7,0.6,1,1c0.3,0.4,0.4,0.7,0.6,1.2
		c0.1,0.4,0.2,0.8,0.2,1.2c0,0.9-0.2,1.6-0.5,2.2c-0.4,0.6-0.8,1.1-1.4,1.5c-0.6,0.4-1.2,0.7-2,0.9c-0.7,0.2-1.5,0.3-2.3,0.3
		c-0.9,0-1.7-0.1-2.5-0.3c-0.8-0.2-1.5-0.6-2.1-1c-0.6-0.5-1.1-1-1.4-1.7c-0.3-0.7-0.5-1.6-0.5-2.5H266.2z"/>
	<path id="e_1_" d="M278.6,225.7h11.3v2.4h-8.5v4.1h7.9v2.2h-7.9v4.6h8.7v2.4h-11.4V225.7z"/>
	<path id="r_1_" d="M292.4,225.7h7.5c1.7,0,3,0.4,3.9,1.1c0.9,0.7,1.3,1.8,1.3,3.1c0,0.8-0.1,1.4-0.3,1.9c-0.2,0.5-0.5,0.9-0.8,1.2
		c-0.3,0.3-0.6,0.5-0.9,0.6c-0.3,0.1-0.5,0.2-0.6,0.3v0c0.2,0,0.5,0.1,0.8,0.2c0.3,0.1,0.5,0.3,0.8,0.6c0.2,0.3,0.4,0.6,0.6,1
		c0.2,0.4,0.2,0.9,0.2,1.5c0,0.9,0.1,1.8,0.2,2.5c0.1,0.8,0.4,1.3,0.7,1.6h-2.9c-0.2-0.3-0.3-0.7-0.4-1.1c0-0.4-0.1-0.8-0.1-1.2
		c0-0.7,0-1.3-0.1-1.9c-0.1-0.5-0.2-1-0.5-1.3c-0.2-0.3-0.5-0.6-1-0.8c-0.4-0.2-0.9-0.2-1.5-0.2h-4v6.5h-2.7V225.7z M295.2,232.8
		h4.5c0.9,0,1.5-0.2,2-0.6c0.5-0.4,0.7-1,0.7-1.9c0-0.5-0.1-0.9-0.2-1.2c-0.2-0.3-0.3-0.6-0.6-0.7c-0.3-0.2-0.5-0.3-0.9-0.4
		c-0.3-0.1-0.7-0.1-1-0.1h-4.5V232.8z"/>
	<path id="v" d="M305.7,225.7h2.9l3.9,12.4h0l4.1-12.4h2.7l-5.4,15.7h-3L305.7,225.7z"/>
	<path id="i_1_" d="M320.9,225.7h2.7v15.7h-2.7V225.7z"/>
	<path id="c" d="M337.6,230.7c-0.1-0.5-0.3-0.9-0.5-1.3c-0.2-0.4-0.5-0.7-0.8-1c-0.3-0.3-0.7-0.5-1.1-0.6c-0.4-0.1-0.9-0.2-1.5-0.2
		c-0.8,0-1.6,0.2-2.2,0.5c-0.6,0.3-1.1,0.8-1.5,1.3c-0.4,0.6-0.7,1.2-0.8,1.9c-0.2,0.7-0.3,1.4-0.3,2.2c0,0.7,0.1,1.5,0.3,2.2
		c0.2,0.7,0.5,1.4,0.8,1.9c0.4,0.6,0.9,1,1.5,1.4c0.6,0.3,1.3,0.5,2.2,0.5c0.6,0,1.2-0.1,1.6-0.3c0.5-0.2,0.9-0.5,1.2-0.9
		c0.3-0.4,0.6-0.8,0.8-1.3c0.2-0.5,0.3-1,0.4-1.6h2.7c-0.1,0.9-0.3,1.8-0.6,2.6c-0.3,0.8-0.8,1.4-1.4,2c-0.6,0.6-1.3,1-2.1,1.3
		c-0.8,0.3-1.7,0.5-2.6,0.5c-1.2,0-2.2-0.2-3.2-0.7c-0.9-0.4-1.7-1-2.4-1.8c-0.6-0.7-1.1-1.6-1.5-2.6c-0.3-1-0.5-2.1-0.5-3.2
		c0-1.1,0.2-2.2,0.5-3.2c0.3-1,0.8-1.9,1.5-2.6c0.6-0.7,1.4-1.3,2.4-1.8c0.9-0.4,2-0.7,3.2-0.7c0.9,0,1.7,0.1,2.5,0.4
		c0.8,0.2,1.5,0.6,2.1,1.1c0.6,0.5,1.1,1,1.4,1.7c0.4,0.7,0.6,1.4,0.7,2.3H337.6z"/>
	<path id="e_2_" d="M342.9,225.7h11.3v2.4h-8.5v4.1h7.9v2.2h-7.9v4.6h8.7v2.4h-11.4V225.7z"/>
	<path id="s_2_" d="M358.5,236.2c0,0.6,0.1,1.1,0.3,1.5c0.2,0.4,0.5,0.8,0.9,1c0.4,0.3,0.8,0.5,1.3,0.6c0.5,0.1,1,0.2,1.5,0.2
		c0.6,0,1.1-0.1,1.5-0.2c0.4-0.1,0.8-0.3,1-0.5c0.3-0.2,0.4-0.5,0.6-0.8c0.1-0.3,0.2-0.6,0.2-0.9c0-0.6-0.1-1-0.4-1.3
		c-0.3-0.3-0.6-0.5-0.9-0.6c-0.6-0.2-1.2-0.4-1.9-0.6c-0.7-0.2-1.6-0.4-2.7-0.7c-0.7-0.2-1.2-0.4-1.7-0.7c-0.4-0.3-0.8-0.6-1.1-1
		c-0.3-0.3-0.4-0.7-0.6-1.1c-0.1-0.4-0.2-0.8-0.2-1.2c0-0.8,0.2-1.5,0.5-2.1c0.3-0.6,0.8-1.1,1.3-1.4c0.5-0.4,1.2-0.7,1.8-0.8
		c0.7-0.2,1.4-0.3,2.1-0.3c0.8,0,1.6,0.1,2.3,0.3c0.7,0.2,1.4,0.5,1.9,1c0.5,0.4,1,1,1.3,1.6c0.3,0.6,0.5,1.3,0.5,2.2h-2.7
		c-0.1-1-0.4-1.7-1-2.1c-0.6-0.4-1.4-0.6-2.4-0.6c-0.3,0-0.7,0-1,0.1c-0.3,0.1-0.6,0.2-0.9,0.3c-0.3,0.1-0.5,0.4-0.7,0.6
		c-0.2,0.3-0.3,0.6-0.3,1c0,0.6,0.2,1,0.5,1.3c0.3,0.3,0.8,0.6,1.3,0.7c0.1,0,0.3,0.1,0.7,0.2c0.4,0.1,0.9,0.2,1.3,0.4
		c0.5,0.1,1,0.3,1.5,0.4c0.5,0.1,0.8,0.2,1,0.3c0.5,0.2,1,0.4,1.3,0.7c0.4,0.3,0.7,0.6,1,1c0.3,0.4,0.4,0.7,0.6,1.2
		c0.1,0.4,0.2,0.8,0.2,1.2c0,0.9-0.2,1.6-0.5,2.2c-0.4,0.6-0.8,1.1-1.4,1.5c-0.6,0.4-1.3,0.7-2,0.9c-0.7,0.2-1.5,0.3-2.3,0.3
		c-0.9,0-1.7-0.1-2.5-0.3c-0.8-0.2-1.5-0.6-2.1-1c-0.6-0.5-1.1-1-1.4-1.7c-0.3-0.7-0.5-1.6-0.5-2.5H358.5z"/>
	<path id="m" d="M377,225.7h3.9l4.3,12.3h0l4.2-12.3h3.8v15.7h-2.6v-12.1h0l-4.3,12.1H384l-4.3-12.1h0v12.1H377V225.7z"/>
	<path id="u_1_" d="M396.4,225.7h2.7v9.1c0,0.5,0,1.1,0.1,1.6c0.1,0.5,0.2,1,0.4,1.5c0.2,0.4,0.6,0.8,1.1,1.1
		c0.5,0.3,1.2,0.4,2.1,0.4c0.9,0,1.6-0.1,2.1-0.4c0.5-0.3,0.9-0.6,1.1-1.1c0.2-0.4,0.4-0.9,0.4-1.5c0.1-0.5,0.1-1.1,0.1-1.6v-9.1
		h2.7v10c0,1-0.2,1.9-0.5,2.6c-0.3,0.7-0.7,1.4-1.3,1.9c-0.6,0.5-1.2,0.9-2,1.1c-0.8,0.2-1.7,0.4-2.6,0.4c-1,0-1.8-0.1-2.6-0.4
		c-0.8-0.2-1.5-0.6-2-1.1c-0.6-0.5-1-1.1-1.3-1.9c-0.3-0.7-0.5-1.6-0.5-2.6V225.7z"/>
	<path id="l" d="M412.4,225.7h2.7V239h8v2.4h-10.7V225.7z"/>
	<path id="t_2_" d="M421.5,225.7h12.7v2.4h-5v13.3h-2.7v-13.3h-5V225.7z"/>
	<path id="i_2_" d="M436,225.7h2.7v15.7H436V225.7z"/>
	<path id="m_1_" d="M442,225.7h3.9l4.3,12.3h0l4.2-12.3h3.8v15.7h-2.6v-12.1h0l-4.3,12.1H449l-4.3-12.1h0v12.1H442V225.7z"/>
	<path id="e_3_" d="M461.6,225.7h11.3v2.4h-8.5v4.1h7.9v2.2h-7.9v4.6h8.7v2.4h-11.4V225.7z M467.2,221h3l-3.1,3.1h-1.8L467.2,221z"
		/>
	<path id="d_1_" d="M475.4,225.7h6.5c1.2,0,2.2,0.2,3.1,0.6c0.9,0.4,1.6,1,2.1,1.7c0.6,0.7,1,1.5,1.2,2.5c0.3,1,0.4,2,0.4,3.1
		s-0.1,2.1-0.4,3c-0.3,1-0.7,1.8-1.2,2.5c-0.6,0.7-1.3,1.3-2.1,1.7c-0.9,0.4-1.9,0.6-3.1,0.6h-6.5V225.7z M478.2,239.1h2.7
		c1.1,0,1.9-0.1,2.6-0.4c0.7-0.3,1.2-0.7,1.6-1.2c0.4-0.5,0.7-1.1,0.8-1.8c0.1-0.7,0.2-1.4,0.2-2.2c0-0.8-0.1-1.5-0.2-2.2
		c-0.1-0.7-0.4-1.3-0.8-1.8c-0.4-0.5-0.9-0.9-1.6-1.2c-0.7-0.3-1.6-0.4-2.6-0.4h-2.7V239.1z"/>
	<path id="i_3_" d="M491.3,225.7h2.7v15.7h-2.7V225.7z"/>
	<path id="a" d="M501.6,225.7h2.9l6,15.7h-2.9l-1.5-4.2h-6.3l-1.5,4.2h-2.8L501.6,225.7z M500.6,235.1h4.8l-2.3-6.7H503L500.6,235.1
		z"/>
</g>
<g id="P-1_">
	<linearGradient id="P-2_" gradientUnits="userSpaceOnUse" x1="113.4587" y1="45.1596" x2="113.4587" y2="260.6304">
		<stop  offset="0" style="stop-color:#B4CC23"/>
		<stop  offset="1" style="stop-color:#4EAE36"/>
	</linearGradient>
	<path id="P" fill="url(#P-2_)" d="M113.5,56.4c-15.7,0-29.1,5.6-40.3,16.8C62,84.3,56.4,97.8,56.4,113.5v142.7h28.5V113.5
		c0-7.8,2.8-14.6,8.4-20.2c5.6-5.6,12.3-8.4,20.2-8.4c7.8,0,14.6,2.8,20.2,8.4c5.6,5.6,8.4,12.3,8.4,20.2V142
		c0,7.9-2.8,14.6-8.4,20.2c-5.6,5.6-12.3,8.4-20.2,8.4v28.5c15.7,0,29.1-5.6,40.3-16.8c11.2-11.2,16.8-24.6,16.8-40.3v-28.5
		c0-15.7-5.6-29.1-16.8-40.3C142.6,62,129.1,56.4,113.5,56.4z"/>
</g>
<g id="S_1_">
	<linearGradient id="S_2_" gradientUnits="userSpaceOnUse" x1="241.8972" y1="48.3664" x2="241.8972" y2="202.2713">
		<stop  offset="0" style="stop-color:#B4CC23"/>
		<stop  offset="1" style="stop-color:#4EAE36"/>
	</linearGradient>
	<path id="S" fill="url(#S_2_)" d="M241.9,84.9c-7.9,0-14.6-2.8-20.2-8.4c-5.6-5.6-8.4-12.3-8.4-20.2h-28.5
		c0,15.7,5.6,29.1,16.8,40.3c11.2,11.2,24.6,16.8,40.3,16.8c7.8,0,14.6,2.8,20.2,8.4c5.6,5.6,8.4,12.3,8.4,20.2
		c0,7.9-2.8,14.6-8.4,20.2c-5.6,5.6-12.3,8.4-20.2,8.4c-7.9,0-14.6-2.8-20.2-8.4c-5.6-5.6-8.4-12.3-8.4-20.2h-28.5
		c0,15.7,5.6,29.1,16.8,40.3c11.2,11.2,24.6,16.8,40.3,16.8c15.7,0,29.1-5.6,40.3-16.8c11.2-11.2,16.8-24.6,16.8-40.3
		c0-15.7-5.6-29.1-16.8-40.3C271,90.5,257.6,84.9,241.9,84.9z"/>
</g>
<g id="M_1_">
	<linearGradient id="M_2_" gradientUnits="userSpaceOnUse" x1="382.8086" y1="48.3664" x2="382.8086" y2="202.2713">
		<stop  offset="0" style="stop-color:#B4CC23"/>
		<stop  offset="1" style="stop-color:#4EAE36"/>
	</linearGradient>
	<path id="M" fill="url(#M_2_)" d="M437.4,73.2c-11.2-11.2-24.6-16.8-40.3-16.8v28.5c7.9,0,14.6,2.8,20.2,8.4
		c5.6,5.6,8.4,12.3,8.4,20.2v85.6h28.5v-85.6C454.2,97.8,448.6,84.3,437.4,73.2z M340,56.4h-28.5v142.7H340V84.9
		c7.8,0,14.6,2.8,20.2,8.4c5.6,5.6,8.4,12.3,8.4,20.2v85.6h28.5v-85.6c0-15.7-5.6-29.1-16.8-40.3C369.1,62,355.7,56.4,340,56.4z"/>
</g>
<g id="deco1" display="none">
	<linearGradient id="sur1_1_" gradientUnits="userSpaceOnUse" x1="255.2761" y1="231" x2="255.2761" y2="34.4998">
		<stop  offset="0" style="stop-color:#B4CC23"/>
		<stop  offset="1" style="stop-color:#4EAE36"/>
	</linearGradient>
	<path id="sur1" display="inline" fill="url(#sur1_1_)" d="M381.9,107.8c0-8.9-5.1-20.4-11.4-26.6c-4.8-4.8-9.4-9.5-15.2-11.4v15.1
		c2.7,1.5,5.3,3.4,7.6,5.8c6.3,6.3,9.5,14,9.5,22.9v81.8h20.9v-5.7h-11.4V107.8z M324.8,60.2h-9.5v135.1h20.9v-5.7h-11.4V60.2z
		 M213.8,170.1c-7.2-7.2-11.9-15.2-14.1-24.3h-11c0.8,13.1,5.9,24.2,15.5,33.8c10.5,10.5,22.8,15.6,37.6,15.6
		c14.8,0,27.1-5.1,37.6-15.6c1.6-1.6,3.1-3.3,4.5-5c-9.4,7.5-20.1,11.2-32.6,11.2C236.6,185.8,224.3,180.7,213.8,170.1z
		 M438.9,189.6v-81.8c0-11.3-3.5-19.1-11.1-26.7c-4.9-4.9-13-8.1-20.7-9.8c2,4.1,3.5,8.5,4.3,13.1c3.1,1.5,5.9,3.6,8.5,6.2
		c6.3,6.3,9.5,14,9.5,22.9v81.8h20.9v-5.7H438.9z M145.8,113.5V142c0,4-0.7,7.8-2,11.4c2.2-0.8,4.3-1.9,6.3-3.2
		c3.5-5.2,5.2-11.1,5.2-17.7V104c0-8.9-3.2-16.6-9.5-22.9c-6.3-6.3-14-9.5-22.8-9.5c-6.6,0-12.5,1.7-17.7,5.2
		c-1.3,2-2.4,4.1-3.2,6.3c3.5-1.3,7.3-2,11.4-2c8.9,0,16.6,3.2,22.8,9.5C142.6,96.9,145.8,104.6,145.8,113.5z M241.9,109.7
		c8.9,0,16.6,3.2,22.9,9.5c6.3,6.3,9.5,14,9.5,22.8c0,4-0.7,7.8-2,11.4c2.2-0.8,4.3-1.9,6.3-3.2c3.5-5.2,5.2-11.1,5.2-17.7
		c0-8.8-3.2-16.5-9.5-22.8c-6.3-6.3-14-9.5-22.9-9.5c-14.8,0-27.1-5.1-37.6-15.7c-7.1-7.1-11.8-15.2-14-24.3h-11
		c0.8,13,6,24.3,15.5,33.8C214.8,104.5,227.1,109.7,241.9,109.7z M126.8,171.6c-3,1.4-6.1,2.2-9.5,2.6v21c13-0.8,24.3-6,33.8-15.5
		c1.6-1.6,3.1-3.3,4.5-5.1c-8.4,6.7-18,10.4-28.8,11.1V171.6z M69.7,104c0-12.5,3.7-23.2,11.2-32.6c-1.7,1.4-3.4,2.9-5,4.5
		c-10.5,10.5-15.6,22.8-15.6,37.6v138.9h20.9v-9.5H69.7V104z"/>
</g>
<g id="deco2" display="none">
	<linearGradient id="sur2_1_" gradientUnits="userSpaceOnUse" x1="261.9294" y1="56.3828" x2="261.9294" y2="242.3827">
		<stop  offset="0" style="stop-color:#8DBC2A"/>
		<stop  offset="1" style="stop-color:#5FAF35"/>
	</linearGradient>
	<path id="sur2" display="inline" fill="url(#sur2_1_)" d="M213.8,84.5c7.2,7.2,16.1,12.5,26.2,14.5c2.5,0.5,5.1,0.8,7.6,1
		c2.7,0.2,5.3,0,8,0.4c5.1,0.6,9.9,2.4,14.1,5.4c6.6,4.6,11.6,11.6,13.3,19.6c1.9,8.5,0.4,17.6-4.5,24.8c5.5-3.6,10-9,12.4-15.1
		c2.5-6.3,2.9-13.5,1.3-20c-5.3-9.8-13.7-18.1-23.5-23.5c-3-0.7-6-0.9-9-0.9c-2.9,0-5.8-0.3-8.7-0.8c-5.6-1-11-2.9-15.9-5.7
		c-10.3-2.3-19-11.1-21.2-21.3c-0.7-2.5-0.7-4.2-0.7-6.5h-14.4C200.8,67.1,206.1,76.8,213.8,84.5 M391.4,102c0-6-2.3-12.1-4.8-17.4
		c-1.4-2.9-2.9-5.7-4.7-8.4c-1.8-2.7-4.1-4.9-6.2-7.4c0.8,0.7,1.6,1.3,2.4,2l0,0c-6.5-5.9-14.2-10.3-22.7-12.6v11.4
		c4,1.3,7.4,3.9,10.5,6.8c3,2.8,6,5.6,8.4,9c4.4,6.3,7.8,14.4,7.8,22.3v81.8h15.2v-5.7h-5.7V102 M378.3,71.2
		c-0.1-0.1-0.2-0.2-0.3-0.3c0.6,0.5,1.1,1,1.7,1.6C379.2,72.1,378.7,71.6,378.3,71.2 M334.3,56.4h-9.5v133.2H340v-5.7h-5.7V56.4
		 M343.5,85.1c0.1,0,0.2,0,0.4,0c-0.3,0-0.7-0.1-1-0.1C343.1,85.1,343.3,85.1,343.5,85.1 M292.3,115C292.3,115,292.3,115,292.3,115
		C292.4,115.1,292.4,115.1,292.3,115 M266.5,90.4c-0.6-0.3-1.3-0.6-1.9-0.9C265.2,89.7,266.1,90.2,266.5,90.4 M235.3,169.8
		c-10.2-2.5-18.8-10.8-21.2-21.2c-0.4-2.1-0.6-4.4-0.7-6.7h-14.5c3.5,21,21,38.9,41.9,42.8c9.3,1.8,19.3,1.2,28.3-1.9
		c9.6-3.4,18-9.8,24.3-17.8c-7.8,6.3-17.3,10-27.2,10.9C255.6,177,244.7,175.1,235.3,169.8 M268.8,91.6c-0.6-0.3-1.2-0.6-1.8-0.9
		C267.6,90.9,268.2,91.2,268.8,91.6C268.8,91.6,268.8,91.6,268.8,91.6C268.8,91.6,268.8,91.6,268.8,91.6 M448.4,183.9V102
		c0-13.6-3.7-21.4-12.3-30.1c-0.7-0.7-1.5-1.4-2.2-2c-8.2-6.5-23.5-10.2-34.8-11.1l-0.1,0.5c3.4,3.7,6.1,7.7,8.2,11.9
		c4.7,1,9.4,2.6,13.6,4.8c4.1,2.1,7.4,5,10.3,8.6c5.4,6.6,7.8,14.6,7.8,23.1v81.8h15.2v-5.7H448.4 M397.8,84.9c0.3,0-0.4,0-0.3,0
		C397.5,84.9,397.6,84.9,397.8,84.9 M436,71.8c0,0.1,0.1,0.1,0.1,0.2c0.4,0.4,0.8,0.8,1.2,1.2C436.9,72.6,436.4,72.2,436,71.8
		 M433.6,69.7c-2-1.7-4.1-3.3-6.3-4.7C429.5,66.4,431.6,68,433.6,69.7z M434,70c-0.1-0.1-0.2-0.2-0.3-0.3
		C433.7,69.8,433.8,69.9,434,70C433.9,69.9,433.9,70,434,70C434,70,434,70,434,70 M399.1,85c0.1,0,0.3,0,0.4,0c0,0,0,0,0,0
		C399.3,85,399.2,85,399.1,85 M355.1,58.3c-0.1,0-0.2,0-0.2-0.1C355,58.3,355.1,58.3,355.1,58.3L355.1,58.3
		C355.2,58.3,355.2,58.3,355.1,58.3 M140.4,63c-0.6-0.3-1.1-0.6-1.7-0.9h0C139.2,62.4,139.8,62.7,140.4,63
		C140.4,63,140.4,63,140.4,63C140.4,63,140.4,63,140.4,63 M80.8,71.3c-7.5,9.4-11.2,20.1-11.2,32.6v138.9h15.2v-9.5h-5.7V94.4
		c0-12.5,3.6-23.2,11.1-32.6C86.8,64.7,83.6,67.8,80.8,71.3 M85.5,107.3c0-0.1,0.1-0.3,0.1-0.4c0,0,0,0,0,0
		C85.6,107.1,85.6,107.2,85.5,107.3 M87.9,100.6C88,100.4,87.8,100.9,87.9,100.6 M87.8,100.9c0-0.1,0.1-0.1,0.1-0.2
		C87.8,100.8,87.8,100.8,87.8,100.9 M86.4,104.2c0-0.1,0.1-0.2,0.1-0.3c0,0,0,0,0,0C86.4,104.2,86.4,104.3,86.4,104.2 M87.1,102.4
		c0-0.1,0-0.1,0.1-0.2C87.1,102.3,87.1,102.3,87.1,102.4C87.1,102.4,87.1,102.4,87.1,102.4 M87.2,102.2
		C87.3,102,87.1,102.4,87.2,102.2 M85.9,106c0,0.1,0.2-0.6,0.2-0.6c0,0,0,0,0,0C86,105.6,85.9,105.8,85.9,106 M260.3,163.8
		c0.1-0.1,0.1-0.1,0.2-0.2c0,0,0,0,0,0C260.4,163.7,260.4,163.7,260.3,163.8 M138.1,61.8c-0.6-0.3-1.2-0.6-1.9-0.8
		C136.8,61.2,137.7,61.7,138.1,61.8 M163.9,86.5C163.9,86.5,163.9,86.5,163.9,86.5c0.4,0.8,0.8,1.6,1.2,2.4
		C164.7,88.1,164.3,87.3,163.9,86.5 M162.8,84.6c-5.4-8.9-13.3-16.5-22.4-21.6c-6.5-1.6-13.5-1.2-19.7,1.2
		c-6.2,2.4-11.6,7-15.3,12.5c9-6,21.1-6.9,30.9-2.5c9.4,4.2,16.6,13.2,18.5,23.3c0.4,2.1,0.6,4.2,0.6,6.3v28.5
		c0,6.6-1.7,12.5-5.2,17.7c9.1-6.1,14.7-16.2,14.7-27.2V94.4c0-2.7-0.3-5.4-0.9-7.9C163.5,85.9,163.2,85.2,162.8,84.6 M136.3,162
		c-1.4,0.6-2.8,1.1-4.2,1.6c-1.7,1.5-3.4,2.7-5.3,3.7v18.3c15.2-1,28.8-8.7,38.3-20.5c-8.4,6.6-18,10.3-28.8,11V162 M253.1,168.3
		c0,0,0.1,0,0.1-0.1C253,168.4,252.9,168.4,253.1,168.3C253.1,168.3,253.1,168.3,253.1,168.3 M251.2,169.1
		C251.1,169.1,251.1,169.1,251.2,169.1c-0.1,0-0.1,0-0.2,0.1C251,169.1,251.1,169.1,251.2,169.1 M250.9,169.1
		C251.1,169.1,250.7,169.2,250.9,169.1 M255,167.4c0.2-0.1,0.1-0.1-0.2,0.1C254.9,167.5,255,167.4,255,167.4 M246.7,170.2
		c0.1,0,0.1,0,0.2,0C246.8,170.2,246.8,170.2,246.7,170.2C246.7,170.2,246.7,170.2,246.7,170.2 M246.9,170.1
		C246.9,170.1,246.9,170.1,246.9,170.1C246.9,170.1,246.9,170.1,246.9,170.1 M90.7,96.3C90.8,96.1,90.6,96.4,90.7,96.3 M90.7,96.2
		C90.7,96.3,90.7,96.2,90.7,96.2C90.8,96.1,90.8,96.2,90.7,96.2 M91.8,94.9C91.8,94.9,91.9,94.8,91.8,94.9
		C91.9,94.8,91.9,94.8,91.8,94.9C91.7,95,91.7,95,91.8,94.9 M256.8,166.4c0.1-0.1,0.2-0.2,0.4-0.2
		C257,166.2,256.9,166.3,256.8,166.4 M88.6,99.3c0-0.1,0.1-0.1,0.1-0.2C88.6,99.4,88.6,99.4,88.6,99.3"/>
</g>
</svg>
