
<svg version="1.1" id="Livello_1" xmlns="http://www.w3.org/2000/svg" xmlns:xlink="http://www.w3.org/1999/xlink" x="0px" y="0px"
	 viewBox="0 0 467 211" style="enable-background:new 0 0 467 211;" xml:space="preserve">
<style type="text/css">
	.st0{fill:url(#P_1_);}
	.st1{fill:url(#S_2_);}
	.st2{fill:url(#M_2_);}
	.st3{display:none;}
	.st4{display:inline;fill:url(#sur1_1_);}
	.st5{display:inline;fill:url(#sur2_1_);}
	#texte_1_{fill:white;}
</style>
<g id="texte_1_">
	<path id="p" d="M65.5,174.7h6.9c1.1,0,2,0.2,2.7,0.5s1.2,0.7,1.6,1.2s0.6,1,0.8,1.6c0.1,0.6,0.2,1.1,0.2,1.6s-0.1,1-0.2,1.6
		s-0.4,1.1-0.8,1.6s-0.9,0.9-1.6,1.2s-1.6,0.5-2.7,0.5h-4.2v6h-2.7C65.5,190.5,65.5,174.7,65.5,174.7z M68.2,182.1h4
		c0.3,0,0.6,0,0.9-0.1s0.6-0.2,0.9-0.4s0.5-0.5,0.7-0.8s0.3-0.7,0.3-1.2s-0.1-0.9-0.2-1.3c-0.1-0.3-0.3-0.6-0.6-0.8
		c-0.2-0.2-0.5-0.3-0.9-0.4c-0.3-0.1-0.7-0.1-1-0.1h-4.1C68.2,177,68.2,182.1,68.2,182.1z"/>
	<path id="r" d="M80.1,174.7h7.5c1.7,0,3,0.4,3.9,1.1c0.9,0.7,1.3,1.8,1.3,3.1c0,0.8-0.1,1.4-0.3,1.9s-0.5,0.9-0.8,1.2
		s-0.6,0.5-0.9,0.6c-0.3,0.1-0.5,0.2-0.6,0.3l0,0c0.2,0,0.5,0.1,0.8,0.2c0.3,0.1,0.5,0.3,0.8,0.6c0.2,0.3,0.4,0.6,0.6,1
		c0.2,0.4,0.2,0.9,0.2,1.5c0,0.9,0.1,1.8,0.2,2.5c0.1,0.8,0.4,1.3,0.6,1.6h-2.9c-0.2-0.3-0.3-0.7-0.4-1.1c0-0.4-0.1-0.8-0.1-1.2
		c0-0.7,0-1.3-0.1-1.9c-0.1-0.5-0.2-1-0.5-1.3c-0.2-0.3-0.5-0.6-1-0.8c-0.4-0.2-0.9-0.2-1.5-0.2h-4v6.5h-2.7v-15.6H80.1z
		 M82.9,181.8h4.5c0.9,0,1.5-0.2,2-0.6c0.5-0.4,0.7-1,0.7-1.9c0-0.5-0.1-0.9-0.2-1.2c-0.1-0.3-0.3-0.6-0.6-0.7
		c-0.3-0.2-0.5-0.3-0.9-0.4c-0.3-0.1-0.7-0.1-1-0.1h-4.5V181.8z"/>
	<path id="o" d="M102.2,174.3c1.2,0,2.2,0.2,3.2,0.7c0.9,0.4,1.7,1,2.4,1.8c0.6,0.7,1.1,1.6,1.5,2.6c0.3,1,0.5,2.1,0.5,3.2
		c0,1.1-0.2,2.2-0.5,3.2s-0.8,1.9-1.5,2.6c-0.6,0.7-1.4,1.3-2.4,1.8c-0.9,0.4-2,0.7-3.2,0.7s-2.2-0.2-3.1-0.7
		c-0.9-0.4-1.7-1-2.4-1.8c-0.6-0.7-1.1-1.6-1.5-2.6c-0.3-1-0.5-2.1-0.5-3.2c0-1.1,0.2-2.2,0.5-3.2s0.8-1.9,1.5-2.6
		c0.6-0.7,1.4-1.3,2.4-1.8C100,174.5,101.1,174.3,102.2,174.3z M102.2,176.6c-0.8,0-1.6,0.2-2.2,0.5c-0.6,0.3-1.1,0.8-1.5,1.3
		c-0.4,0.6-0.7,1.2-0.8,1.9c-0.2,0.7-0.3,1.4-0.3,2.2c0,0.7,0.1,1.5,0.3,2.2s0.5,1.4,0.8,1.9c0.4,0.6,0.9,1,1.5,1.4
		c0.6,0.3,1.3,0.5,2.2,0.5c0.8,0,1.6-0.2,2.2-0.5c0.6-0.3,1.1-0.8,1.5-1.4c0.4-0.6,0.7-1.2,0.9-1.9s0.3-1.4,0.3-2.2
		s-0.1-1.5-0.3-2.2s-0.5-1.4-0.9-1.9c-0.4-0.6-0.9-1-1.5-1.3C103.8,176.7,103.1,176.6,102.2,176.6z"/>
	<path id="d" d="M112.3,174.7h6.5c1.2,0,2.2,0.2,3.1,0.6c0.9,0.4,1.6,1,2.2,1.7c0.6,0.7,1,1.5,1.2,2.5c0.3,1,0.4,2,0.4,3.1
		s-0.1,2.1-0.4,3c-0.3,1-0.7,1.8-1.2,2.5c-0.6,0.7-1.3,1.3-2.2,1.7s-1.9,0.6-3.1,0.6h-6.5V174.7z M115,188.1h2.7
		c1.1,0,1.9-0.1,2.6-0.4c0.7-0.3,1.2-0.7,1.6-1.2c0.4-0.5,0.7-1.1,0.8-1.8s0.2-1.4,0.2-2.2s-0.1-1.5-0.2-2.2
		c-0.1-0.7-0.4-1.3-0.8-1.8c-0.4-0.5-0.9-0.9-1.6-1.2c-0.7-0.3-1.6-0.4-2.6-0.4H115V188.1z"/>
	<path id="u" d="M127.9,174.7h2.7v9.1c0,0.5,0,1.1,0.1,1.6s0.2,1,0.4,1.5c0.2,0.4,0.6,0.8,1.1,1.1s1.2,0.4,2.1,0.4
		c0.9,0,1.6-0.1,2.1-0.4c0.5-0.3,0.9-0.6,1.1-1.1c0.2-0.4,0.4-0.9,0.4-1.5c0-0.5,0.1-1.1,0.1-1.6v-9.1h2.7v10c0,1-0.2,1.9-0.5,2.6
		c-0.3,0.7-0.7,1.4-1.3,1.9s-1.2,0.9-2,1.1c-0.8,0.2-1.7,0.4-2.6,0.4c-1,0-1.8-0.1-2.6-0.4c-0.8-0.2-1.5-0.6-2-1.1
		c-0.6-0.5-1-1.1-1.3-1.9c-0.3-0.7-0.5-1.6-0.5-2.6V174.7z"/>
	<path id="i" d="M144,174.7h2.7v15.7H144V174.7z"/>
	<path id="t" d="M148.6,174.7h12.7v2.4h-5v13.3h-2.7v-13.3h-5V174.7z"/>
	<path id="s" d="M164.9,185.2c0,0.6,0.1,1.1,0.3,1.5s0.5,0.8,0.9,1c0.4,0.3,0.8,0.5,1.3,0.6s1,0.2,1.5,0.2c0.6,0,1.1-0.1,1.5-0.2
		c0.4-0.1,0.8-0.3,1-0.5c0.3-0.2,0.4-0.5,0.6-0.8c0.1-0.3,0.2-0.6,0.2-0.9c0-0.6-0.1-1-0.4-1.3c-0.3-0.3-0.6-0.5-0.9-0.6
		c-0.6-0.2-1.2-0.4-1.9-0.6c-0.7-0.2-1.7-0.4-2.7-0.7c-0.7-0.2-1.2-0.4-1.7-0.7c-0.4-0.3-0.8-0.6-1.1-1c-0.3-0.3-0.4-0.7-0.6-1.1
		c-0.1-0.4-0.2-0.8-0.2-1.2c0-0.8,0.2-1.5,0.5-2.1s0.8-1.1,1.3-1.4c0.5-0.4,1.2-0.7,1.8-0.8c0.7-0.2,1.4-0.3,2.1-0.3
		c0.8,0,1.6,0.1,2.3,0.3s1.4,0.5,1.9,1c0.6,0.4,1,1,1.3,1.6s0.5,1.3,0.5,2.2h-2.7c-0.1-1-0.4-1.7-1-2.1c-0.6-0.4-1.4-0.6-2.3-0.6
		c-0.3,0-0.6,0-1,0.1c-0.3,0.1-0.6,0.2-0.9,0.3c-0.3,0.1-0.5,0.4-0.7,0.6c-0.2,0.3-0.3,0.6-0.3,1c0,0.6,0.2,1,0.5,1.3
		s0.8,0.6,1.3,0.7c0.1,0,0.3,0.1,0.7,0.2c0.4,0.1,0.9,0.2,1.4,0.4c0.5,0.1,1,0.3,1.5,0.4c0.5,0.1,0.8,0.2,1,0.3
		c0.5,0.2,1,0.4,1.3,0.7c0.4,0.3,0.7,0.6,1,1s0.4,0.7,0.6,1.2c0.1,0.4,0.2,0.8,0.2,1.2c0,0.9-0.2,1.6-0.5,2.2
		c-0.4,0.6-0.8,1.1-1.4,1.5c-0.6,0.4-1.3,0.7-2,0.9c-0.8,0.2-1.5,0.3-2.3,0.3c-0.9,0-1.7-0.1-2.5-0.3s-1.5-0.6-2.1-1
		c-0.6-0.5-1.1-1-1.4-1.7c-0.3-0.7-0.5-1.6-0.5-2.5h2.6V185.2z"/>
	<path id="e" d="M183.4,174.7h11.3v2.4h-8.5v4.1h7.9v2.2h-7.9v4.6h8.7v2.4h-11.4v-15.7H183.4z"/>
	<path id="t_1_" d="M195.7,174.7h12.7v2.4h-5v13.3h-2.7v-13.3h-5V174.7z"/>
	<path id="s_1_" d="M218.2,185.2c0,0.6,0.1,1.1,0.3,1.5c0.2,0.4,0.5,0.8,0.9,1c0.4,0.3,0.8,0.5,1.3,0.6s1,0.2,1.5,0.2
		c0.6,0,1.1-0.1,1.5-0.2c0.4-0.1,0.8-0.3,1-0.5c0.3-0.2,0.5-0.5,0.6-0.8s0.2-0.6,0.2-0.9c0-0.6-0.1-1-0.4-1.3s-0.6-0.5-0.9-0.6
		c-0.6-0.2-1.2-0.4-1.9-0.6c-0.7-0.2-1.7-0.4-2.7-0.7c-0.7-0.2-1.2-0.4-1.7-0.7c-0.4-0.3-0.8-0.6-1.1-1c-0.3-0.3-0.4-0.7-0.6-1.1
		c-0.1-0.4-0.2-0.8-0.2-1.2c0-0.8,0.2-1.5,0.5-2.1s0.8-1.1,1.3-1.4c0.5-0.4,1.2-0.7,1.8-0.8c0.7-0.2,1.4-0.3,2.1-0.3
		c0.8,0,1.6,0.1,2.3,0.3c0.7,0.2,1.4,0.5,1.9,1c0.5,0.4,1,1,1.3,1.6s0.5,1.3,0.5,2.2H225c-0.1-1-0.4-1.7-1-2.1
		c-0.6-0.4-1.4-0.6-2.3-0.6c-0.3,0-0.7,0-1,0.1s-0.6,0.2-0.9,0.3s-0.5,0.4-0.7,0.6c-0.2,0.3-0.3,0.6-0.3,1c0,0.6,0.2,1,0.5,1.3
		s0.8,0.6,1.3,0.7c0.1,0,0.3,0.1,0.7,0.2c0.4,0.1,0.9,0.2,1.3,0.4c0.5,0.1,1,0.3,1.5,0.4c0.5,0.1,0.8,0.2,1,0.3
		c0.5,0.2,1,0.4,1.3,0.7c0.4,0.3,0.7,0.6,1,1s0.4,0.7,0.6,1.2c0.1,0.4,0.2,0.8,0.2,1.2c0,0.9-0.2,1.6-0.5,2.2
		c-0.4,0.6-0.8,1.1-1.4,1.5s-1.2,0.7-2,0.9c-0.7,0.2-1.5,0.3-2.3,0.3c-0.9,0-1.7-0.1-2.5-0.3s-1.5-0.6-2.1-1c-0.6-0.5-1.1-1-1.4-1.7
		s-0.5-1.6-0.5-2.5h2.7V185.2z"/>
	<path id="e_1_" d="M230.6,174.7h11.3v2.4h-8.5v4.1h7.9v2.2h-7.9v4.6h8.7v2.4h-11.4v-15.7H230.6z"/>
	<path id="r_1_" d="M244.4,174.7h7.5c1.7,0,3,0.4,3.9,1.1c0.9,0.7,1.3,1.8,1.3,3.1c0,0.8-0.1,1.4-0.3,1.9c-0.2,0.5-0.5,0.9-0.8,1.2
		s-0.6,0.5-0.9,0.6s-0.5,0.2-0.6,0.3l0,0c0.2,0,0.5,0.1,0.8,0.2c0.3,0.1,0.5,0.3,0.8,0.6c0.2,0.3,0.4,0.6,0.6,1s0.2,0.9,0.2,1.5
		c0,0.9,0.1,1.8,0.2,2.5c0.1,0.8,0.4,1.3,0.7,1.6h-2.9c-0.2-0.3-0.3-0.7-0.4-1.1c0-0.4-0.1-0.8-0.1-1.2c0-0.7,0-1.3-0.1-1.9
		c-0.1-0.5-0.2-1-0.5-1.3c-0.2-0.3-0.5-0.6-1-0.8c-0.4-0.2-0.9-0.2-1.5-0.2h-4v6.5h-2.7v-15.6H244.4z M247.2,181.8h4.5
		c0.9,0,1.5-0.2,2-0.6c0.5-0.4,0.7-1,0.7-1.9c0-0.5-0.1-0.9-0.2-1.2c-0.2-0.3-0.3-0.6-0.6-0.7c-0.3-0.2-0.5-0.3-0.9-0.4
		c-0.3-0.1-0.7-0.1-1-0.1h-4.5V181.8z"/>
	<path id="v" d="M257.7,174.7h2.9l3.9,12.4l0,0l4.1-12.4h2.7l-5.4,15.7h-3L257.7,174.7z"/>
	<path id="i_1_" d="M272.9,174.7h2.7v15.7h-2.7V174.7z"/>
	<path id="c" d="M289.6,179.7c-0.1-0.5-0.3-0.9-0.5-1.3c-0.2-0.4-0.5-0.7-0.8-1s-0.7-0.5-1.1-0.6s-0.9-0.2-1.5-0.2
		c-0.8,0-1.6,0.2-2.2,0.5s-1.1,0.8-1.5,1.3c-0.4,0.6-0.7,1.2-0.8,1.9c-0.2,0.7-0.3,1.4-0.3,2.2c0,0.7,0.1,1.5,0.3,2.2
		c0.2,0.7,0.5,1.4,0.8,1.9c0.4,0.6,0.9,1,1.5,1.4c0.6,0.3,1.3,0.5,2.2,0.5c0.6,0,1.2-0.1,1.6-0.3c0.5-0.2,0.9-0.5,1.2-0.9
		c0.3-0.4,0.6-0.8,0.8-1.3c0.2-0.5,0.3-1,0.4-1.6h2.7c-0.1,0.9-0.3,1.8-0.6,2.6c-0.3,0.8-0.8,1.4-1.4,2s-1.3,1-2.1,1.3
		c-0.8,0.3-1.7,0.5-2.6,0.5c-1.2,0-2.2-0.2-3.2-0.7c-0.9-0.4-1.7-1-2.4-1.8c-0.6-0.7-1.1-1.6-1.5-2.6c-0.3-1-0.5-2.1-0.5-3.2
		c0-1.1,0.2-2.2,0.5-3.2s0.8-1.9,1.5-2.6c0.6-0.7,1.4-1.3,2.4-1.8c0.9-0.4,2-0.7,3.2-0.7c0.9,0,1.7,0.1,2.5,0.4
		c0.8,0.2,1.5,0.6,2.1,1.1s1.1,1,1.4,1.7c0.4,0.7,0.6,1.4,0.7,2.3L289.6,179.7L289.6,179.7z"/>
	<path id="e_2_" d="M294.9,174.7h11.3v2.4h-8.5v4.1h7.9v2.2h-7.9v4.6h8.7v2.4H295v-15.7H294.9z"/>
	<path id="s_2_" d="M310.5,185.2c0,0.6,0.1,1.1,0.3,1.5c0.2,0.4,0.5,0.8,0.9,1c0.4,0.3,0.8,0.5,1.3,0.6s1,0.2,1.5,0.2
		c0.6,0,1.1-0.1,1.5-0.2c0.4-0.1,0.8-0.3,1-0.5c0.3-0.2,0.4-0.5,0.6-0.8c0.1-0.3,0.2-0.6,0.2-0.9c0-0.6-0.1-1-0.4-1.3
		s-0.6-0.5-0.9-0.6c-0.6-0.2-1.2-0.4-1.9-0.6c-0.7-0.2-1.6-0.4-2.7-0.7c-0.7-0.2-1.2-0.4-1.7-0.7c-0.4-0.3-0.8-0.6-1.1-1
		c-0.3-0.3-0.4-0.7-0.6-1.1c-0.1-0.4-0.2-0.8-0.2-1.2c0-0.8,0.2-1.5,0.5-2.1s0.8-1.1,1.3-1.4c0.5-0.4,1.2-0.7,1.8-0.8
		c0.7-0.2,1.4-0.3,2.1-0.3c0.8,0,1.6,0.1,2.3,0.3c0.7,0.2,1.4,0.5,1.9,1c0.5,0.4,1,1,1.3,1.6s0.5,1.3,0.5,2.2h-2.7
		c-0.1-1-0.4-1.7-1-2.1c-0.6-0.4-1.4-0.6-2.4-0.6c-0.3,0-0.7,0-1,0.1s-0.6,0.2-0.9,0.3s-0.5,0.4-0.7,0.6c-0.2,0.3-0.3,0.6-0.3,1
		c0,0.6,0.2,1,0.5,1.3s0.8,0.6,1.3,0.7c0.1,0,0.3,0.1,0.7,0.2c0.4,0.1,0.9,0.2,1.3,0.4c0.5,0.1,1,0.3,1.5,0.4c0.5,0.1,0.8,0.2,1,0.3
		c0.5,0.2,1,0.4,1.3,0.7c0.4,0.3,0.7,0.6,1,1s0.4,0.7,0.6,1.2c0.1,0.4,0.2,0.8,0.2,1.2c0,0.9-0.2,1.6-0.5,2.2
		c-0.4,0.6-0.8,1.1-1.4,1.5s-1.3,0.7-2,0.9s-1.5,0.3-2.3,0.3c-0.9,0-1.7-0.1-2.5-0.3s-1.5-0.6-2.1-1c-0.6-0.5-1.1-1-1.4-1.7
		s-0.5-1.6-0.5-2.5h2.8V185.2z"/>
	<path id="m" d="M329,174.7h3.9l4.3,12.3l0,0l4.2-12.3h3.8v15.7h-2.6v-12.1l0,0l-4.3,12.1H336l-4.3-12.1l0,0v12.1H329V174.7z"/>
	<path id="u_1_" d="M348.4,174.7h2.7v9.1c0,0.5,0,1.1,0.1,1.6s0.2,1,0.4,1.5c0.2,0.4,0.6,0.8,1.1,1.1s1.2,0.4,2.1,0.4
		s1.6-0.1,2.1-0.4c0.5-0.3,0.9-0.6,1.1-1.1c0.2-0.4,0.4-0.9,0.4-1.5c0.1-0.5,0.1-1.1,0.1-1.6v-9.1h2.7v10c0,1-0.2,1.9-0.5,2.6
		c-0.3,0.7-0.7,1.4-1.3,1.9c-0.6,0.5-1.2,0.9-2,1.1c-0.8,0.2-1.7,0.4-2.6,0.4c-1,0-1.8-0.1-2.6-0.4c-0.8-0.2-1.5-0.6-2-1.1
		c-0.6-0.5-1-1.1-1.3-1.9c-0.3-0.7-0.5-1.6-0.5-2.6L348.4,174.7L348.4,174.7z"/>
	<path id="l" d="M364.4,174.7h2.7V188h8v2.4h-10.7V174.7z"/>
	<path id="t_2_" d="M373.5,174.7h12.7v2.4h-5v13.3h-2.7v-13.3h-5V174.7z"/>
	<path id="i_2_" d="M388,174.7h2.7v15.7H388V174.7z"/>
	<path id="m_1_" d="M394,174.7h3.9l4.3,12.3l0,0l4.2-12.3h3.8v15.7h-2.6v-12.1l0,0l-4.3,12.1H401l-4.3-12.1l0,0v12.1H394V174.7z"/>
	<path id="e_3_" d="M413.6,174.7h11.3v2.4h-8.5v4.1h7.9v2.2h-7.9v4.6h8.7v2.4h-11.4v-15.7H413.6z M419.2,170h3l-3.1,3.1h-1.8
		L419.2,170z"/>
	<path id="d_1_" d="M427.4,174.7h6.5c1.2,0,2.2,0.2,3.1,0.6c0.9,0.4,1.6,1,2.1,1.7c0.6,0.7,1,1.5,1.2,2.5c0.3,1,0.4,2,0.4,3.1
		s-0.1,2.1-0.4,3c-0.3,1-0.7,1.8-1.2,2.5c-0.6,0.7-1.3,1.3-2.1,1.7c-0.9,0.4-1.9,0.6-3.1,0.6h-6.5V174.7z M430.2,188.1h2.7
		c1.1,0,1.9-0.1,2.6-0.4c0.7-0.3,1.2-0.7,1.6-1.2s0.7-1.1,0.8-1.8c0.1-0.7,0.2-1.4,0.2-2.2s-0.1-1.5-0.2-2.2s-0.4-1.3-0.8-1.8
		s-0.9-0.9-1.6-1.2s-1.6-0.4-2.6-0.4h-2.7V188.1z"/>
	<path id="i_3_" d="M443.3,174.7h2.7v15.7h-2.7V174.7z"/>
	<path id="a" d="M453.6,174.7h2.9l6,15.7h-2.9l-1.5-4.2h-6.3l-1.5,4.2h-2.8L453.6,174.7z M452.6,184.1h4.8l-2.3-6.7H455L452.6,184.1
		z"/>
</g>
<g id="P-1_">

		<linearGradient id="P_1_" gradientUnits="userSpaceOnUse" x1="65.5" y1="217.8404" x2="65.5" y2="2.3696" gradientTransform="matrix(1 0 0 -1 0 212)">
		<stop  offset="0" style="stop-color:#B4CC23"/>
		<stop  offset="1" style="stop-color:#4EAE36"/>
	</linearGradient>
	<path id="P" class="st0" d="M65.5,5.4c-15.7,0-29.1,5.6-40.3,16.8C14,33.3,8.4,46.8,8.4,62.5v142.7h28.5V62.5
		c0-7.8,2.8-14.6,8.4-20.2s12.3-8.4,20.2-8.4c7.8,0,14.6,2.8,20.2,8.4c5.6,5.6,8.4,12.3,8.4,20.2V91c0,7.9-2.8,14.6-8.4,20.2
		c-5.6,5.6-12.3,8.4-20.2,8.4v28.5c15.7,0,29.1-5.6,40.3-16.8s16.8-24.6,16.8-40.3V62.5c0-15.7-5.6-29.1-16.8-40.3
		C94.6,11,81.1,5.4,65.5,5.4z"/>
</g>
<g id="S_1_">

		<linearGradient id="S_2_" gradientUnits="userSpaceOnUse" x1="193.9" y1="214.6336" x2="193.9" y2="60.7287" gradientTransform="matrix(1 0 0 -1 0 212)">
		<stop  offset="0" style="stop-color:#B4CC23"/>
		<stop  offset="1" style="stop-color:#4EAE36"/>
	</linearGradient>
	<path id="S" class="st1" d="M193.9,33.9c-7.9,0-14.6-2.8-20.2-8.4c-5.6-5.6-8.4-12.3-8.4-20.2h-28.5c0,15.7,5.6,29.1,16.8,40.3
		s24.6,16.8,40.3,16.8c7.8,0,14.6,2.8,20.2,8.4s8.4,12.3,8.4,20.2c0,7.9-2.8,14.6-8.4,20.2c-5.6,5.6-12.3,8.4-20.2,8.4
		s-14.6-2.8-20.2-8.4c-5.6-5.6-8.4-12.3-8.4-20.2h-28.5c0,15.7,5.6,29.1,16.8,40.3s24.6,16.8,40.3,16.8s29.1-5.6,40.3-16.8
		C245.4,120.1,251,106.7,251,91s-5.6-29.1-16.8-40.3C223,39.5,209.6,33.9,193.9,33.9z"/>
</g>
<g id="M_1_">

		<linearGradient id="M_2_" gradientUnits="userSpaceOnUse" x1="334.85" y1="214.6336" x2="334.85" y2="60.7287" gradientTransform="matrix(1 0 0 -1 0 212)">
		<stop  offset="0" style="stop-color:#B4CC23"/>
		<stop  offset="1" style="stop-color:#4EAE36"/>
	</linearGradient>
	<path id="M" class="st2" d="M389.4,22.2C378.2,11,364.8,5.4,349.1,5.4v28.5c7.9,0,14.6,2.8,20.2,8.4s8.4,12.3,8.4,20.2v85.6h28.5
		V62.5C406.2,46.8,400.6,33.3,389.4,22.2z M292,5.4h-28.5v142.7H292V33.9c7.8,0,14.6,2.8,20.2,8.4s8.4,12.3,8.4,20.2v85.6h28.5V62.5
		c0-15.7-5.6-29.1-16.8-40.3C321.1,11,307.7,5.4,292,5.4z"/>
</g>
<g id="deco1" class="st3">

		<linearGradient id="sur1_1_" gradientUnits="userSpaceOnUse" x1="207.3" y1="32" x2="207.3" y2="228.5002" gradientTransform="matrix(1 0 0 -1 0 212)">
		<stop  offset="0" style="stop-color:#B4CC23"/>
		<stop  offset="1" style="stop-color:#4EAE36"/>
	</linearGradient>
	<path id="sur1" class="st4" d="M333.9,56.8c0-8.9-5.1-20.4-11.4-26.6c-4.8-4.8-9.4-9.5-15.2-11.4v15.1c2.7,1.5,5.3,3.4,7.6,5.8
		c6.3,6.3,9.5,14,9.5,22.9v81.8h20.9v-5.7h-11.4V56.8z M276.8,9.2h-9.5v135.1h20.9v-5.7h-11.4V9.2z M165.8,119.1
		c-7.2-7.2-11.9-15.2-14.1-24.3h-11c0.8,13.1,5.9,24.2,15.5,33.8c10.5,10.5,22.8,15.6,37.6,15.6s27.1-5.1,37.6-15.6
		c1.6-1.6,3.1-3.3,4.5-5c-9.4,7.5-20.1,11.2-32.6,11.2C188.6,134.8,176.3,129.7,165.8,119.1z M390.9,138.6V56.8
		c0-11.3-3.5-19.1-11.1-26.7c-4.9-4.9-13-8.1-20.7-9.8c2,4.1,3.5,8.5,4.3,13.1c3.1,1.5,5.9,3.6,8.5,6.2c6.3,6.3,9.5,14,9.5,22.9
		v81.8h20.9v-5.7H390.9z M97.8,62.5V91c0,4-0.7,7.8-2,11.4c2.2-0.8,4.3-1.9,6.3-3.2c3.5-5.2,5.2-11.1,5.2-17.7V53
		c0-8.9-3.2-16.6-9.5-22.9s-14-9.5-22.8-9.5c-6.6,0-12.5,1.7-17.7,5.2c-1.3,2-2.4,4.1-3.2,6.3c3.5-1.3,7.3-2,11.4-2
		c8.9,0,16.6,3.2,22.8,9.5C94.6,45.9,97.8,53.6,97.8,62.5z M193.9,58.7c8.9,0,16.6,3.2,22.9,9.5s9.5,14,9.5,22.8c0,4-0.7,7.8-2,11.4
		c2.2-0.8,4.3-1.9,6.3-3.2c3.5-5.2,5.2-11.1,5.2-17.7c0-8.8-3.2-16.5-9.5-22.8s-14-9.5-22.9-9.5c-14.8,0-27.1-5.1-37.6-15.7
		c-7.1-7.1-11.8-15.2-14-24.3h-11c0.8,13,6,24.3,15.5,33.8C166.8,53.5,179.1,58.7,193.9,58.7z M78.8,120.6c-3,1.4-6.1,2.2-9.5,2.6
		v21c13-0.8,24.3-6,33.8-15.5c1.6-1.6,3.1-3.3,4.5-5.1c-8.4,6.7-18,10.4-28.8,11.1V120.6z M21.7,53c0-12.5,3.7-23.2,11.2-32.6
		c-1.7,1.4-3.4,2.9-5,4.5C17.4,35.4,12.3,47.7,12.3,62.5v138.9h20.9v-9.5H21.7V53z"/>
</g>
<g id="deco2" class="st3">

		<linearGradient id="sur2_1_" gradientUnits="userSpaceOnUse" x1="213.85" y1="206.6" x2="213.85" y2="20.6001" gradientTransform="matrix(1 0 0 -1 0 212)">
		<stop  offset="0" style="stop-color:#8DBC2A"/>
		<stop  offset="1" style="stop-color:#5FAF35"/>
	</linearGradient>
	<path id="sur2" class="st5" d="M165.8,33.5C173,40.7,181.9,46,192,48c2.5,0.5,5.1,0.8,7.6,1c2.7,0.2,5.3,0,8,0.4
		c5.1,0.6,9.9,2.4,14.1,5.4c6.6,4.6,11.6,11.6,13.3,19.6c1.9,8.5,0.4,17.6-4.5,24.8c5.5-3.6,10-9,12.4-15.1c2.5-6.3,2.9-13.5,1.3-20
		c-5.3-9.8-13.7-18.1-23.5-23.5c-3-0.7-6-0.9-9-0.9c-2.9,0-5.8-0.3-8.7-0.8c-5.6-1-11-2.9-15.9-5.7c-10.3-2.3-19-11.1-21.2-21.3
		c-0.7-2.5-0.7-4.2-0.7-6.5h-14.4C152.8,16.1,158.1,25.8,165.8,33.5 M343.4,51c0-6-2.3-12.1-4.8-17.4c-1.4-2.9-2.9-5.7-4.7-8.4
		c-1.8-2.7-4.1-4.9-6.2-7.4c0.8,0.7,1.6,1.3,2.4,2l0,0c-6.5-5.9-14.2-10.3-22.7-12.6v11.4c4,1.3,7.4,3.9,10.5,6.8c3,2.8,6,5.6,8.4,9
		c4.4,6.3,7.8,14.4,7.8,22.3v81.8h15.2v-5.7h-5.7V51 M330.3,20.2c-0.1-0.1-0.2-0.2-0.3-0.3c0.6,0.5,1.1,1,1.7,1.6
		C331.2,21.1,330.7,20.6,330.3,20.2 M286.3,5.4h-9.5v133.2H292v-5.7h-5.7V5.4 M295.5,34.1c0.1,0,0.2,0,0.4,0c-0.3,0-0.7-0.1-1-0.1
		C295.1,34.1,295.3,34.1,295.5,34.1 M244.3,64L244.3,64C244.4,64.1,244.4,64.1,244.3,64 M218.5,39.4c-0.6-0.3-1.3-0.6-1.9-0.9
		C217.2,38.7,218.1,39.2,218.5,39.4 M187.3,118.8c-10.2-2.5-18.8-10.8-21.2-21.2c-0.4-2.1-0.6-4.4-0.7-6.7h-14.5
		c3.5,21,21,38.9,41.9,42.8c9.3,1.8,19.3,1.2,28.3-1.9c9.6-3.4,18-9.8,24.3-17.8c-7.8,6.3-17.3,10-27.2,10.9
		C207.6,126,196.7,124.1,187.3,118.8 M220.8,40.6c-0.6-0.3-1.2-0.6-1.8-0.9C219.6,39.9,220.2,40.2,220.8,40.6L220.8,40.6L220.8,40.6
		 M400.4,132.9V51c0-13.6-3.7-21.4-12.3-30.1c-0.7-0.7-1.5-1.4-2.2-2c-8.2-6.5-23.5-10.2-34.8-11.1L351,8.3
		c3.4,3.7,6.1,7.7,8.2,11.9c4.7,1,9.4,2.6,13.6,4.8c4.1,2.1,7.4,5,10.3,8.6c5.4,6.6,7.8,14.6,7.8,23.1v81.8h15.2v-5.7L400.4,132.9
		 M349.8,33.9c0.3,0-0.4,0-0.3,0C349.5,33.9,349.6,33.9,349.8,33.9 M388,20.8c0,0.1,0.1,0.1,0.1,0.2c0.4,0.4,0.8,0.8,1.2,1.2
		C388.9,21.6,388.4,21.2,388,20.8 M385.6,18.7c-2-1.7-4.1-3.3-6.3-4.7C381.5,15.4,383.6,17,385.6,18.7z M386,19
		c-0.1-0.1-0.2-0.2-0.3-0.3C385.7,18.8,385.8,18.9,386,19C385.9,18.9,385.9,19,386,19L386,19 M351.1,34c0.1,0,0.3,0,0.4,0l0,0
		C351.3,34,351.2,34,351.1,34 M307.1,7.3c-0.1,0-0.2,0-0.2-0.1C307,7.3,307.1,7.3,307.1,7.3L307.1,7.3
		C307.2,7.3,307.2,7.3,307.1,7.3 M92.4,12c-0.6-0.3-1.1-0.6-1.7-0.9l0,0C91.2,11.4,91.8,11.7,92.4,12L92.4,12L92.4,12 M32.8,20.3
		c-7.5,9.4-11.2,20.1-11.2,32.6v138.9h15.2v-9.5h-5.7V43.4c0-12.5,3.6-23.2,11.1-32.6C38.8,13.7,35.6,16.8,32.8,20.3 M37.5,56.3
		c0-0.1,0.1-0.3,0.1-0.4l0,0C37.6,56.1,37.6,56.2,37.5,56.3 M39.9,49.6C40,49.4,39.8,49.9,39.9,49.6 M39.8,49.9
		c0-0.1,0.1-0.1,0.1-0.2C39.8,49.8,39.8,49.8,39.8,49.9 M38.4,53.2c0-0.1,0.1-0.2,0.1-0.3l0,0C38.4,53.2,38.4,53.3,38.4,53.2
		 M39.1,51.4c0-0.1,0-0.1,0.1-0.2C39.1,51.3,39.1,51.3,39.1,51.4L39.1,51.4 M39.2,51.2C39.3,51,39.1,51.4,39.2,51.2 M37.9,55
		c0,0.1,0.2-0.6,0.2-0.6l0,0C38,54.6,37.9,54.8,37.9,55 M212.3,112.8c0.1-0.1,0.1-0.1,0.2-0.2l0,0
		C212.4,112.7,212.4,112.7,212.3,112.8 M90.1,10.8c-0.6-0.3-1.2-0.6-1.9-0.8C88.8,10.2,89.7,10.7,90.1,10.8 M115.9,35.5L115.9,35.5
		c0.4,0.8,0.8,1.6,1.2,2.4C116.7,37.1,116.3,36.3,115.9,35.5 M114.8,33.6c-5.4-8.9-13.3-16.5-22.4-21.6c-6.5-1.6-13.5-1.2-19.7,1.2
		c-6.2,2.4-11.6,7-15.3,12.5c9-6,21.1-6.9,30.9-2.5c9.4,4.2,16.6,13.2,18.5,23.3c0.4,2.1,0.6,4.2,0.6,6.3v28.5
		c0,6.6-1.7,12.5-5.2,17.7c9.1-6.1,14.7-16.2,14.7-27.2V43.4c0-2.7-0.3-5.4-0.9-7.9C115.5,34.9,115.2,34.2,114.8,33.6 M88.3,111
		c-1.4,0.6-2.8,1.1-4.2,1.6c-1.7,1.5-3.4,2.7-5.3,3.7v18.3c15.2-1,28.8-8.7,38.3-20.5c-8.4,6.6-18,10.3-28.8,11V111 M205.1,117.3
		c0,0,0.1,0,0.1-0.1C205,117.4,204.9,117.4,205.1,117.3L205.1,117.3 M203.2,118.1C203.1,118.1,203.1,118.1,203.2,118.1
		c-0.1,0-0.1,0-0.2,0.1C203,118.1,203.1,118.1,203.2,118.1 M202.9,118.1C203.1,118.1,202.7,118.2,202.9,118.1 M207,116.4
		c0.2-0.1,0.1-0.1-0.2,0.1C206.9,116.5,207,116.4,207,116.4 M198.7,119.2c0.1,0,0.1,0,0.2,0C198.8,119.2,198.8,119.2,198.7,119.2
		L198.7,119.2 M198.9,119.1L198.9,119.1L198.9,119.1 M42.7,45.3C42.8,45.1,42.6,45.4,42.7,45.3 M42.7,45.2
		C42.7,45.3,42.7,45.2,42.7,45.2C42.8,45.1,42.8,45.2,42.7,45.2 M43.8,43.9C43.8,43.9,43.9,43.8,43.8,43.9
		C43.9,43.8,43.9,43.8,43.8,43.9C43.7,44,43.7,44,43.8,43.9 M208.8,115.4c0.1-0.1,0.2-0.2,0.4-0.2
		C209,115.2,208.9,115.3,208.8,115.4 M40.6,48.3c0-0.1,0.1-0.1,0.1-0.2C40.6,48.4,40.6,48.4,40.6,48.3"/>
</g>
</svg>
