<svg version="1.1" xmlns="http://www.w3.org/2000/svg" xmlns:xlink="http://www.w3.org/1999/xlink" x="0px" y="0px"
	 viewBox="0 0 389.4 469.3" enable-background="new 0 0 389.4 469.3" xml:space="preserve">
<g id="tableau_reunion">
	<path fill="#282828" d="M278.2,430.9L278.2,430.9c-2.9,0-5.3-2.4-5.3-5.3V253c0-2.9,2.4-5.3,5.3-5.3h0c2.9,0,5.3,2.4,5.3,5.3v172.6
		C283.5,428.5,281.1,430.9,278.2,430.9z"/>
	<path fill="#353535" d="M201.8,452.4l-0.2-0.1c-2.3-1.4-3.2-4.3-2.1-6.8L275.1,283c1.3-2.9,4.9-3.9,7.6-2.3l0.2,0.1
		c2.3,1.4,3.2,4.3,2.1,6.8l-75.6,162.5C208.1,453,204.5,454.1,201.8,452.4z"/>
	<path fill="#353535" d="M354.2,452.4l0.2-0.1c2.3-1.4,3.2-4.3,2.1-6.8L280.9,283c-1.3-2.9-4.9-3.9-7.6-2.3l-0.2,0.1
		c-2.3,1.4-3.2,4.3-2.1,6.8l75.6,162.5C347.9,453,351.5,454.1,354.2,452.4z"/>
	<rect x="208.5" y="57.8" fill="#424242" width="146.4" height="237"/>
	<g id="feuille_maquette_reunion">
		<rect x="214.5" y="67.1" fill="#FFFFFF" width="134.1" height="212.2"/>
		<g id="maquette_reunion">
			<rect x="239.2" y="96.7" fill="#1B1464" width="84.9" height="45.8"/>
			<rect x="232.1" y="156.8" fill="#1B1464" width="35.2" height="45.8"/>
			<rect x="304.2" y="234.5" fill="#1B1464" width="23.9" height="38.7"/>
			<rect x="244.7" y="248.4" fill="#1B1464" width="38.7" height="23.9"/>
			<rect x="274.6" y="156.8" fill="#2E3192" width="60.6" height="5.5"/>
			<rect x="227.2" y="77.9" fill="#2E3192" width="60.6" height="5.5"/>
			<rect x="230.5" y="213.9" fill="#2E3192" width="60.6" height="5.5"/>
			<rect x="274.6" y="166.3" fill="#494949" width="57.3" height="3.4"/>
			<rect x="274.6" y="172.2" fill="#494949" width="59.4" height="3.6"/>
			<rect x="227.8" y="87" fill="#494949" width="105.8" height="3.6"/>
			<rect x="274.6" y="178.3" fill="#494949" width="57.1" height="3.4"/>
			<rect x="230.7" y="224.1" fill="#494949" width="57.3" height="3.4"/>
			<rect x="230.7" y="230" fill="#494949" width="59.9" height="3.6"/>
			<rect x="230.7" y="236" fill="#494949" width="22.2" height="3.4"/>
			<rect x="274.6" y="184.1" fill="#494949" width="60.6" height="3.6"/>
			<rect x="274.6" y="190.2" fill="#494949" width="46.5" height="2.8"/>
			<g>
				<g>
					<path fill="none" stroke="#FF0000" stroke-miterlimit="10" d="M235.7,110.1c0,0-24.5,21.5-6.4,43.7"/>
					<g>
						<polygon fill="#FF0000" points="226.8,153.3 229.1,153.5 229.4,151.1 230.3,152.2 230,154.6 227.7,154.4 						"/>
					</g>
				</g>
			</g>
			<g>
				<g>
					<path fill="none" stroke="#FF0000" stroke-miterlimit="10" d="M325.8,192.6c0,0-7.5,23.6-22.2,24.7"/>
					<g>
						<polygon fill="#FF0000" points="305.4,215.6 303.8,217.3 305.6,218.9 304.2,219 302.4,217.4 304,215.6 						"/>
					</g>
				</g>
			</g>
			<rect x="239.2" y="96.7" fill="#29ABE2" width="84.9" height="5.9"/>
			<rect x="232.2" y="156.2" fill="#29ABE2" width="35.1" height="5.9"/>
			<rect x="241.8" y="105.6" fill="#22B573" width="39" height="33.2"/>
			<rect x="234" y="164.2" fill="#22B573" width="16.6" height="17"/>
			<rect x="247.4" y="253.8" fill="#22B573" width="16.6" height="17"/>
			<rect x="307.9" y="241.9" fill="#22B573" width="16.6" height="17"/>
			<!--<text transform="matrix(1 0 0 1 245.9242 252.342)" fill="#29ABE2" font-family="'FontAwesome'" font-size="3.9867"></text>
			<text transform="matrix(1 0 0 1 306.1608 239.4216)" fill="#29ABE2" font-family="'FontAwesome'" font-size="3.9867"></text>-->
			<rect x="283.5" y="106.6" fill="#CCCCCC" width="37.4" height="4.5"/>
			<rect x="251.8" y="164.2" fill="#CCCCCC" width="14.4" height="3"/>
			<rect x="265.7" y="253.8" fill="#CCCCCC" width="15.2" height="3"/>
			<rect x="307.4" y="260.4" fill="#CCCCCC" width="17.5" height="3"/>
			<g>
				<rect x="283.5" y="114.2" fill="#D8D8D8" width="34.7" height="1.4"/>
				<rect x="283.5" y="116.8" fill="#D8D8D8" width="29.7" height="1.4"/>
				<rect x="283.5" y="119.4" fill="#D8D8D8" width="35.8" height="1.4"/>
				<rect x="283.5" y="122" fill="#D8D8D8" width="33.2" height="1.4"/>
				<rect x="283.5" y="124.6" fill="#D8D8D8" width="34.7" height="1.4"/>
				<rect x="283.5" y="127.2" fill="#D8D8D8" width="31.4" height="1.4"/>
				<rect x="283.5" y="129.8" fill="#D8D8D8" width="35.8" height="1.4"/>
			</g>
			<rect x="252" y="168" fill="#D8D8D8" width="13.9" height="0.6"/>
			<rect x="252" y="169.1" fill="#D8D8D8" width="11.9" height="0.6"/>
			<rect x="252" y="170.2" fill="#D8D8D8" width="14.3" height="0.6"/>
			<rect x="252" y="171.3" fill="#D8D8D8" width="13.3" height="0.6"/>
			<rect x="252" y="172.4" fill="#D8D8D8" width="13.9" height="0.6"/>
			<rect x="252" y="173.5" fill="#D8D8D8" width="12.6" height="0.6"/>
			<rect x="252" y="174.6" fill="#D8D8D8" width="14.3" height="0.6"/>
			<rect x="252" y="175.7" fill="#D8D8D8" width="13.9" height="0.6"/>
			<rect x="252" y="176.8" fill="#D8D8D8" width="11.9" height="0.6"/>
			<rect x="252" y="177.9" fill="#D8D8D8" width="14.3" height="0.6"/>
			<rect x="252" y="179" fill="#D8D8D8" width="13.3" height="0.6"/>
			<rect x="307.4" y="264.4" fill="#D8D8D8" width="17" height="0.8"/>
			<rect x="307.4" y="265.9" fill="#D8D8D8" width="14.6" height="0.8"/>
			<rect x="307.4" y="267.5" fill="#D8D8D8" width="17.6" height="0.8"/>
			<rect x="307.4" y="269.1" fill="#D8D8D8" width="16.3" height="0.8"/>
			<rect x="307.4" y="270.6" fill="#D8D8D8" width="17.3" height="0.8"/>
			<rect x="265.7" y="257.7" fill="#D8D8D8" width="15.5" height="0.8"/>
			<rect x="265.7" y="259.3" fill="#D8D8D8" width="13.3" height="0.8"/>
			<rect x="265.7" y="260.9" fill="#D8D8D8" width="16" height="0.8"/>
			<rect x="265.7" y="262.5" fill="#D8D8D8" width="14.8" height="0.8"/>
			<rect x="265.7" y="263.9" fill="#D8D8D8" width="15.7" height="0.8"/>
			<rect x="265.7" y="265.6" fill="#D8D8D8" width="15.2" height="0.8"/>
			<rect x="265.7" y="267.1" fill="#D8D8D8" width="15.8" height="0.8"/>
			<rect x="265.7" y="268.6" fill="#D8D8D8" width="14.8" height="0.8"/>
			<rect x="265.7" y="270.1" fill="#D8D8D8" width="14.8" height="0.8"/>
			<rect x="301.4" y="133.5" fill="#F9EEA0" width="17.5" height="5.3"/>
			<rect x="241.8" y="183.2" fill="#F9EEA0" width="17.5" height="3.7"/>
			<rect x="232.1" y="190.2" fill="#22B573" width="35.2" height="8.9"/>
		</g>
	</g>
	<g id="feuille_diagramme_reunion">
		<rect x="214.5" y="67.5" fill="#FFFFFF" width="134.1" height="212.2"/>
		<g id="diagramme_reunion">
			<ellipse fill="none" stroke="#29ABE2" stroke-miterlimit="10" cx="278.2" cy="87" rx="24.8" ry="6.4"/>
			<ellipse fill="none" stroke="#0071BC" stroke-miterlimit="10" cx="278.2" cy="265" rx="24.8" ry="6.4"/>
			<rect x="253.4" y="106.6" fill="none" stroke="#000000" stroke-miterlimit="10" width="49.6" height="9"/>
			<rect x="303.9" y="133.5" fill="none" stroke="#000000" stroke-miterlimit="10" width="34.7" height="9"/>
			<rect x="227.2" y="160.4" fill="none" stroke="#000000" stroke-miterlimit="10" width="23.2" height="9"/>
			<rect x="227.2" y="175.2" fill="none" stroke="#000000" stroke-miterlimit="10" width="23.2" height="9"/>
			<rect x="260.8" y="160.4" fill="none" stroke="#000000" stroke-miterlimit="10" width="34.7" height="9"/>
			<rect x="260.8" y="182.6" fill="none" stroke="#000000" stroke-miterlimit="10" width="34.7" height="9"/>
			<rect x="260.8" y="204.9" fill="none" stroke="#000000" stroke-miterlimit="10" width="34.7" height="9"/>
			<rect x="303.9" y="231.7" fill="none" stroke="#000000" stroke-miterlimit="10" width="34.7" height="9"/>

				<rect x="271.7" y="131.6" transform="matrix(0.7071 0.7071 -0.7071 0.7071 179.0682 -156.2857)" fill="none" stroke="#FCEE21" stroke-miterlimit="10" width="12.9" height="12.9"/>

				<rect x="271.7" y="229.8" transform="matrix(0.7071 0.7071 -0.7071 0.7071 248.5345 -127.5118)" fill="none" stroke="#FCEE21" stroke-miterlimit="10" width="12.9" height="12.9"/>

				<rect x="235.7" y="191.4" transform="matrix(0.7071 0.7071 -0.7071 0.7071 207.5759 -111.9272)" fill="none" stroke="#FCEE21" stroke-miterlimit="10" width="6.3" height="6.3"/>
			<g>
				<g>
					<line fill="none" stroke="#8CC63F" stroke-miterlimit="10" x1="277.9" y1="93.1" x2="277.9" y2="106.1"/>
					<g>
						<polygon fill="#8CC63F" points="276.4,104 277.9,105.7 279.4,104 279.4,105.4 277.9,107.1 276.4,105.4 						"/>
					</g>
				</g>
			</g>
			<g>
				<g>
					<line fill="none" stroke="#8CC63F" stroke-miterlimit="10" x1="277.9" y1="116.1" x2="277.9" y2="128.1"/>
					<g>
						<polygon fill="#8CC63F" points="276.4,126 277.9,127.7 279.4,126 279.4,127.4 277.9,129.1 276.4,127.4 						"/>
					</g>
				</g>
			</g>
			<g>
				<g>
					<line fill="none" stroke="#C1272D" stroke-miterlimit="10" x1="287.4" y1="137.6" x2="302.4" y2="137.6"/>
					<g>
						<polygon fill="#C1272D" points="300.3,139.1 302,137.6 300.3,136.1 301.7,136.1 303.4,137.6 301.7,139.1 						"/>
					</g>
				</g>
			</g>
			<g>
				<g>
					<polyline fill="none" stroke="#C1272D" stroke-miterlimit="10" points="318.9,133.1 318.9,87.1 304.1,87 					"/>
					<g>
						<polygon fill="#C1272D" points="306.1,85.3 304.4,87 306.1,88.7 304.7,88.7 303,87 304.7,85.3 						"/>
					</g>
				</g>
			</g>
			<g>
				<g>
					<line fill="none" stroke="#8CC63F" stroke-miterlimit="10" x1="277.9" y1="147.1" x2="277.9" y2="159.1"/>
					<g>
						<polygon fill="#8CC63F" points="276.4,157 277.9,158.7 279.4,157 279.4,158.4 277.9,160.1 276.4,158.4 						"/>
					</g>
				</g>
			</g>
			<g>
				<g>
					<polyline fill="none" stroke="#8CC63F" stroke-miterlimit="10" points="269.4,137.6 237.9,137.6 237.9,159.1 					"/>
					<g>
						<polygon fill="#8CC63F" points="236.4,157 237.9,158.7 239.4,157 239.4,158.4 237.9,160.1 236.4,158.4 						"/>
					</g>
				</g>
			</g>
			<g>
				<g>
					<line fill="none" stroke="#8CC63F" stroke-miterlimit="10" x1="238.9" y1="169.1" x2="238.9" y2="174.1"/>
					<g>
						<polygon fill="#8CC63F" points="237.4,172 238.9,173.7 240.4,172 240.4,173.4 238.9,175.1 237.4,173.4 						"/>
					</g>
				</g>
			</g>
			<g>
				<g>
					<line fill="none" stroke="#8CC63F" stroke-miterlimit="10" x1="238.9" y1="184.1" x2="238.9" y2="189.1"/>
					<g>
						<polygon fill="#8CC63F" points="237.4,187 238.9,188.7 240.4,187 240.4,188.4 238.9,190.1 237.4,188.4 						"/>
					</g>
				</g>
			</g>
			<g>
				<g>
					<polyline fill="none" stroke="#8CC63F" stroke-miterlimit="10" points="238.9,199.1 238.9,209.6 259.4,209.6 					"/>
					<g>
						<polygon fill="#8CC63F" points="257.3,211.1 259,209.6 257.3,208.1 258.7,208.1 260.4,209.6 258.7,211.1 						"/>
					</g>
				</g>
			</g>
			<g>
				<g>
					<line fill="none" stroke="#8CC63F" stroke-miterlimit="10" x1="277.9" y1="169.1" x2="277.9" y2="182.1"/>
					<g>
						<polygon fill="#8CC63F" points="276.4,180 277.9,181.7 279.4,180 279.4,181.4 277.9,183.1 276.4,181.4 						"/>
					</g>
				</g>
			</g>
			<g>
				<g>
					<line fill="none" stroke="#8CC63F" stroke-miterlimit="10" x1="277.9" y1="192.1" x2="277.9" y2="204.1"/>
					<g>
						<polygon fill="#8CC63F" points="276.4,202 277.9,203.7 279.4,202 279.4,203.4 277.9,205.1 276.4,203.4 						"/>
					</g>
				</g>
			</g>
			<g>
				<g>
					<line fill="none" stroke="#8CC63F" stroke-miterlimit="10" x1="277.9" y1="214.1" x2="277.9" y2="226.1"/>
					<g>
						<polygon fill="#8CC63F" points="276.4,224 277.9,225.7 279.4,224 279.4,225.4 277.9,227.1 276.4,225.4 						"/>
					</g>
				</g>
			</g>
			<g>
				<g>
					<line fill="none" stroke="#C1272D" stroke-miterlimit="10" x1="287.4" y1="236.6" x2="302.4" y2="236.6"/>
					<g>
						<polygon fill="#C1272D" points="300.3,238.1 302,236.6 300.3,235.1 301.7,235.1 303.4,236.6 301.7,238.1 						"/>
					</g>
				</g>
			</g>
			<g>
				<g>
					<polyline fill="none" stroke="#C1272D" stroke-miterlimit="10" points="320.9,232.1 320.9,165.6 296.4,165.6 					"/>
					<g>
						<polygon fill="#C1272D" points="298.5,164.1 296.8,165.6 298.5,167.1 297.1,167.1 295.4,165.6 297.1,164.1 						"/>
					</g>
				</g>
			</g>
			<g>
				<g>
					<line fill="none" stroke="#8CC63F" stroke-miterlimit="10" x1="277.9" y1="245.1" x2="277.9" y2="257.1"/>
					<g>
						<polygon fill="#8CC63F" points="276.4,255 277.9,256.7 279.4,255 279.4,256.4 277.9,258.1 276.4,256.4 						"/>
					</g>
				</g>
			</g>
			<g>
				<g>
					<polyline fill="none" stroke="#C1272D" stroke-miterlimit="10" points="234.4,194.6 221.9,194.6 221.9,110.6 252.4,110.6
						"/>
					<g>
						<polygon fill="#C1272D" points="250.3,112.1 252,110.6 250.3,109.1 251.7,109.1 253.4,110.6 251.7,112.1 						"/>
					</g>
				</g>
			</g>
		</g>
	</g>
	<path fill="none" stroke="#FFC85A" stroke-miterlimit="10" d="M336.8,71.9H226.5c-2,0-3.6-1.6-3.6-3.6V53.1c0-2,1.6-3.6,3.6-3.6
		h110.4c2,0,3.6,1.6,3.6,3.6v15.1C340.4,70.3,338.8,71.9,336.8,71.9z"/>
	<path fill="#565656" d="M353.1,59.8h-143c-5.7,0-10.2-4.6-10.2-10.2v0c0-5.7,4.6-10.2,10.2-10.2h143c5.7,0,10.2,4.6,10.2,10.2v0
		C363.4,55.2,358.8,59.8,353.1,59.8z"/>
	<path id="psm_logo_tableau" opacity="0.3" fill="#FFFFFF" d="M272.4,43c-1,0-1.9,0.4-2.6,1.1c-0.7,0.7-1.1,1.6-1.1,2.6
		l0,9.3l1.9,0l0-9.3c0-0.5,0.2-1,0.5-1.3c0.4-0.4,0.8-0.5,1.3-0.5c0.5,0,1,0.2,1.3,0.6c0.4,0.4,0.5,0.8,0.5,1.3l0,1.9
		c0,0.5-0.2,1-0.5,1.3c-0.4,0.4-0.8,0.5-1.3,0.5l0,1.9c1,0,1.9-0.4,2.6-1.1c0.7-0.7,1.1-1.6,1.1-2.6l0-1.9c0-1-0.4-1.9-1.1-2.6
		C274.3,43.4,273.4,43,272.4,43z M280.8,44.9c-0.5,0-1-0.2-1.3-0.5c-0.4-0.4-0.5-0.8-0.5-1.3l-1.9,0c0,1,0.4,1.9,1.1,2.6
		c0.7,0.7,1.6,1.1,2.6,1.1c0.5,0,1,0.2,1.3,0.5c0.4,0.4,0.5,0.8,0.5,1.3c0,0.5-0.2,1-0.5,1.3c-0.4,0.4-0.8,0.5-1.3,0.5
		c-0.5,0-1-0.2-1.3-0.6c-0.4-0.4-0.5-0.8-0.5-1.3l-1.9,0c0,1,0.4,1.9,1.1,2.6c0.7,0.7,1.6,1.1,2.6,1.1c1,0,1.9-0.4,2.6-1.1
		c0.7-0.7,1.1-1.6,1.1-2.6c0-1-0.4-1.9-1.1-2.6C282.7,45.2,281.8,44.9,280.8,44.9z M293.6,44.1c-0.7-0.7-1.6-1.1-2.6-1.1l0,1.9
		c0.5,0,1,0.2,1.3,0.6c0.4,0.4,0.5,0.8,0.5,1.3l0,5.6l1.9,0l0-5.6C294.7,45.7,294.3,44.9,293.6,44.1z M287.2,43l-1.9,0l0,9.3l1.9,0
		l0-7.5c0.5,0,1,0.2,1.3,0.6c0.4,0.4,0.5,0.8,0.5,1.3l0,5.6l1.9,0l0-5.6c0-1-0.4-1.9-1.1-2.6C289.1,43.4,288.2,43,287.2,43z"/>
	<path opacity="5.000000e-02" d="M208.4,295.1V59.6c-5-0.8-8.5-5.1-8.5-10.2c0-5.7,4.6-10.3,10.3-10.3h143c2.9,0,5.4,1.2,7.3,3.2
		L208.4,295.1z"/>
</g>
<g id="bras_gauche_reunion">

	<g id="masque_ombre_reunion">
		<defs>
			<rect id="masque_reunion" x="208.4" y="64.9" fill="none" width="146.4" height="215.4"/>
			<clipPath id="masque_reunion1">
				<use xlink:href="#masque_reunion" overflow="visible"/>
			</clipPath>
		</defs>
		<g id="ombre_clip" clip-path="url(#masque_reunion1)">
			<path id="ombre_reunion" opacity="0.2" d="M255.9,126.4l-0.5-1.3c-0.3-0.7-1.1-1-1.8-0.7l-21.7,8.2c-5.6,1.4-14.9,4-20.3,5.5
				l-66.1,16.8c-3.9,1.3-6.7,9.4-5.8,12.8l0.6,2c1,3.4,7.5,8.4,11.4,7.1l61.1-27.7c1.8,2.5,3.3,2.9,6.2,2.3c0,0,4.6-0.5,9.5-1.5
				c0.7,1.4,1.5,2.6,2.3,2.9c0.3,0.1,0.6,0.1,1-0.1c0.2,0.1,0.5,0.2,0.7,0.3c0.2,0,0.5,0,0.7-0.1c0.2,0.1,0.4,0.1,0.5,0.1
				c1.3,0,2.9-2.8,3.9-5.5c1.8-0.7,3.1-1.6,3.2-2.5c0.3-1.9-1.1-2.5-2.7-2.6c-0.1-0.2-0.3-0.5-0.6-0.9c-0.4-1.4-0.9-3.1-1.5-4.7
				c0.6-0.2,1.2-0.4,1.9-0.7c0.4-0.1,0.7-0.2,1.1-0.3l0.3-0.2c0,0,0-0.1-0.1-0.1c1.3-0.5,2.3-1,2.3-1c1,0,6.7-2.8,6.7-2.8
				c0.4,0.2,5.5-1.8,5.5-1.8C255.6,129.4,256.4,127.8,255.9,126.4z M231,143.5c0-0.3,0-0.6-0.1-0.9c0.4,0.3,0.9,0.5,1.3,0.6
				C231.8,143.4,231.4,143.5,231,143.5z M226.5,143.4c0,0.1,0,0.3,0,0.4c0,0.3,0,0.6,0.1,0.9c-0.9,0.3-1.6,0.5-1.9,0.7
				C224.3,145.7,225.1,144.7,226.5,143.4z"/>
		</g>
	</g>


	<g id="arriere-bras_gauche_reunion">
		<path fill="#F9D7C7" d="M152.3,183L152.3,183c-4.2,3.2-10.1,2.5-13.4-1.7l-25.4-32.8l15.1-11.7l25.4,32.8
			C157.2,173.8,156.5,179.8,152.3,183z"/>
		<path fill="#5691EF" d="M103.4,117.7L103.4,117.7c-5.3,3.9-6.4,11.3-2.5,16.6l11.9,16.2l19.1-14.1L120,120.3
			C116.1,115,108.7,113.8,103.4,117.7z"/>
	</g>
	<g id="avant-bras_gauche_reunion">
		<path fill="#E8CBC1" d="M235.5,146.7c1.3,3.5,2.8,8.5,3,9.8c0.4,1.9-5.4,9.1-7.6,8.4c-2.2-0.7-4.4-8-4.4-9.1c0-1.1,0.2-3.9,3-3.2
			c2.8,0.7,0.8,7.5,0.8,7.5s0.9-4.3,3.3-4.2c0,0-2.9-0.7-3.5-4.5C230.1,151.2,234.6,144.3,235.5,146.7z"/>
		<path fill="#E8CBC1" d="M233.8,146.4c1.9,3.2,4.2,7.9,4.7,9.1c0.7,1.8-3.7,9.9-6,9.6s-5.8-7.1-5.9-8.2c-0.2-1.1-0.5-3.9,2.3-3.7
			c2.8,0.2,2.1,7.2,2.1,7.2s0.1-4.4,2.5-4.8c0,0-3-0.2-4.3-3.9C229.3,151.7,232.5,144.2,233.8,146.4z"/>
		<path fill="#E8CBC1" d="M232.6,146.3c2.3,2.9,5.3,7.3,5.9,8.4c1,1.7-2.4,10.3-4.6,10.3c-2.3,0-6.7-6.2-7-7.3c-0.3-1.1-1-3.8,1.8-4
			c2.8-0.2,3.1,6.9,3.1,6.9s-0.5-4.4,1.8-5c0,0-3,0.2-4.7-3.2C228.8,152.3,231,144.3,232.6,146.3z"/>
		<path id="doigt_1_" fill="#F9D7C7" d="M235.3,149l-4.7,1.8l-1.9-5l25-9.4c0.8-0.3,1.6,0,1.8,0.7l0.5,1.3c0.5,1.4-0.3,3-1.9,3.6
			c0,0-5,2-5.5,1.8c0,0-5.8,2.8-6.7,2.8C241.8,146.6,237,148.8,235.3,149z"/>
		<path fill="#F9D7C7" d="M239.5,147.7c-1.3-2.3-2.5-3.9-3.2-4c-1.6-0.1-18.2,4.6-25.5,6.6c-1.8,0.5-2.6,2.5-1.8,4.2
			c4.2,8.3,5.3,9.8,10,8.9c0,0,21.3-2.5,21.9-6.5c0.6-4-6.3-2.2-6.3-2.2s-8.9,1.7-10,2.6c-1,0.8,6.4-7.8,14.5-9.5"/>
		<path fill="#F9D7C7" d="M140.3,181.7l-0.6-2c-1-3.4,1.9-11.5,5.8-12.8l66.2-16.9l1.6,10.7l-61.6,28
			C147.8,190.1,141.3,185.1,140.3,181.7z"/>
	</g>
</g>
<g id="corps_cp_reunion">

		<rect x="93.9" y="421.3" transform="matrix(0.9927 0.1204 -0.1204 0.9927 52.2384 -9.2327)" fill="#353535" width="17.2" height="12.9"/>

		<rect x="47" y="423" transform="matrix(-0.9964 -8.488124e-02 8.488124e-02 -0.9964 74.5091 862.0385)" fill="#353535" width="17.2" height="12.9"/>
	<path fill="#829399" d="M91.9,427.8l21.6-3.8l10-156.2c0.3-9.3-5.9-17.1-13.5-17.2l-8.5-0.1c-7.6-0.1-13.8,7.5-13.6,16.8
		L91.9,427.8z"/>
	<path fill="#829399" d="M72.4,432.3l-27.7-1.5l4.8-163.6c0.3-9.6,6.8-17.2,14.5-16.8l8.4,0.5c7.6,0.4,13.3,8.7,12.6,18.2
		L72.4,432.3z"/>
	<g>
		<path fill="#13344C" d="M62.6,429.7l-8.2-0.2c-7.3-0.2-13.4,5.9-13.5,13.5l0.7,5.4l33,0.4l1-5.1C75.7,436.1,69.9,429.9,62.6,429.7
			z"/>
		<path fill="#D6D7D8" d="M62.5,434.8l-8.1-0.2c-7.2-0.1-12.4,4.8-12.5,10.9l-0.1,4.1l32.7,0.5l0.1-4.1
			C74.7,440,69.8,435,62.5,434.8z"/>
		<path fill="#F2F3F4" d="M49.7,431.4"/>
		<path fill="#13344C" d="M66.1,430.9l-15-0.5l0-0.7c0.1-1.5,1.3-2.7,2.9-2.7l9.4,0.3c1.5,0.1,2.7,1.3,2.7,2.9L66.1,430.9z"/>
		<path fill="#F2F3F4" d="M66.8,435.2l0.1-2c0.1-1.5-1.8-2.8-2.5-2.8L53,430c-0.7,0-2.7,1.1-2.8,2.6l-0.1,2
			C50.2,434.6,59.2,432,66.8,435.2z"/>
		<polygon fill="#656666" points="74.7,448.9 41.7,448.3 41.7,449.5 74.6,450.1 		"/>
	</g>
	<g>
		<path fill="#13344C" d="M90.6,431.3c-1.2,3-2.9,9-2.5,17.3l62,2c0,0-2.8-13.5-8.1-14.7c-5.3-1.3-12.4-3.3-14.3-3.3
			c-1.9-0.1-7.3-3.5-7.6-4.9s0.9-3-0.6-4.3l0,0c-0.6-0.5-1.5-0.1-1.6,0.6l-0.1,1.3c-0.1,1.5,0,3.5-1.5,3.4l-9.2-1.2
			c-1.4-0.1-5.6,3.7-13.5,2.1C92.4,429.4,91.1,430.1,90.6,431.3z"/>
		<path fill="#D6D7D8" d="M132.1,449.9l18.8,0.6c0,0-2.8-13.5-8.1-14.7c-1.6-0.4-3.3-0.8-5-1.3C137.9,434.5,132.7,438.1,132.1,449.9
			z"/>
		<path fill="#656666" d="M88.5,449.6l62,1.5c0.4,0,0.8-0.3,0.8-0.8l0,0c0-0.4-0.3-0.8-0.8-0.8l-62-1.5c-0.4,0-0.8,0.3-0.8,0.8l0,0
			C87.7,449.2,88.1,449.6,88.5,449.6z"/>
		<path fill="#F2F3F4" d="M120.1,427.6c0.3,1.4,5.6,4.8,7.6,4.9c1.3,0,5,1,8.9,2l-3.8,0.7c0,0-9.1-0.8-10.2-1.7
			c-1.1-0.8-2.9-3.6-2.9-3.6L120.1,427.6z"/>
		<path fill="#F2F3F4" d="M110.4,427.9l-1.7-0.2c0,0-11.6,9.1-14.7,20.5l2.8,0.1C96.7,448.3,96.7,441.4,110.4,427.9z"/>
	</g>
	<polygon fill="#829399" points="122.2,289.9 49.3,289.9 49.8,246 110.1,250.5 	"/>
	<path fill="#5B93FF" d="M124.2,273.2L49.3,257l2.8-52.2l-4.6-90.2l26.1-8.5h22.1l17.9,9.5c3.7,0.1,6.7,4.8,6.8,8.5l1.9,67.5
		c-0.1,1.1-0.2,2.2-0.1,3.2L124.2,273.2z"/>
	<g>
		<path fill="#F9D7C7" d="M35.8,185.1l-2.1,0.1c-3.5,0.1-10,5-9.9,8.9l6.6,62.3l14.7-0.6l1.2-62.7C46.2,189.3,39.3,185,35.8,185.1z"
			/>
		<path fill="#F9D7C7" d="M37.5,199.1l-8-1.5c-3.9-0.8-6.5-4.6-5.7-8.5l10.9-56.3c1.2-6.1,7.1-10.1,13.2-8.9h0
			c6.1,1.2,10.1,7.1,8.9,13.2L46,193.4C45.2,197.3,41.4,199.9,37.5,199.1z"/>
		<path fill="#69A3FF" d="M53.2,115.1L53.2,115.1c-6.7-2-13.8,1.7-15.8,8.4l-7.7,25.4l24.2,7.4l7.7-25.4
			C63.7,124.2,59.9,117.2,53.2,115.1z"/>
		<path fill="#EDCBBE" d="M48.3,263.5c0,0,5.1,9.6,4.8,10.9s-2.3,3-3.7,2.4S48.3,263.5,48.3,263.5z"/>
		<path fill="#F9D7C7" d="M46.3,281.7H32.3c-2.4,0-4.3-1.9-4.3-4.3v-10.5c0-4.3,3.5-7.7,7.7-7.7h7.1c4.3,0,7.7,3.5,7.7,7.7v10.5
			C50.6,279.7,48.6,281.7,46.3,281.7z"/>
		<path fill="#D1D1D1" d="M31.3,256l12.9-0.8c0.9-0.1,1.7,0.6,1.7,1.5l0.1,1.9c0.1,0.9-0.6,1.7-1.5,1.7l-12.9,0.8
			c-0.9,0.1-1.7-0.6-1.7-1.5l-0.1-1.9C29.8,256.8,30.5,256,31.3,256z"/>
		<path fill="#E2E2E2" d="M41.7,262.5l-6.1,0.5c-0.6,0.1-1.2-0.4-1.2-1l-0.6-6.7c-0.1-0.6,0.4-1.2,1-1.2l6.1-0.5
			c0.6-0.1,1.2,0.4,1.2,1l0.6,6.7C42.7,261.9,42.3,262.5,41.7,262.5z"/>

			<rect x="34.7" y="254.5" transform="matrix(0.9961 -8.843733e-02 8.843733e-02 0.9961 -22.6937 4.393)" fill="#595959" width="7.1" height="7.7"/>
	</g>
	<g>
		<path fill="#EDD1CA" d="M95.8,106.2l-9,5.1c-1.3,0.7-2.8,0.7-4.1,0l-9-5.1V91.1h22.1V106.2z"/>
		<path fill="#F9D7C7" d="M116.4,45c0,19.4-6.8,54.4-31.4,54.4S54.7,64,54.7,44.7s12.7-27.4,30.3-27.4
			C102.7,17.3,116.4,25.6,116.4,45"/>
		<polygon fill="#F4C6A4" points="80.6,75.4 88.9,75.4 85.1,78.6 		"/>
		<path fill="#F9D7C7" d="M53.7,65.1c0.5,1.5,1.7,3.5,2.9,3.1c1.2-0.5,0.4-2.1,0.1-3.9c-0.2-1.8-0.1-6-2.3-5.8
			C52.3,58.8,53.2,63.4,53.7,65.1"/>
		<path fill="#1D0421" d="M86.7,60.4C86.7,60.4,86.7,60.4,86.7,60.4C86.6,60.4,86.6,60.4,86.7,60.4L86.7,60.4z"/>
		<path fill="#BC9661" d="M85.1,17.3c-41.2,0-29.5,40.8-29.5,40.8s10.6-3.7,18.6-15.2c0,0,0.3,3.4-2.9,8c5.1-1.6,8.6-8.2,8.6-8.2
			s0.2,3.3-1.4,6.4c6.6,0.6,22.1-11.7,22.1-11.7s1.8,10.7,5.5,17.4c0.4-4.1,2-8.4,2-8.4c4.5,4.7,7,11.7,7,11.7S126.2,17.3,85.1,17.3
			z"/>
	</g>
</g>
</svg>
